%
M48
M72
T01C0.02000
T02C0.03543
T03C0.04000
T04C0.04400
%
T01
X76471Y88665
X49817Y111254
X63370Y135650
X63370Y189410
X81893Y195283
X85055Y191218
X85055Y202512
X63370Y215613
X59756Y211547
X100415Y226004
X135202Y211095
X139719Y213354
X156435Y211095
X160501Y203867
X173151Y211095
X211099Y204771
X226460Y207481
X221490Y227359
X194836Y253110
X252662Y207481
X266667Y199349
X269830Y191218
X268926Y238202
X107644Y191669
T02
X90000Y157524
X130000Y157524
X200000Y157524
X240000Y157524
X240000Y257524
X200000Y257524
X185000Y257524
X145000Y257524
X130000Y257524
X90000Y257524
T03
X45000Y87524
X45000Y97524
X55000Y97524
X55000Y87524
X70000Y102524
X70000Y112524
X70000Y122524
X70000Y132524
X70000Y142524
X70000Y152524
X70000Y162524
X70000Y172524
X70000Y182524
X70000Y192524
X70000Y207524
X70000Y217524
X70000Y227524
X70000Y237524
X70000Y247524
X70000Y257524
X70000Y267524
X70000Y277524
X55000Y277524
X45000Y277524
X45000Y267524
X55000Y267524
X55000Y257524
X45000Y257524
X45000Y247524
X55000Y247524
X55000Y237524
X45000Y237524
X45000Y227524
X55000Y227524
X55000Y217524
X45000Y217524
X45000Y207524
X55000Y207524
X55000Y197524
X45000Y197524
X45000Y187524
X55000Y187524
X55000Y177524
X45000Y177524
X45000Y167524
X55000Y167524
X55000Y157524
X45000Y157524
X45000Y147524
X55000Y147524
X55000Y137524
X45000Y137524
X45000Y127524
X55000Y127524
X55000Y117524
X45000Y117524
X45000Y107524
X55000Y107524
X185000Y287524
X195000Y287524
X205000Y287524
X215000Y287524
X225000Y287524
X235000Y287524
X245000Y287524
X260000Y277524
X260000Y267524
X260000Y257524
X260000Y247524
X260000Y237524
X260000Y227524
X275000Y227524
X275000Y237524
X285000Y237524
X285000Y227524
X285000Y217524
X275000Y217524
X275000Y207524
X285000Y207524
X285000Y197524
X275000Y197524
X275000Y187524
X285000Y187524
X285000Y177524
X275000Y177524
X275000Y167524
X285000Y167524
X285000Y157524
X275000Y157524
X275000Y147524
X285000Y147524
X285000Y137524
X275000Y137524
X275000Y127524
X285000Y127524
X285000Y117524
X275000Y117524
X275000Y107524
X285000Y107524
X285000Y97524
X275000Y97524
X275000Y87524
X285000Y87524
X260000Y137524
X260000Y147524
X260000Y157524
X260000Y167524
X260000Y177524
X260000Y187524
X260000Y197524
X260000Y207524
X275000Y247524
X275000Y257524
X275000Y267524
X275000Y277524
X285000Y277524
X285000Y267524
X285000Y257524
X285000Y247524
T04
X235000Y242524
X235000Y232524
X235000Y222524
X235000Y212524
X235000Y202524
X235000Y192524
X235000Y182524
X235000Y172524
X205000Y172524
X205000Y182524
X205000Y192524
X205000Y202524
X205000Y212524
X205000Y222524
X205000Y232524
X205000Y242524
X180000Y242524
X180000Y232524
X180000Y222524
X180000Y212524
X180000Y202524
X180000Y192524
X180000Y182524
X180000Y172524
X150000Y172524
X150000Y182524
X150000Y192524
X150000Y202524
X150000Y212524
X150000Y222524
X150000Y232524
X150000Y242524
X125000Y242524
X125000Y232524
X125000Y222524
X125000Y212524
X125000Y202524
X125000Y192524
X125000Y182524
X125000Y172524
X95000Y172524
X95000Y182524
X95000Y192524
X95000Y202524
X95000Y212524
X95000Y222524
X95000Y232524
X95000Y242524
X95000Y142524
X95000Y132524
X95000Y122524
X95000Y112524
X95000Y102524
X95000Y92524
X95000Y82524
X95000Y72524
X125000Y72524
X125000Y82524
X125000Y92524
X125000Y102524
X125000Y112524
X125000Y122524
X125000Y132524
X125000Y142524
X205000Y142524
X205000Y132524
X205000Y122524
X205000Y112524
X205000Y102524
X205000Y92524
X205000Y82524
X205000Y72524
X235000Y72524
X235000Y82524
X235000Y92524
X235000Y102524
X235000Y112524
X235000Y122524
X235000Y132524
X235000Y142524
M30
