G75*
%MOIN*%
%OFA0B0*%
%FSLAX25Y25*%
%IPPOS*%
%LPD*%
%AMOC8*
5,1,8,0,0,1.08239X$1,22.5*
%
%ADD10C,0.08200*%
%ADD11R,0.07600X0.07600*%
%ADD12C,0.07600*%
%ADD13C,0.07200*%
%ADD14OC8,0.07200*%
D10*
X0070000Y0102524D03*
X0070000Y0112524D03*
X0070000Y0122524D03*
X0070000Y0132524D03*
X0070000Y0142524D03*
X0070000Y0152524D03*
X0070000Y0162524D03*
X0070000Y0172524D03*
X0070000Y0182524D03*
X0070000Y0192524D03*
X0070000Y0207524D03*
X0070000Y0217524D03*
X0070000Y0227524D03*
X0070000Y0237524D03*
X0070000Y0247524D03*
X0070000Y0257524D03*
X0070000Y0267524D03*
X0070000Y0277524D03*
X0090000Y0257524D03*
X0130000Y0257524D03*
X0145000Y0257524D03*
X0185000Y0257524D03*
X0200000Y0257524D03*
X0240000Y0257524D03*
X0260000Y0257524D03*
X0260000Y0267524D03*
X0260000Y0277524D03*
X0260000Y0247524D03*
X0260000Y0237524D03*
X0260000Y0227524D03*
X0260000Y0207524D03*
X0260000Y0197524D03*
X0260000Y0187524D03*
X0260000Y0177524D03*
X0260000Y0167524D03*
X0260000Y0157524D03*
X0260000Y0147524D03*
X0260000Y0137524D03*
X0240000Y0157524D03*
X0200000Y0157524D03*
X0130000Y0157524D03*
X0090000Y0157524D03*
D11*
X0095000Y0142524D03*
X0095000Y0242524D03*
X0150000Y0242524D03*
X0205000Y0242524D03*
X0205000Y0142524D03*
D12*
X0205000Y0132524D03*
X0205000Y0122524D03*
X0205000Y0112524D03*
X0205000Y0102524D03*
X0205000Y0092524D03*
X0205000Y0082524D03*
X0205000Y0072524D03*
X0235000Y0072524D03*
X0235000Y0082524D03*
X0235000Y0092524D03*
X0235000Y0102524D03*
X0235000Y0112524D03*
X0235000Y0122524D03*
X0235000Y0132524D03*
X0235000Y0142524D03*
X0235000Y0172524D03*
X0235000Y0182524D03*
X0235000Y0192524D03*
X0235000Y0202524D03*
X0235000Y0212524D03*
X0235000Y0222524D03*
X0235000Y0232524D03*
X0235000Y0242524D03*
X0205000Y0232524D03*
X0205000Y0222524D03*
X0205000Y0212524D03*
X0205000Y0202524D03*
X0205000Y0192524D03*
X0205000Y0182524D03*
X0205000Y0172524D03*
X0180000Y0172524D03*
X0180000Y0182524D03*
X0180000Y0192524D03*
X0180000Y0202524D03*
X0180000Y0212524D03*
X0180000Y0222524D03*
X0180000Y0232524D03*
X0180000Y0242524D03*
X0150000Y0232524D03*
X0150000Y0222524D03*
X0150000Y0212524D03*
X0150000Y0202524D03*
X0150000Y0192524D03*
X0150000Y0182524D03*
X0150000Y0172524D03*
X0125000Y0172524D03*
X0125000Y0182524D03*
X0125000Y0192524D03*
X0125000Y0202524D03*
X0125000Y0212524D03*
X0125000Y0222524D03*
X0125000Y0232524D03*
X0125000Y0242524D03*
X0095000Y0232524D03*
X0095000Y0222524D03*
X0095000Y0212524D03*
X0095000Y0202524D03*
X0095000Y0192524D03*
X0095000Y0182524D03*
X0095000Y0172524D03*
X0125000Y0142524D03*
X0125000Y0132524D03*
X0125000Y0122524D03*
X0125000Y0112524D03*
X0125000Y0102524D03*
X0125000Y0092524D03*
X0125000Y0082524D03*
X0125000Y0072524D03*
X0095000Y0072524D03*
X0095000Y0082524D03*
X0095000Y0092524D03*
X0095000Y0102524D03*
X0095000Y0112524D03*
X0095000Y0122524D03*
X0095000Y0132524D03*
D13*
X0185000Y0284324D02*
X0185000Y0290724D01*
X0195000Y0290724D02*
X0195000Y0284324D01*
X0205000Y0284324D02*
X0205000Y0290724D01*
X0215000Y0290724D02*
X0215000Y0284324D01*
X0225000Y0284324D02*
X0225000Y0290724D01*
X0235000Y0290724D02*
X0235000Y0284324D01*
X0245000Y0284324D02*
X0245000Y0290724D01*
D14*
X0045000Y0087524D03*
X0045000Y0097524D03*
X0055000Y0097524D03*
X0055000Y0087524D03*
X0055000Y0107524D03*
X0055000Y0117524D03*
X0055000Y0127524D03*
X0045000Y0127524D03*
X0045000Y0117524D03*
X0045000Y0107524D03*
X0045000Y0137524D03*
X0045000Y0147524D03*
X0045000Y0157524D03*
X0045000Y0167524D03*
X0055000Y0167524D03*
X0055000Y0157524D03*
X0055000Y0147524D03*
X0055000Y0137524D03*
X0055000Y0177524D03*
X0055000Y0187524D03*
X0055000Y0197524D03*
X0055000Y0207524D03*
X0045000Y0207524D03*
X0045000Y0197524D03*
X0045000Y0187524D03*
X0045000Y0177524D03*
X0045000Y0217524D03*
X0045000Y0227524D03*
X0045000Y0237524D03*
X0055000Y0237524D03*
X0055000Y0227524D03*
X0055000Y0217524D03*
X0055000Y0247524D03*
X0055000Y0257524D03*
X0055000Y0267524D03*
X0055000Y0277524D03*
X0045000Y0277524D03*
X0045000Y0267524D03*
X0045000Y0257524D03*
X0045000Y0247524D03*
X0275000Y0247524D03*
X0275000Y0257524D03*
X0275000Y0267524D03*
X0275000Y0277524D03*
X0285000Y0277524D03*
X0285000Y0267524D03*
X0285000Y0257524D03*
X0285000Y0247524D03*
X0285000Y0237524D03*
X0275000Y0237524D03*
X0275000Y0227524D03*
X0285000Y0227524D03*
X0285000Y0217524D03*
X0275000Y0217524D03*
X0275000Y0207524D03*
X0285000Y0207524D03*
X0285000Y0197524D03*
X0275000Y0197524D03*
X0275000Y0187524D03*
X0285000Y0187524D03*
X0285000Y0177524D03*
X0275000Y0177524D03*
X0275000Y0167524D03*
X0285000Y0167524D03*
X0285000Y0157524D03*
X0275000Y0157524D03*
X0275000Y0147524D03*
X0285000Y0147524D03*
X0285000Y0137524D03*
X0275000Y0137524D03*
X0275000Y0127524D03*
X0285000Y0127524D03*
X0285000Y0117524D03*
X0275000Y0117524D03*
X0275000Y0107524D03*
X0285000Y0107524D03*
X0285000Y0097524D03*
X0275000Y0097524D03*
X0275000Y0087524D03*
X0285000Y0087524D03*
M02*
