G75*
%MOIN*%
%OFA0B0*%
%FSLAX25Y25*%
%IPPOS*%
%LPD*%
%AMOC8*
5,1,8,0,0,1.08239X$1,22.5*
%
%ADD10R,0.14890X0.00111*%
%ADD11R,0.06220X0.00111*%
%ADD12R,0.06330X0.00111*%
%ADD13R,0.04120X0.00111*%
%ADD14R,0.02110X0.00111*%
%ADD15R,0.02000X0.00111*%
%ADD16R,0.06440X0.00111*%
%ADD17R,0.04340X0.00111*%
%ADD18R,0.02220X0.00111*%
%ADD19R,0.14890X0.00112*%
%ADD20R,0.06440X0.00112*%
%ADD21R,0.04340X0.00112*%
%ADD22R,0.02110X0.00112*%
%ADD23R,0.02220X0.00112*%
%ADD24R,0.06330X0.00112*%
%ADD25R,0.06550X0.00111*%
%ADD26R,0.04230X0.00111*%
%ADD27R,0.02220X0.00111*%
%ADD28R,0.08440X0.00111*%
%ADD29R,0.04220X0.00111*%
%ADD30R,0.04110X0.00111*%
%ADD31R,0.08550X0.00111*%
%ADD32R,0.04220X0.00111*%
%ADD33R,0.08550X0.00112*%
%ADD34R,0.04220X0.00112*%
%ADD35R,0.04220X0.00112*%
%ADD36R,0.04330X0.00111*%
%ADD37R,0.08560X0.00111*%
%ADD38R,0.04340X0.00111*%
%ADD39R,0.06220X0.00111*%
%ADD40R,0.10670X0.00111*%
%ADD41R,0.04440X0.00111*%
%ADD42R,0.06450X0.00111*%
%ADD43R,0.06340X0.00111*%
%ADD44R,0.06450X0.00112*%
%ADD45R,0.10670X0.00112*%
%ADD46R,0.04330X0.00112*%
%ADD47R,0.06340X0.00112*%
%ADD48R,0.10780X0.00111*%
%ADD49R,0.02330X0.00111*%
%ADD50R,0.01890X0.00111*%
%ADD51R,0.02230X0.00111*%
%ADD52R,0.13000X0.00111*%
%ADD53R,0.14670X0.00111*%
%ADD54R,0.01890X0.00111*%
%ADD55R,0.12890X0.00111*%
%ADD56R,0.15000X0.00111*%
%ADD57R,0.02120X0.00111*%
%ADD58R,0.12780X0.00111*%
%ADD59R,0.12780X0.00112*%
%ADD60R,0.15000X0.00112*%
%ADD61R,0.02120X0.00112*%
%ADD62R,0.06000X0.00111*%
%ADD63R,0.12560X0.00111*%
%ADD64R,0.02340X0.00111*%
%ADD65R,0.04230X0.00112*%
%ADD66R,0.04000X0.00111*%
%ADD67R,0.14780X0.00111*%
%ADD68R,0.02000X0.00112*%
%ADD69R,0.08670X0.00112*%
%ADD70R,0.02230X0.00112*%
%ADD71R,0.08560X0.00112*%
%ADD72R,0.16880X0.00111*%
%ADD73R,0.17000X0.00111*%
%ADD74R,0.17000X0.00112*%
%ADD75R,0.08330X0.00111*%
%ADD76R,0.02440X0.00111*%
%ADD77R,0.04670X0.00111*%
%ADD78R,0.08440X0.00112*%
%ADD79R,0.02550X0.00111*%
%ADD80R,0.02450X0.00111*%
%ADD81R,0.04660X0.00111*%
%ADD82R,0.01780X0.00111*%
%ADD83R,0.17120X0.00111*%
%ADD84R,0.17120X0.00112*%
%ADD85R,0.10560X0.00111*%
%ADD86R,0.06560X0.00111*%
%ADD87R,0.08450X0.00111*%
%ADD88R,0.08670X0.00111*%
%ADD89R,0.04450X0.00111*%
%ADD90R,0.02340X0.00111*%
%ADD91R,0.04110X0.00112*%
%ADD92R,0.06550X0.00112*%
%ADD93R,0.02330X0.00112*%
%ADD94R,0.02440X0.00112*%
%ADD95R,0.02560X0.00112*%
%ADD96R,0.14890X0.00111*%
%ADD97R,0.14890X0.00112*%
%ADD98R,0.02220X0.00112*%
%ADD99R,0.06670X0.00111*%
%ADD100R,0.01770X0.00111*%
%ADD101R,0.04340X0.00112*%
%ADD102R,0.14780X0.00112*%
%ADD103R,0.06340X0.00111*%
%ADD104R,0.06340X0.00112*%
%ADD105R,0.01220X0.00111*%
%ADD106R,0.00330X0.00111*%
%ADD107R,0.00450X0.00111*%
%ADD108R,0.01660X0.00111*%
%ADD109R,0.00440X0.00111*%
%ADD110R,0.00670X0.00111*%
%ADD111R,0.00890X0.00111*%
%ADD112R,0.00560X0.00111*%
%ADD113R,0.00670X0.00112*%
%ADD114R,0.00670X0.00112*%
%ADD115R,0.00560X0.00112*%
%ADD116R,0.00450X0.00112*%
%ADD117R,0.00340X0.00111*%
%ADD118R,0.00550X0.00111*%
%ADD119R,0.01340X0.00111*%
%ADD120R,0.01110X0.00111*%
%ADD121R,0.00780X0.00111*%
%ADD122R,0.02890X0.00111*%
%ADD123R,0.01000X0.00111*%
%ADD124R,0.03000X0.00111*%
%ADD125R,0.00440X0.00111*%
%ADD126R,0.01670X0.00111*%
%ADD127R,0.01440X0.00111*%
%ADD128R,0.01560X0.00111*%
%ADD129R,0.01450X0.00111*%
%ADD130R,0.02440X0.00112*%
%ADD131R,0.00550X0.00112*%
%ADD132R,0.01890X0.00112*%
%ADD133R,0.01000X0.00112*%
%ADD134R,0.02890X0.00112*%
%ADD135R,0.00780X0.00112*%
%ADD136R,0.03000X0.00112*%
%ADD137R,0.01780X0.00112*%
%ADD138R,0.02660X0.00111*%
%ADD139R,0.02780X0.00111*%
%ADD140R,0.02890X0.00111*%
%ADD141R,0.01220X0.00111*%
%ADD142R,0.00770X0.00111*%
%ADD143R,0.00670X0.00111*%
%ADD144R,0.00660X0.00111*%
%ADD145R,0.00890X0.00111*%
%ADD146R,0.00660X0.00112*%
%ADD147R,0.00230X0.00111*%
%ADD148R,0.01670X0.00111*%
%ADD149R,0.00880X0.00111*%
%ADD150R,0.02560X0.00111*%
%ADD151R,0.00890X0.00112*%
%ADD152R,0.00220X0.00111*%
%ADD153R,0.02670X0.00111*%
%ADD154R,0.01330X0.00111*%
%ADD155R,0.01550X0.00111*%
%ADD156R,0.00340X0.00111*%
%ADD157R,0.01220X0.00112*%
%ADD158R,0.01550X0.00112*%
%ADD159R,0.02550X0.00112*%
%ADD160R,0.01220X0.00112*%
%ADD161R,0.01560X0.00112*%
%ADD162R,0.01440X0.00112*%
%ADD163R,0.00440X0.00112*%
%ADD164R,0.00440X0.00112*%
%ADD165R,0.00110X0.00111*%
%ADD166R,0.00220X0.00111*%
%ADD167R,0.01230X0.00111*%
%ADD168R,0.03890X0.00111*%
%ADD169R,0.05560X0.00111*%
%ADD170R,0.06220X0.00112*%
%ADD171R,0.06890X0.00111*%
%ADD172R,0.07560X0.00111*%
%ADD173R,0.08110X0.00111*%
%ADD174R,0.09000X0.00111*%
%ADD175R,0.09550X0.00111*%
%ADD176R,0.10000X0.00111*%
%ADD177R,0.10330X0.00111*%
%ADD178R,0.11110X0.00111*%
%ADD179R,0.11330X0.00111*%
%ADD180R,0.11670X0.00111*%
%ADD181R,0.12000X0.00111*%
%ADD182R,0.12220X0.00111*%
%ADD183R,0.13220X0.00112*%
%ADD184R,0.13560X0.00111*%
%ADD185R,0.13780X0.00111*%
%ADD186R,0.14000X0.00111*%
%ADD187R,0.14220X0.00111*%
%ADD188R,0.14440X0.00111*%
%ADD189R,0.03560X0.00111*%
%ADD190R,0.05890X0.00111*%
%ADD191R,0.03550X0.00111*%
%ADD192R,0.03230X0.00111*%
%ADD193R,0.04890X0.00111*%
%ADD194R,0.03110X0.00111*%
%ADD195R,0.02660X0.00112*%
%ADD196R,0.02670X0.00111*%
%ADD197R,0.03670X0.00111*%
%ADD198R,0.03220X0.00111*%
%ADD199R,0.01670X0.00112*%
%ADD200R,0.01890X0.00112*%
%ADD201R,0.01670X0.00112*%
%ADD202R,0.01450X0.00112*%
%ADD203R,0.03660X0.00111*%
%ADD204R,0.03330X0.00111*%
%ADD205R,0.03450X0.00111*%
%ADD206R,0.03220X0.00111*%
%ADD207R,0.03340X0.00111*%
%ADD208R,0.02770X0.00111*%
%ADD209R,0.01330X0.00112*%
%ADD210R,0.01660X0.00112*%
%ADD211R,0.00340X0.00112*%
%ADD212R,0.00120X0.00111*%
%ADD213R,0.12330X0.00111*%
%ADD214R,0.12550X0.00111*%
%ADD215R,0.13110X0.00111*%
%ADD216R,0.13110X0.00112*%
%ADD217R,0.12890X0.00111*%
%ADD218R,0.12110X0.00111*%
%ADD219R,0.07330X0.00111*%
%ADD220R,0.02780X0.00112*%
%ADD221R,0.03780X0.00111*%
%ADD222R,0.01110X0.00112*%
%ADD223R,0.04560X0.00111*%
%ADD224C,0.00000*%
%ADD225C,0.00600*%
%ADD226C,0.00800*%
%ADD227C,0.00500*%
%ADD228C,0.00300*%
%ADD229C,0.03000*%
%ADD230R,0.02000X0.03000*%
%ADD231R,0.04000X0.03000*%
%ADD232R,0.03000X0.03000*%
D10*
X0140826Y0066525D03*
X0140826Y0066636D03*
X0140826Y0066747D03*
X0140826Y0066858D03*
X0140826Y0066969D03*
X0140826Y0067080D03*
X0140826Y0067191D03*
X0140826Y0067302D03*
X0140826Y0067525D03*
X0140826Y0067636D03*
X0140826Y0067747D03*
X0140826Y0067858D03*
X0140826Y0067969D03*
X0140826Y0068080D03*
X0140826Y0068191D03*
X0140826Y0068302D03*
X0140826Y0068525D03*
X0140826Y0079302D03*
X0140826Y0079525D03*
X0140826Y0079636D03*
X0140826Y0079747D03*
X0140826Y0079858D03*
X0140826Y0079969D03*
X0140826Y0080080D03*
X0140826Y0080191D03*
X0140826Y0080302D03*
X0140826Y0080525D03*
X0140826Y0080636D03*
X0140826Y0080747D03*
X0140826Y0080858D03*
X0140826Y0080969D03*
X0140826Y0081080D03*
X0140826Y0081191D03*
X0140826Y0113525D03*
X0140826Y0113636D03*
X0140826Y0113747D03*
X0140826Y0113858D03*
X0140826Y0113969D03*
X0140826Y0114080D03*
X0140826Y0114191D03*
X0140826Y0114302D03*
X0140826Y0114525D03*
X0140826Y0114636D03*
X0140826Y0114747D03*
X0140826Y0114858D03*
X0140826Y0114969D03*
X0140826Y0115080D03*
X0140826Y0115191D03*
X0140826Y0115302D03*
X0140826Y0126191D03*
X0140826Y0126302D03*
X0140826Y0126525D03*
X0140826Y0126636D03*
X0140826Y0126747D03*
X0140826Y0126858D03*
X0140826Y0126969D03*
X0140826Y0127080D03*
X0140826Y0127191D03*
X0140826Y0127302D03*
X0140826Y0127525D03*
X0140826Y0127636D03*
X0140826Y0127747D03*
X0140826Y0127858D03*
X0140826Y0127969D03*
X0140826Y0128080D03*
X0140826Y0128191D03*
X0181156Y0077080D03*
D11*
X0166381Y0068525D03*
X0153601Y0066525D03*
D12*
X0166436Y0066525D03*
X0140766Y0070858D03*
X0140766Y0076969D03*
X0136546Y0087969D03*
X0136546Y0088080D03*
X0136546Y0088191D03*
X0136546Y0088302D03*
X0136546Y0088525D03*
X0136546Y0088636D03*
X0136546Y0088747D03*
X0136546Y0088858D03*
X0136546Y0088969D03*
X0136546Y0089080D03*
X0136546Y0089191D03*
X0136546Y0089302D03*
X0136546Y0089525D03*
X0136546Y0089636D03*
X0136546Y0089747D03*
X0136546Y0089858D03*
X0147216Y0096525D03*
X0147216Y0096636D03*
X0147216Y0096747D03*
X0147216Y0096858D03*
X0147216Y0096969D03*
X0147216Y0097080D03*
X0147216Y0097191D03*
X0147216Y0097302D03*
X0147216Y0097525D03*
X0147216Y0097636D03*
X0147216Y0097747D03*
X0147216Y0097858D03*
X0147216Y0097969D03*
X0147216Y0098080D03*
X0147216Y0098191D03*
X0147216Y0098302D03*
X0153546Y0102636D03*
X0140766Y0117747D03*
X0140766Y0123858D03*
X0181326Y0104636D03*
X0181326Y0104525D03*
X0181326Y0104302D03*
X0181326Y0104191D03*
X0181326Y0104080D03*
X0181326Y0103969D03*
X0181326Y0103858D03*
X0181326Y0103747D03*
X0181326Y0103636D03*
X0181326Y0103525D03*
X0181326Y0103302D03*
X0181326Y0103191D03*
X0181326Y0103080D03*
X0181326Y0102969D03*
X0181326Y0102858D03*
X0181326Y0102747D03*
X0187766Y0117747D03*
X0187766Y0123858D03*
D13*
X0175991Y0124080D03*
X0190991Y0109080D03*
X0175991Y0066525D03*
D14*
X0172766Y0068747D03*
X0172766Y0068858D03*
X0172766Y0068969D03*
X0172766Y0069080D03*
X0172766Y0069191D03*
X0172766Y0069302D03*
X0172766Y0069525D03*
X0172766Y0069636D03*
X0172766Y0069747D03*
X0172766Y0069858D03*
X0172766Y0069969D03*
X0172766Y0070080D03*
X0172766Y0070191D03*
X0172766Y0070302D03*
X0172766Y0070525D03*
X0172766Y0072969D03*
X0172766Y0073080D03*
X0172766Y0073191D03*
X0172766Y0073302D03*
X0172766Y0073525D03*
X0172766Y0073636D03*
X0172766Y0073747D03*
X0172766Y0073858D03*
X0172766Y0073969D03*
X0172766Y0074080D03*
X0172766Y0074191D03*
X0172766Y0074302D03*
X0172766Y0074525D03*
X0172766Y0074636D03*
X0172766Y0074747D03*
X0168546Y0075080D03*
X0168546Y0075191D03*
X0168546Y0075302D03*
X0168546Y0075525D03*
X0168546Y0075636D03*
X0168546Y0075747D03*
X0168546Y0075858D03*
X0168546Y0075969D03*
X0168546Y0076080D03*
X0168546Y0076191D03*
X0168546Y0076302D03*
X0168546Y0076525D03*
X0168546Y0076636D03*
X0168546Y0076747D03*
X0168546Y0076858D03*
X0168546Y0076969D03*
X0166436Y0072636D03*
X0166436Y0072525D03*
X0166436Y0072302D03*
X0166436Y0072191D03*
X0166436Y0072080D03*
X0166436Y0071969D03*
X0166436Y0071858D03*
X0166436Y0071747D03*
X0166436Y0071636D03*
X0166436Y0071525D03*
X0166436Y0071302D03*
X0166436Y0071191D03*
X0166436Y0071080D03*
X0166436Y0070969D03*
X0166436Y0070858D03*
X0162106Y0079302D03*
X0162106Y0079525D03*
X0162106Y0079636D03*
X0162106Y0079747D03*
X0162106Y0079858D03*
X0162106Y0079969D03*
X0162106Y0080080D03*
X0162106Y0080191D03*
X0162106Y0080302D03*
X0162106Y0080525D03*
X0162106Y0080636D03*
X0162106Y0080747D03*
X0162106Y0080858D03*
X0162106Y0080969D03*
X0162106Y0081080D03*
X0162106Y0083747D03*
X0162106Y0083858D03*
X0162106Y0083969D03*
X0162106Y0084080D03*
X0162106Y0084191D03*
X0162106Y0084302D03*
X0162106Y0084525D03*
X0162106Y0084636D03*
X0162106Y0084747D03*
X0162106Y0084858D03*
X0162106Y0084969D03*
X0162106Y0085080D03*
X0162106Y0085191D03*
X0162106Y0085302D03*
X0162106Y0085525D03*
X0162106Y0085636D03*
X0162106Y0085747D03*
X0162106Y0085858D03*
X0162106Y0085969D03*
X0162106Y0086080D03*
X0162106Y0086191D03*
X0162106Y0086302D03*
X0162106Y0086525D03*
X0162106Y0086636D03*
X0162106Y0086747D03*
X0162106Y0086858D03*
X0162106Y0086969D03*
X0162106Y0087080D03*
X0162106Y0087191D03*
X0162106Y0087302D03*
X0162106Y0087525D03*
X0157876Y0087525D03*
X0157876Y0087636D03*
X0157876Y0087302D03*
X0157876Y0087191D03*
X0157876Y0087080D03*
X0157876Y0086969D03*
X0157876Y0086858D03*
X0157876Y0086747D03*
X0157876Y0086636D03*
X0157876Y0086525D03*
X0157876Y0086302D03*
X0157876Y0086191D03*
X0157876Y0086080D03*
X0157876Y0085969D03*
X0157876Y0085858D03*
X0157876Y0085747D03*
X0157876Y0085636D03*
X0157876Y0085525D03*
X0157876Y0085302D03*
X0157876Y0085191D03*
X0157876Y0085080D03*
X0157876Y0084969D03*
X0157876Y0084858D03*
X0157876Y0084747D03*
X0157876Y0084636D03*
X0157876Y0084525D03*
X0157876Y0084302D03*
X0157876Y0084191D03*
X0157876Y0084080D03*
X0157876Y0083969D03*
X0157876Y0083858D03*
X0157876Y0083747D03*
X0157876Y0083636D03*
X0151436Y0083302D03*
X0151436Y0083191D03*
X0151436Y0083080D03*
X0151436Y0082969D03*
X0151436Y0082858D03*
X0151436Y0082747D03*
X0151436Y0082636D03*
X0151436Y0082525D03*
X0151436Y0082302D03*
X0151436Y0082191D03*
X0151436Y0082080D03*
X0151436Y0081969D03*
X0151436Y0081858D03*
X0151436Y0081747D03*
X0151436Y0081636D03*
X0151436Y0081525D03*
X0147216Y0083636D03*
X0147216Y0083747D03*
X0147216Y0083858D03*
X0147216Y0083969D03*
X0147216Y0084080D03*
X0147216Y0084191D03*
X0147216Y0084302D03*
X0147216Y0084525D03*
X0147216Y0084636D03*
X0147216Y0084747D03*
X0147216Y0084858D03*
X0147216Y0084969D03*
X0147216Y0085080D03*
X0147216Y0085191D03*
X0147216Y0085302D03*
X0147216Y0085525D03*
X0149326Y0085747D03*
X0149326Y0085858D03*
X0149326Y0085969D03*
X0149326Y0086080D03*
X0149326Y0086191D03*
X0149326Y0086302D03*
X0149326Y0086525D03*
X0149326Y0086636D03*
X0149326Y0086747D03*
X0149326Y0086858D03*
X0149326Y0086969D03*
X0149326Y0087080D03*
X0149326Y0087191D03*
X0149326Y0087302D03*
X0149326Y0087525D03*
X0149326Y0087636D03*
X0145106Y0090080D03*
X0145106Y0090191D03*
X0145106Y0090302D03*
X0145106Y0090525D03*
X0145106Y0090636D03*
X0145106Y0090747D03*
X0145106Y0090858D03*
X0145106Y0090969D03*
X0145106Y0091080D03*
X0145106Y0091191D03*
X0145106Y0091302D03*
X0145106Y0091525D03*
X0145106Y0091636D03*
X0145106Y0091747D03*
X0140766Y0091747D03*
X0140766Y0091858D03*
X0140766Y0091636D03*
X0140766Y0091525D03*
X0140766Y0091302D03*
X0140766Y0091191D03*
X0140766Y0091080D03*
X0140766Y0090969D03*
X0140766Y0090858D03*
X0140766Y0090747D03*
X0140766Y0090636D03*
X0140766Y0090525D03*
X0140766Y0090302D03*
X0140766Y0090191D03*
X0140766Y0090080D03*
X0140766Y0089969D03*
X0134436Y0092191D03*
X0134436Y0092302D03*
X0134436Y0092525D03*
X0134436Y0092636D03*
X0134436Y0092747D03*
X0134436Y0092858D03*
X0134436Y0092969D03*
X0134436Y0093080D03*
X0134436Y0093191D03*
X0134436Y0093302D03*
X0134436Y0093525D03*
X0134436Y0093636D03*
X0134436Y0093747D03*
X0134436Y0093858D03*
X0134436Y0093969D03*
X0134436Y0094080D03*
X0136546Y0098525D03*
X0136546Y0098636D03*
X0136546Y0098747D03*
X0136546Y0098858D03*
X0136546Y0098969D03*
X0136546Y0099080D03*
X0136546Y0099191D03*
X0136546Y0099302D03*
X0136546Y0099525D03*
X0136546Y0099636D03*
X0136546Y0099747D03*
X0136546Y0099858D03*
X0136546Y0099969D03*
X0136546Y0100080D03*
X0136546Y0100191D03*
X0136546Y0100302D03*
X0136546Y0100525D03*
X0136546Y0100636D03*
X0136546Y0100747D03*
X0136546Y0100858D03*
X0136546Y0100969D03*
X0136546Y0101080D03*
X0136546Y0101191D03*
X0136546Y0101302D03*
X0136546Y0101525D03*
X0136546Y0101636D03*
X0136546Y0101747D03*
X0136546Y0101858D03*
X0136546Y0101969D03*
X0136546Y0102080D03*
X0136546Y0102191D03*
X0136546Y0102302D03*
X0136546Y0102525D03*
X0138656Y0102747D03*
X0138656Y0102858D03*
X0138656Y0102969D03*
X0138656Y0103080D03*
X0138656Y0103191D03*
X0138656Y0103302D03*
X0138656Y0103525D03*
X0138656Y0103636D03*
X0138656Y0103747D03*
X0138656Y0103858D03*
X0138656Y0103969D03*
X0138656Y0104080D03*
X0138656Y0104191D03*
X0138656Y0104302D03*
X0138656Y0104525D03*
X0138656Y0104636D03*
X0140766Y0107191D03*
X0140766Y0107302D03*
X0140766Y0107525D03*
X0140766Y0107636D03*
X0140766Y0107747D03*
X0140766Y0107858D03*
X0140766Y0107969D03*
X0140766Y0108080D03*
X0140766Y0108191D03*
X0140766Y0108302D03*
X0140766Y0108525D03*
X0140766Y0108636D03*
X0140766Y0108747D03*
X0140766Y0108858D03*
X0147216Y0109191D03*
X0147216Y0109302D03*
X0147216Y0109525D03*
X0147216Y0109636D03*
X0147216Y0109747D03*
X0147216Y0109858D03*
X0147216Y0109969D03*
X0147216Y0110080D03*
X0147216Y0110191D03*
X0147216Y0110302D03*
X0147216Y0110525D03*
X0147216Y0110636D03*
X0147216Y0110747D03*
X0147216Y0110858D03*
X0147216Y0110969D03*
X0147216Y0111080D03*
X0147216Y0115636D03*
X0147216Y0115747D03*
X0147216Y0115858D03*
X0147216Y0115969D03*
X0147216Y0116080D03*
X0147216Y0116191D03*
X0147216Y0116302D03*
X0147216Y0116525D03*
X0147216Y0116636D03*
X0147216Y0116747D03*
X0147216Y0116858D03*
X0147216Y0116969D03*
X0147216Y0117080D03*
X0147216Y0117191D03*
X0147216Y0117302D03*
X0147216Y0117525D03*
X0147216Y0117636D03*
X0147216Y0117747D03*
X0147216Y0117858D03*
X0147216Y0117969D03*
X0147216Y0118080D03*
X0147216Y0118191D03*
X0147216Y0118302D03*
X0147216Y0118525D03*
X0147216Y0118636D03*
X0147216Y0118747D03*
X0147216Y0118858D03*
X0147216Y0118969D03*
X0147216Y0119080D03*
X0147216Y0119191D03*
X0147216Y0119302D03*
X0147216Y0119525D03*
X0147216Y0119636D03*
X0147216Y0119747D03*
X0147216Y0119858D03*
X0147216Y0119969D03*
X0147216Y0120080D03*
X0147216Y0120191D03*
X0147216Y0120302D03*
X0147216Y0120525D03*
X0147216Y0120636D03*
X0147216Y0120747D03*
X0147216Y0120858D03*
X0147216Y0120969D03*
X0147216Y0121080D03*
X0147216Y0121191D03*
X0147216Y0121302D03*
X0147216Y0121525D03*
X0147216Y0121636D03*
X0147216Y0121747D03*
X0147216Y0121858D03*
X0147216Y0121969D03*
X0147216Y0122080D03*
X0147216Y0122191D03*
X0147216Y0122302D03*
X0147216Y0122525D03*
X0147216Y0122636D03*
X0147216Y0122747D03*
X0147216Y0122858D03*
X0147216Y0122969D03*
X0147216Y0123080D03*
X0147216Y0123191D03*
X0147216Y0123302D03*
X0147216Y0123525D03*
X0147216Y0123636D03*
X0147216Y0123747D03*
X0147216Y0123858D03*
X0147216Y0123969D03*
X0147216Y0124080D03*
X0147216Y0124191D03*
X0147216Y0124302D03*
X0147216Y0124525D03*
X0147216Y0124636D03*
X0147216Y0124747D03*
X0147216Y0124858D03*
X0147216Y0124969D03*
X0147216Y0125080D03*
X0147216Y0125191D03*
X0147216Y0125302D03*
X0147216Y0125525D03*
X0147216Y0125636D03*
X0147216Y0125747D03*
X0147216Y0125858D03*
X0147216Y0125969D03*
X0153656Y0121969D03*
X0157876Y0122080D03*
X0157876Y0122191D03*
X0157876Y0122302D03*
X0157876Y0122525D03*
X0157876Y0122636D03*
X0157876Y0122747D03*
X0157876Y0122858D03*
X0157876Y0122969D03*
X0157876Y0123080D03*
X0157876Y0123191D03*
X0157876Y0123302D03*
X0157876Y0123525D03*
X0157876Y0123636D03*
X0157876Y0123747D03*
X0157876Y0123858D03*
X0162106Y0121636D03*
X0162106Y0121525D03*
X0162106Y0121302D03*
X0162106Y0121191D03*
X0162106Y0121080D03*
X0162106Y0120969D03*
X0162106Y0120858D03*
X0162106Y0120747D03*
X0162106Y0120636D03*
X0162106Y0120525D03*
X0162106Y0120302D03*
X0162106Y0120191D03*
X0162106Y0120080D03*
X0162106Y0119969D03*
X0162106Y0119858D03*
X0164216Y0119636D03*
X0168546Y0117525D03*
X0168546Y0117302D03*
X0168546Y0117191D03*
X0168546Y0117080D03*
X0168546Y0116969D03*
X0168546Y0116858D03*
X0168546Y0116747D03*
X0168546Y0116636D03*
X0168546Y0116525D03*
X0168546Y0116302D03*
X0168546Y0116191D03*
X0168546Y0116080D03*
X0168546Y0115969D03*
X0168546Y0115858D03*
X0168546Y0115747D03*
X0168546Y0115636D03*
X0168546Y0115525D03*
X0168546Y0115302D03*
X0168546Y0115191D03*
X0168546Y0115080D03*
X0168546Y0114969D03*
X0168546Y0114858D03*
X0168546Y0114747D03*
X0168546Y0114636D03*
X0168546Y0114525D03*
X0168546Y0114302D03*
X0168546Y0114191D03*
X0168546Y0114080D03*
X0168546Y0113969D03*
X0168546Y0113858D03*
X0168546Y0113747D03*
X0168546Y0113636D03*
X0168546Y0113525D03*
X0168546Y0113302D03*
X0168546Y0113191D03*
X0168546Y0113080D03*
X0168546Y0112969D03*
X0168546Y0112858D03*
X0168546Y0112747D03*
X0168546Y0112636D03*
X0168546Y0112525D03*
X0168546Y0112302D03*
X0168546Y0112191D03*
X0168546Y0112080D03*
X0168546Y0111969D03*
X0168546Y0111858D03*
X0168546Y0111747D03*
X0168546Y0111636D03*
X0168546Y0111525D03*
X0168546Y0111302D03*
X0166436Y0111080D03*
X0166436Y0110969D03*
X0166436Y0110858D03*
X0166436Y0110747D03*
X0166436Y0110636D03*
X0166436Y0110525D03*
X0166436Y0110302D03*
X0166436Y0110191D03*
X0166436Y0110080D03*
X0166436Y0109969D03*
X0166436Y0109858D03*
X0166436Y0109747D03*
X0166436Y0109636D03*
X0166436Y0109525D03*
X0166436Y0109302D03*
X0170656Y0109302D03*
X0170656Y0109191D03*
X0170656Y0109525D03*
X0170656Y0109636D03*
X0170656Y0109747D03*
X0170656Y0109858D03*
X0170656Y0109969D03*
X0170656Y0110080D03*
X0170656Y0110191D03*
X0170656Y0110302D03*
X0170656Y0110525D03*
X0170656Y0110636D03*
X0170656Y0110747D03*
X0170656Y0110858D03*
X0170656Y0110969D03*
X0170656Y0111080D03*
X0172766Y0113525D03*
X0172766Y0113636D03*
X0172766Y0113747D03*
X0172766Y0113858D03*
X0172766Y0113969D03*
X0172766Y0114080D03*
X0172766Y0114191D03*
X0172766Y0114302D03*
X0172766Y0114525D03*
X0172766Y0114636D03*
X0172766Y0114747D03*
X0172766Y0114858D03*
X0172766Y0114969D03*
X0172766Y0115080D03*
X0172766Y0115191D03*
X0172766Y0115302D03*
X0172766Y0115525D03*
X0172766Y0115636D03*
X0172766Y0115747D03*
X0172766Y0115858D03*
X0172766Y0115969D03*
X0172766Y0116080D03*
X0172766Y0116191D03*
X0172766Y0116302D03*
X0172766Y0116525D03*
X0172766Y0116636D03*
X0172766Y0116747D03*
X0172766Y0116858D03*
X0172766Y0116969D03*
X0172766Y0117080D03*
X0172766Y0117191D03*
X0172766Y0117302D03*
X0172766Y0117525D03*
X0170656Y0119858D03*
X0170656Y0119969D03*
X0170656Y0120080D03*
X0170656Y0120191D03*
X0170656Y0120302D03*
X0170656Y0120525D03*
X0170656Y0120636D03*
X0170656Y0120747D03*
X0170656Y0120858D03*
X0170656Y0120969D03*
X0170656Y0121080D03*
X0170656Y0121191D03*
X0170656Y0121302D03*
X0170656Y0121525D03*
X0170656Y0121636D03*
X0170656Y0121747D03*
X0168546Y0121969D03*
X0168546Y0122080D03*
X0168546Y0122191D03*
X0168546Y0122302D03*
X0168546Y0122525D03*
X0168546Y0122636D03*
X0168546Y0122747D03*
X0168546Y0122858D03*
X0168546Y0122969D03*
X0168546Y0123080D03*
X0168546Y0123191D03*
X0168546Y0123302D03*
X0168546Y0123525D03*
X0168546Y0123636D03*
X0168546Y0123747D03*
X0168546Y0123858D03*
X0170656Y0124191D03*
X0170656Y0124302D03*
X0170656Y0124525D03*
X0170656Y0124636D03*
X0170656Y0124747D03*
X0170656Y0124858D03*
X0170656Y0124969D03*
X0170656Y0125080D03*
X0170656Y0125191D03*
X0170656Y0125302D03*
X0170656Y0125525D03*
X0170656Y0125636D03*
X0170656Y0125747D03*
X0170656Y0125858D03*
X0170656Y0125969D03*
X0172766Y0126191D03*
X0172766Y0126302D03*
X0172766Y0126525D03*
X0172766Y0126636D03*
X0172766Y0126747D03*
X0172766Y0126858D03*
X0172766Y0126969D03*
X0172766Y0127080D03*
X0172766Y0127191D03*
X0172766Y0127302D03*
X0172766Y0127525D03*
X0172766Y0127636D03*
X0172766Y0127747D03*
X0172766Y0127858D03*
X0172766Y0127969D03*
X0172766Y0128080D03*
X0181326Y0125969D03*
X0181326Y0125858D03*
X0181326Y0125747D03*
X0181326Y0125636D03*
X0181326Y0125525D03*
X0181326Y0125302D03*
X0181326Y0125191D03*
X0181326Y0125080D03*
X0181326Y0124969D03*
X0181326Y0124858D03*
X0181326Y0124747D03*
X0181326Y0124636D03*
X0181326Y0124525D03*
X0181326Y0124302D03*
X0181326Y0124191D03*
X0181326Y0124080D03*
X0181326Y0123969D03*
X0181326Y0123858D03*
X0181326Y0123747D03*
X0181326Y0123636D03*
X0181326Y0123525D03*
X0181326Y0123302D03*
X0181326Y0123191D03*
X0181326Y0123080D03*
X0181326Y0122969D03*
X0181326Y0122858D03*
X0181326Y0122747D03*
X0181326Y0122636D03*
X0181326Y0122525D03*
X0181326Y0122302D03*
X0181326Y0122191D03*
X0181326Y0122080D03*
X0181326Y0121969D03*
X0181326Y0121858D03*
X0181326Y0121747D03*
X0181326Y0121636D03*
X0181326Y0121525D03*
X0181326Y0121302D03*
X0181326Y0121191D03*
X0181326Y0121080D03*
X0181326Y0120969D03*
X0181326Y0120858D03*
X0181326Y0120747D03*
X0181326Y0120636D03*
X0181326Y0120525D03*
X0181326Y0120302D03*
X0181326Y0120191D03*
X0181326Y0120080D03*
X0181326Y0119969D03*
X0181326Y0119858D03*
X0181326Y0119747D03*
X0181326Y0119636D03*
X0181326Y0119525D03*
X0181326Y0119302D03*
X0181326Y0119191D03*
X0181326Y0119080D03*
X0181326Y0118969D03*
X0181326Y0118858D03*
X0181326Y0118747D03*
X0181326Y0118636D03*
X0181326Y0118525D03*
X0181326Y0118302D03*
X0181326Y0118191D03*
X0181326Y0118080D03*
X0181326Y0117969D03*
X0181326Y0117858D03*
X0181326Y0117747D03*
X0181326Y0117636D03*
X0181326Y0117525D03*
X0181326Y0117302D03*
X0181326Y0117191D03*
X0181326Y0117080D03*
X0181326Y0116969D03*
X0181326Y0116858D03*
X0181326Y0116747D03*
X0181326Y0116636D03*
X0181326Y0116525D03*
X0181326Y0116302D03*
X0181326Y0116191D03*
X0181326Y0116080D03*
X0181326Y0115969D03*
X0181326Y0115858D03*
X0181326Y0115747D03*
X0181326Y0115636D03*
X0177106Y0115636D03*
X0177106Y0115747D03*
X0177106Y0115858D03*
X0177106Y0115969D03*
X0177106Y0116080D03*
X0177106Y0116191D03*
X0177106Y0116302D03*
X0177106Y0116525D03*
X0177106Y0116636D03*
X0177106Y0116747D03*
X0177106Y0116858D03*
X0177106Y0116969D03*
X0177106Y0117080D03*
X0177106Y0117191D03*
X0177106Y0117302D03*
X0177106Y0115525D03*
X0177106Y0115302D03*
X0177106Y0115191D03*
X0177106Y0115080D03*
X0177106Y0114969D03*
X0177106Y0114858D03*
X0177106Y0114747D03*
X0177106Y0114636D03*
X0177106Y0114525D03*
X0177106Y0114302D03*
X0177106Y0114191D03*
X0177106Y0114080D03*
X0177106Y0113969D03*
X0177106Y0113858D03*
X0177106Y0113747D03*
X0177106Y0113636D03*
X0177106Y0113525D03*
X0177106Y0113302D03*
X0177106Y0113191D03*
X0177106Y0113080D03*
X0177106Y0112969D03*
X0177106Y0112858D03*
X0177106Y0112747D03*
X0177106Y0112636D03*
X0177106Y0112525D03*
X0177106Y0112302D03*
X0177106Y0112191D03*
X0177106Y0112080D03*
X0177106Y0111969D03*
X0177106Y0111858D03*
X0177106Y0111747D03*
X0177106Y0111636D03*
X0177106Y0111525D03*
X0179216Y0108969D03*
X0179216Y0108858D03*
X0179216Y0108747D03*
X0179216Y0108636D03*
X0179216Y0108525D03*
X0179216Y0108302D03*
X0179216Y0108191D03*
X0179216Y0108080D03*
X0179216Y0107969D03*
X0179216Y0107858D03*
X0179216Y0107747D03*
X0179216Y0107636D03*
X0179216Y0107525D03*
X0179216Y0107302D03*
X0179216Y0107191D03*
X0179216Y0107080D03*
X0177106Y0106858D03*
X0177106Y0106747D03*
X0177106Y0106636D03*
X0177106Y0106525D03*
X0177106Y0106302D03*
X0177106Y0106191D03*
X0177106Y0106080D03*
X0177106Y0105969D03*
X0177106Y0105858D03*
X0177106Y0105747D03*
X0177106Y0105636D03*
X0177106Y0105525D03*
X0177106Y0105302D03*
X0177106Y0105191D03*
X0177106Y0105080D03*
X0177106Y0104969D03*
X0177106Y0104858D03*
X0177106Y0102636D03*
X0177106Y0102525D03*
X0177106Y0102302D03*
X0177106Y0102191D03*
X0177106Y0102080D03*
X0177106Y0101969D03*
X0177106Y0101858D03*
X0177106Y0101747D03*
X0177106Y0101636D03*
X0177106Y0101525D03*
X0177106Y0101302D03*
X0177106Y0101191D03*
X0177106Y0101080D03*
X0177106Y0100969D03*
X0177106Y0100858D03*
X0177106Y0100747D03*
X0172766Y0100747D03*
X0172766Y0100858D03*
X0172766Y0100969D03*
X0172766Y0101080D03*
X0172766Y0101191D03*
X0172766Y0101302D03*
X0172766Y0101525D03*
X0172766Y0101636D03*
X0172766Y0101747D03*
X0172766Y0101858D03*
X0172766Y0101969D03*
X0172766Y0102080D03*
X0172766Y0102191D03*
X0172766Y0102302D03*
X0172766Y0102525D03*
X0172766Y0102636D03*
X0172766Y0100636D03*
X0170656Y0102747D03*
X0170656Y0102858D03*
X0170656Y0102969D03*
X0170656Y0103080D03*
X0170656Y0103191D03*
X0170656Y0103302D03*
X0170656Y0103525D03*
X0170656Y0103636D03*
X0170656Y0103747D03*
X0170656Y0103858D03*
X0170656Y0103969D03*
X0170656Y0104080D03*
X0170656Y0104191D03*
X0170656Y0104302D03*
X0170656Y0104525D03*
X0170656Y0104636D03*
X0170656Y0104747D03*
X0172766Y0104858D03*
X0172766Y0104969D03*
X0172766Y0105080D03*
X0172766Y0105191D03*
X0172766Y0105302D03*
X0172766Y0105525D03*
X0172766Y0105636D03*
X0172766Y0105747D03*
X0172766Y0105858D03*
X0172766Y0105969D03*
X0172766Y0106080D03*
X0172766Y0106191D03*
X0172766Y0106302D03*
X0172766Y0106525D03*
X0172766Y0106636D03*
X0172766Y0106747D03*
X0168546Y0102636D03*
X0168546Y0102525D03*
X0168546Y0102302D03*
X0168546Y0102191D03*
X0168546Y0102080D03*
X0168546Y0101969D03*
X0168546Y0101858D03*
X0168546Y0101747D03*
X0168546Y0101636D03*
X0168546Y0101525D03*
X0168546Y0101302D03*
X0168546Y0101191D03*
X0168546Y0101080D03*
X0168546Y0100969D03*
X0168546Y0100858D03*
X0168546Y0100747D03*
X0168546Y0100636D03*
X0166436Y0100302D03*
X0166436Y0100191D03*
X0166436Y0100080D03*
X0166436Y0099969D03*
X0166436Y0099858D03*
X0166436Y0099747D03*
X0166436Y0099636D03*
X0166436Y0099525D03*
X0166436Y0099302D03*
X0166436Y0099191D03*
X0166436Y0099080D03*
X0166436Y0098969D03*
X0166436Y0098858D03*
X0166436Y0098747D03*
X0166436Y0098636D03*
X0170656Y0098302D03*
X0170656Y0098191D03*
X0170656Y0098080D03*
X0170656Y0097969D03*
X0170656Y0097858D03*
X0170656Y0097747D03*
X0170656Y0097636D03*
X0170656Y0097525D03*
X0170656Y0097302D03*
X0170656Y0097191D03*
X0170656Y0097080D03*
X0170656Y0096969D03*
X0170656Y0096858D03*
X0170656Y0096747D03*
X0170656Y0096636D03*
X0170656Y0096525D03*
X0170656Y0093969D03*
X0170656Y0093858D03*
X0170656Y0093747D03*
X0170656Y0093636D03*
X0170656Y0093525D03*
X0170656Y0093302D03*
X0170656Y0093191D03*
X0170656Y0093080D03*
X0170656Y0092969D03*
X0170656Y0092858D03*
X0170656Y0092747D03*
X0170656Y0092636D03*
X0170656Y0092525D03*
X0170656Y0092302D03*
X0170656Y0092191D03*
X0177106Y0083302D03*
X0177106Y0083191D03*
X0177106Y0083080D03*
X0177106Y0082969D03*
X0177106Y0082858D03*
X0177106Y0082747D03*
X0177106Y0082636D03*
X0177106Y0082525D03*
X0177106Y0082302D03*
X0177106Y0082191D03*
X0177106Y0082080D03*
X0177106Y0081969D03*
X0177106Y0081858D03*
X0177106Y0081747D03*
X0177106Y0081636D03*
X0181326Y0081191D03*
X0181326Y0081080D03*
X0181326Y0080969D03*
X0181326Y0080858D03*
X0181326Y0080747D03*
X0181326Y0080636D03*
X0181326Y0080525D03*
X0181326Y0080302D03*
X0181326Y0080191D03*
X0181326Y0080080D03*
X0181326Y0079969D03*
X0181326Y0079858D03*
X0181326Y0079747D03*
X0181326Y0079636D03*
X0181326Y0079525D03*
X0179216Y0074747D03*
X0179216Y0074636D03*
X0179216Y0074525D03*
X0179216Y0074302D03*
X0179216Y0074191D03*
X0179216Y0074080D03*
X0179216Y0073969D03*
X0179216Y0073858D03*
X0179216Y0073747D03*
X0179216Y0073636D03*
X0179216Y0073525D03*
X0179216Y0073302D03*
X0179216Y0073191D03*
X0179216Y0073080D03*
X0179216Y0072969D03*
X0181326Y0068302D03*
X0181326Y0068191D03*
X0181326Y0068080D03*
X0181326Y0067969D03*
X0181326Y0067858D03*
X0181326Y0067747D03*
X0181326Y0067636D03*
X0181326Y0067525D03*
X0181326Y0067302D03*
X0181326Y0067191D03*
X0181326Y0067080D03*
X0181326Y0066969D03*
X0181326Y0066858D03*
X0181326Y0066747D03*
X0181326Y0066636D03*
X0181326Y0066525D03*
X0194106Y0068747D03*
X0194106Y0068858D03*
X0194106Y0068969D03*
X0194106Y0069080D03*
X0194106Y0069191D03*
X0194106Y0069302D03*
X0194106Y0069525D03*
X0194106Y0069636D03*
X0194106Y0069747D03*
X0194106Y0069858D03*
X0194106Y0069969D03*
X0194106Y0070080D03*
X0194106Y0070191D03*
X0194106Y0070302D03*
X0194106Y0070525D03*
X0194106Y0070636D03*
X0194106Y0072969D03*
X0194106Y0073080D03*
X0194106Y0073191D03*
X0194106Y0073302D03*
X0194106Y0073525D03*
X0194106Y0073636D03*
X0194106Y0073747D03*
X0194106Y0073858D03*
X0194106Y0073969D03*
X0194106Y0074080D03*
X0194106Y0074191D03*
X0194106Y0074302D03*
X0194106Y0074525D03*
X0194106Y0074636D03*
X0194106Y0074747D03*
X0194106Y0074858D03*
X0194106Y0087969D03*
X0194106Y0088080D03*
X0194106Y0088191D03*
X0194106Y0088302D03*
X0194106Y0088525D03*
X0194106Y0088636D03*
X0194106Y0088747D03*
X0194106Y0088858D03*
X0194106Y0088969D03*
X0194106Y0089080D03*
X0194106Y0089191D03*
X0194106Y0089302D03*
X0194106Y0089525D03*
X0194106Y0089636D03*
X0194106Y0089747D03*
X0194106Y0094302D03*
X0194106Y0094525D03*
X0194106Y0094636D03*
X0194106Y0094747D03*
X0194106Y0094858D03*
X0194106Y0094969D03*
X0194106Y0095080D03*
X0194106Y0095191D03*
X0194106Y0095302D03*
X0194106Y0095525D03*
X0194106Y0095636D03*
X0194106Y0095747D03*
X0194106Y0095858D03*
X0194106Y0095969D03*
X0194106Y0096080D03*
X0194106Y0096191D03*
X0194106Y0096302D03*
X0194106Y0096525D03*
X0194106Y0096636D03*
X0194106Y0096747D03*
X0194106Y0096858D03*
X0194106Y0096969D03*
X0194106Y0097080D03*
X0194106Y0097191D03*
X0194106Y0097302D03*
X0194106Y0097525D03*
X0194106Y0097636D03*
X0194106Y0097747D03*
X0194106Y0097858D03*
X0194106Y0097969D03*
X0194106Y0098080D03*
X0194106Y0098191D03*
X0194106Y0098302D03*
X0194106Y0100636D03*
X0194106Y0100747D03*
X0194106Y0100858D03*
X0194106Y0100969D03*
X0194106Y0101080D03*
X0194106Y0101191D03*
X0194106Y0101302D03*
X0194106Y0101525D03*
X0194106Y0101636D03*
X0194106Y0101747D03*
X0194106Y0101858D03*
X0194106Y0101969D03*
X0194106Y0102080D03*
X0194106Y0102191D03*
X0194106Y0102302D03*
X0194106Y0102525D03*
X0194106Y0102636D03*
X0194106Y0102747D03*
X0194106Y0102858D03*
X0194106Y0102969D03*
X0194106Y0103080D03*
X0194106Y0103191D03*
X0194106Y0103302D03*
X0194106Y0103525D03*
X0194106Y0103636D03*
X0194106Y0103747D03*
X0194106Y0103858D03*
X0194106Y0103969D03*
X0194106Y0104080D03*
X0194106Y0104191D03*
X0194106Y0104302D03*
X0194106Y0104525D03*
X0194106Y0104636D03*
X0189876Y0104969D03*
X0189876Y0105080D03*
X0189876Y0105191D03*
X0189876Y0105302D03*
X0189876Y0105525D03*
X0189876Y0105636D03*
X0189876Y0105747D03*
X0189876Y0105858D03*
X0189876Y0105969D03*
X0189876Y0106080D03*
X0189876Y0106191D03*
X0189876Y0106302D03*
X0189876Y0106525D03*
X0189876Y0106636D03*
X0189876Y0106747D03*
X0189876Y0106858D03*
X0187766Y0104747D03*
X0187766Y0104636D03*
X0187766Y0104525D03*
X0187766Y0104302D03*
X0187766Y0104191D03*
X0187766Y0104080D03*
X0187766Y0103969D03*
X0187766Y0103858D03*
X0187766Y0103747D03*
X0187766Y0103636D03*
X0187766Y0103525D03*
X0187766Y0103302D03*
X0187766Y0103191D03*
X0187766Y0103080D03*
X0187766Y0102969D03*
X0187766Y0102858D03*
X0189876Y0098302D03*
X0189876Y0098191D03*
X0189876Y0098080D03*
X0189876Y0097969D03*
X0189876Y0097858D03*
X0189876Y0097747D03*
X0189876Y0097636D03*
X0189876Y0097525D03*
X0189876Y0097302D03*
X0189876Y0097191D03*
X0189876Y0097080D03*
X0189876Y0096969D03*
X0189876Y0096858D03*
X0189876Y0096747D03*
X0189876Y0096636D03*
X0189876Y0096525D03*
X0189876Y0096302D03*
X0189876Y0096191D03*
X0189876Y0096080D03*
X0189876Y0095969D03*
X0189876Y0095858D03*
X0189876Y0095747D03*
X0189876Y0095636D03*
X0189876Y0095525D03*
X0189876Y0095302D03*
X0189876Y0095191D03*
X0189876Y0095080D03*
X0189876Y0094969D03*
X0189876Y0094858D03*
X0189876Y0094747D03*
X0189876Y0094636D03*
X0189876Y0094525D03*
X0189876Y0094302D03*
X0187766Y0094080D03*
X0187766Y0093969D03*
X0187766Y0093858D03*
X0187766Y0093747D03*
X0187766Y0093636D03*
X0187766Y0093525D03*
X0187766Y0093302D03*
X0187766Y0093191D03*
X0187766Y0093080D03*
X0187766Y0092969D03*
X0187766Y0092858D03*
X0187766Y0092747D03*
X0187766Y0092636D03*
X0187766Y0092525D03*
X0187766Y0092302D03*
X0187766Y0092191D03*
X0187766Y0092080D03*
X0185656Y0091969D03*
X0185656Y0091858D03*
X0181326Y0087636D03*
X0181326Y0087525D03*
X0181326Y0087302D03*
X0181326Y0087191D03*
X0181326Y0087080D03*
X0181326Y0086969D03*
X0181326Y0086858D03*
X0181326Y0086747D03*
X0181326Y0086636D03*
X0181326Y0086525D03*
X0181326Y0086302D03*
X0181326Y0086191D03*
X0181326Y0086080D03*
X0181326Y0085969D03*
X0181326Y0085858D03*
X0181326Y0085747D03*
X0181326Y0109191D03*
X0181326Y0109302D03*
X0181326Y0109525D03*
X0181326Y0109636D03*
X0181326Y0109747D03*
X0181326Y0109858D03*
X0181326Y0109969D03*
X0181326Y0110080D03*
X0181326Y0110191D03*
X0181326Y0110302D03*
X0181326Y0110525D03*
X0181326Y0110636D03*
X0181326Y0110747D03*
X0181326Y0110858D03*
X0181326Y0110969D03*
X0181326Y0111080D03*
X0194106Y0111080D03*
X0194106Y0110969D03*
X0194106Y0110858D03*
X0194106Y0110747D03*
X0194106Y0110636D03*
X0194106Y0110525D03*
X0194106Y0110302D03*
X0194106Y0110191D03*
X0194106Y0110080D03*
X0194106Y0109969D03*
X0194106Y0109858D03*
X0194106Y0109747D03*
X0194106Y0109636D03*
X0194106Y0109525D03*
X0194106Y0109302D03*
X0194106Y0109191D03*
X0194106Y0115636D03*
X0194106Y0115747D03*
X0194106Y0115858D03*
X0194106Y0115969D03*
X0194106Y0116080D03*
X0194106Y0116191D03*
X0194106Y0116302D03*
X0194106Y0116525D03*
X0194106Y0116636D03*
X0194106Y0116747D03*
X0194106Y0116858D03*
X0194106Y0116969D03*
X0194106Y0117080D03*
X0194106Y0117191D03*
X0194106Y0117302D03*
X0194106Y0117525D03*
X0194106Y0117636D03*
X0194106Y0117747D03*
X0194106Y0117858D03*
X0194106Y0117969D03*
X0194106Y0118080D03*
X0194106Y0118191D03*
X0194106Y0118302D03*
X0194106Y0118525D03*
X0194106Y0118636D03*
X0194106Y0118747D03*
X0194106Y0118858D03*
X0194106Y0118969D03*
X0194106Y0119080D03*
X0194106Y0119191D03*
X0194106Y0119302D03*
X0194106Y0119525D03*
X0194106Y0119636D03*
X0194106Y0119747D03*
X0194106Y0119858D03*
X0194106Y0119969D03*
X0194106Y0120080D03*
X0194106Y0120191D03*
X0194106Y0120302D03*
X0194106Y0120525D03*
X0194106Y0120636D03*
X0194106Y0120747D03*
X0194106Y0120858D03*
X0194106Y0120969D03*
X0194106Y0121080D03*
X0194106Y0121191D03*
X0194106Y0121302D03*
X0194106Y0121525D03*
X0194106Y0121636D03*
X0194106Y0121747D03*
X0194106Y0121858D03*
X0194106Y0121969D03*
X0194106Y0122080D03*
X0194106Y0122191D03*
X0194106Y0122302D03*
X0194106Y0122525D03*
X0194106Y0122636D03*
X0194106Y0122747D03*
X0194106Y0122858D03*
X0194106Y0122969D03*
X0194106Y0123080D03*
X0194106Y0123191D03*
X0194106Y0123302D03*
X0194106Y0123525D03*
X0194106Y0123636D03*
X0194106Y0123747D03*
X0194106Y0123858D03*
X0194106Y0123969D03*
X0194106Y0124080D03*
X0194106Y0124191D03*
X0194106Y0124302D03*
X0194106Y0124525D03*
X0194106Y0124636D03*
X0194106Y0124747D03*
X0194106Y0124858D03*
X0194106Y0124969D03*
X0194106Y0125080D03*
X0194106Y0125191D03*
X0194106Y0125302D03*
X0194106Y0125525D03*
X0194106Y0125636D03*
X0194106Y0125747D03*
X0194106Y0125858D03*
X0194106Y0125969D03*
X0194106Y0126080D03*
X0194436Y0131525D03*
X0194436Y0135302D03*
X0173436Y0141191D03*
X0173326Y0141080D03*
X0173216Y0140969D03*
X0174656Y0144858D03*
X0169546Y0146636D03*
X0166216Y0141969D03*
X0166216Y0141858D03*
X0162326Y0146636D03*
X0159216Y0141302D03*
X0166436Y0136858D03*
X0155106Y0130080D03*
X0153656Y0117525D03*
X0155766Y0115302D03*
X0155766Y0115191D03*
X0155766Y0115080D03*
X0155766Y0114969D03*
X0155766Y0114858D03*
X0155766Y0114747D03*
X0155766Y0114636D03*
X0155766Y0114525D03*
X0155766Y0114302D03*
X0155766Y0114191D03*
X0155766Y0114080D03*
X0155766Y0113969D03*
X0155766Y0113858D03*
X0155766Y0113747D03*
X0155766Y0113636D03*
X0155766Y0113525D03*
X0157876Y0115525D03*
X0157876Y0115636D03*
X0157876Y0115747D03*
X0157876Y0115858D03*
X0157876Y0115969D03*
X0157876Y0116080D03*
X0157876Y0116191D03*
X0157876Y0116302D03*
X0157876Y0116525D03*
X0157876Y0116636D03*
X0157876Y0116747D03*
X0157876Y0116858D03*
X0157876Y0116969D03*
X0157876Y0117080D03*
X0157876Y0117191D03*
X0157876Y0117302D03*
X0151436Y0115302D03*
X0151436Y0115191D03*
X0151436Y0115080D03*
X0151436Y0114969D03*
X0151436Y0114858D03*
X0151436Y0114747D03*
X0151436Y0114636D03*
X0151436Y0114525D03*
X0151436Y0114302D03*
X0151436Y0114191D03*
X0151436Y0114080D03*
X0151436Y0113969D03*
X0151436Y0113858D03*
X0151436Y0113747D03*
X0151436Y0113636D03*
X0155766Y0108969D03*
X0155766Y0108858D03*
X0155766Y0108747D03*
X0155766Y0108636D03*
X0155766Y0108525D03*
X0155766Y0108302D03*
X0155766Y0108191D03*
X0155766Y0108080D03*
X0155766Y0107969D03*
X0155766Y0107858D03*
X0155766Y0107747D03*
X0155766Y0107636D03*
X0155766Y0107525D03*
X0155766Y0107302D03*
X0155766Y0107191D03*
X0155766Y0107080D03*
X0153546Y0104969D03*
X0153546Y0104858D03*
X0151436Y0104747D03*
X0151436Y0104636D03*
X0151436Y0104525D03*
X0151436Y0104302D03*
X0151436Y0104191D03*
X0151436Y0104080D03*
X0151436Y0103969D03*
X0151436Y0103858D03*
X0151436Y0103747D03*
X0151436Y0103636D03*
X0151436Y0103525D03*
X0151436Y0103302D03*
X0151436Y0103191D03*
X0151436Y0103080D03*
X0151436Y0102969D03*
X0155766Y0100302D03*
X0155766Y0100191D03*
X0155766Y0100080D03*
X0155766Y0099969D03*
X0155766Y0099858D03*
X0155766Y0099747D03*
X0155766Y0099636D03*
X0155766Y0099525D03*
X0155766Y0099302D03*
X0155766Y0099191D03*
X0155766Y0099080D03*
X0155766Y0098969D03*
X0155766Y0098858D03*
X0155766Y0098747D03*
X0155766Y0098636D03*
X0153656Y0092191D03*
X0153656Y0092080D03*
X0145106Y0098525D03*
X0145106Y0098636D03*
X0145106Y0098747D03*
X0145106Y0098858D03*
X0145106Y0098969D03*
X0145106Y0099080D03*
X0145106Y0099191D03*
X0145106Y0099302D03*
X0145106Y0099525D03*
X0145106Y0099636D03*
X0145106Y0099747D03*
X0145106Y0099858D03*
X0145106Y0099969D03*
X0145106Y0100080D03*
X0145106Y0100191D03*
X0145106Y0100302D03*
X0134436Y0115636D03*
X0134436Y0115747D03*
X0134436Y0115858D03*
X0134436Y0115969D03*
X0134436Y0116080D03*
X0134436Y0116191D03*
X0134436Y0116302D03*
X0134436Y0116525D03*
X0134436Y0116636D03*
X0134436Y0116747D03*
X0134436Y0116858D03*
X0134436Y0116969D03*
X0134436Y0117080D03*
X0134436Y0117191D03*
X0134436Y0117302D03*
X0134436Y0117525D03*
X0134436Y0117636D03*
X0134436Y0117747D03*
X0134436Y0117858D03*
X0134436Y0117969D03*
X0134436Y0118080D03*
X0134436Y0118191D03*
X0134436Y0118302D03*
X0134436Y0118525D03*
X0134436Y0118636D03*
X0134436Y0118747D03*
X0134436Y0118858D03*
X0134436Y0118969D03*
X0134436Y0119080D03*
X0134436Y0119191D03*
X0134436Y0119302D03*
X0134436Y0119525D03*
X0134436Y0119636D03*
X0134436Y0119747D03*
X0134436Y0119858D03*
X0134436Y0119969D03*
X0134436Y0120080D03*
X0134436Y0120191D03*
X0134436Y0120302D03*
X0134436Y0120525D03*
X0134436Y0120636D03*
X0134436Y0120747D03*
X0134436Y0120858D03*
X0134436Y0120969D03*
X0134436Y0121080D03*
X0134436Y0121191D03*
X0134436Y0121302D03*
X0134436Y0121525D03*
X0134436Y0121636D03*
X0134436Y0121747D03*
X0134436Y0121858D03*
X0134436Y0121969D03*
X0134436Y0122080D03*
X0134436Y0122191D03*
X0134436Y0122302D03*
X0134436Y0122525D03*
X0134436Y0122636D03*
X0134436Y0122747D03*
X0134436Y0122858D03*
X0134436Y0122969D03*
X0134436Y0123080D03*
X0134436Y0123191D03*
X0134436Y0123302D03*
X0134436Y0123525D03*
X0134436Y0123636D03*
X0134436Y0123747D03*
X0134436Y0123858D03*
X0134436Y0123969D03*
X0134436Y0124080D03*
X0134436Y0124191D03*
X0134436Y0124302D03*
X0134436Y0124525D03*
X0134436Y0124636D03*
X0134436Y0124747D03*
X0134436Y0124858D03*
X0134436Y0124969D03*
X0134436Y0125080D03*
X0134436Y0125191D03*
X0134436Y0125302D03*
X0134436Y0125525D03*
X0134436Y0125636D03*
X0134436Y0125747D03*
X0134436Y0125858D03*
X0134436Y0125969D03*
X0134436Y0126080D03*
X0164216Y0113525D03*
X0147216Y0079080D03*
X0147216Y0078969D03*
X0147216Y0078858D03*
X0147216Y0078747D03*
X0147216Y0078636D03*
X0147216Y0078525D03*
X0147216Y0078302D03*
X0147216Y0078191D03*
X0147216Y0078080D03*
X0147216Y0077969D03*
X0147216Y0077858D03*
X0147216Y0077747D03*
X0147216Y0077636D03*
X0147216Y0077525D03*
X0147216Y0077302D03*
X0147216Y0077191D03*
X0147216Y0077080D03*
X0147216Y0076969D03*
X0147216Y0076858D03*
X0147216Y0076747D03*
X0147216Y0076636D03*
X0147216Y0076525D03*
X0147216Y0076302D03*
X0147216Y0076191D03*
X0147216Y0076080D03*
X0147216Y0075969D03*
X0147216Y0075858D03*
X0147216Y0075747D03*
X0147216Y0075636D03*
X0147216Y0075525D03*
X0147216Y0075302D03*
X0147216Y0075191D03*
X0147216Y0075080D03*
X0147216Y0074969D03*
X0147216Y0074858D03*
X0147216Y0074747D03*
X0147216Y0074636D03*
X0147216Y0074525D03*
X0147216Y0074302D03*
X0147216Y0074191D03*
X0147216Y0074080D03*
X0147216Y0073969D03*
X0147216Y0073858D03*
X0147216Y0073747D03*
X0147216Y0073636D03*
X0147216Y0073525D03*
X0147216Y0073302D03*
X0147216Y0073191D03*
X0147216Y0073080D03*
X0147216Y0072969D03*
X0147216Y0072858D03*
X0147216Y0072747D03*
X0147216Y0072636D03*
X0147216Y0072525D03*
X0147216Y0072302D03*
X0147216Y0072191D03*
X0147216Y0072080D03*
X0147216Y0071969D03*
X0147216Y0071858D03*
X0147216Y0071747D03*
X0147216Y0071636D03*
X0147216Y0071525D03*
X0147216Y0071302D03*
X0147216Y0071191D03*
X0147216Y0071080D03*
X0147216Y0070969D03*
X0147216Y0070858D03*
X0147216Y0070747D03*
X0147216Y0070636D03*
X0147216Y0070525D03*
X0147216Y0070302D03*
X0147216Y0070191D03*
X0147216Y0070080D03*
X0147216Y0069969D03*
X0147216Y0069858D03*
X0147216Y0069747D03*
X0147216Y0069636D03*
X0147216Y0069525D03*
X0147216Y0069302D03*
X0147216Y0069191D03*
X0147216Y0069080D03*
X0147216Y0068969D03*
X0147216Y0068858D03*
X0147216Y0068747D03*
X0151436Y0072969D03*
X0151436Y0073080D03*
X0151436Y0073191D03*
X0151436Y0073302D03*
X0151436Y0073525D03*
X0151436Y0073636D03*
X0151436Y0073747D03*
X0151436Y0073858D03*
X0151436Y0073969D03*
X0151436Y0074080D03*
X0151436Y0074191D03*
X0151436Y0074302D03*
X0151436Y0074525D03*
X0151436Y0074636D03*
X0151436Y0074747D03*
X0155766Y0074747D03*
X0155766Y0074636D03*
X0155766Y0074525D03*
X0155766Y0074302D03*
X0155766Y0074191D03*
X0155766Y0074080D03*
X0155766Y0073969D03*
X0155766Y0073858D03*
X0155766Y0073747D03*
X0155766Y0073636D03*
X0155766Y0073525D03*
X0155766Y0073302D03*
X0155766Y0073191D03*
X0155766Y0073080D03*
X0134436Y0073080D03*
X0134436Y0073191D03*
X0134436Y0073302D03*
X0134436Y0073525D03*
X0134436Y0073636D03*
X0134436Y0073747D03*
X0134436Y0073858D03*
X0134436Y0073969D03*
X0134436Y0074080D03*
X0134436Y0074191D03*
X0134436Y0074302D03*
X0134436Y0074525D03*
X0134436Y0074636D03*
X0134436Y0074747D03*
X0134436Y0074858D03*
X0134436Y0074969D03*
X0134436Y0075080D03*
X0134436Y0075191D03*
X0134436Y0075302D03*
X0134436Y0075525D03*
X0134436Y0075636D03*
X0134436Y0075747D03*
X0134436Y0075858D03*
X0134436Y0075969D03*
X0134436Y0076080D03*
X0134436Y0076191D03*
X0134436Y0076302D03*
X0134436Y0076525D03*
X0134436Y0076636D03*
X0134436Y0076747D03*
X0134436Y0076858D03*
X0134436Y0076969D03*
X0134436Y0077080D03*
X0134436Y0077191D03*
X0134436Y0077302D03*
X0134436Y0077525D03*
X0134436Y0077636D03*
X0134436Y0077747D03*
X0134436Y0077858D03*
X0134436Y0077969D03*
X0134436Y0078080D03*
X0134436Y0078191D03*
X0134436Y0078302D03*
X0134436Y0078525D03*
X0134436Y0078636D03*
X0134436Y0078747D03*
X0134436Y0078858D03*
X0134436Y0078969D03*
X0134436Y0079080D03*
X0134436Y0072969D03*
X0134436Y0072858D03*
X0134436Y0072747D03*
X0134436Y0072636D03*
X0134436Y0072525D03*
X0134436Y0072302D03*
X0134436Y0072191D03*
X0134436Y0072080D03*
X0134436Y0071969D03*
X0134436Y0071858D03*
X0134436Y0071747D03*
X0134436Y0071636D03*
X0134436Y0071525D03*
X0134436Y0071302D03*
X0134436Y0071191D03*
X0134436Y0071080D03*
X0134436Y0070969D03*
X0134436Y0070858D03*
X0134436Y0070747D03*
X0134436Y0070636D03*
X0134436Y0070525D03*
X0134436Y0070302D03*
X0134436Y0070191D03*
X0134436Y0070080D03*
X0134436Y0069969D03*
X0134436Y0069858D03*
X0134436Y0069747D03*
X0134436Y0069636D03*
X0134436Y0069525D03*
X0134436Y0069302D03*
X0134436Y0069191D03*
X0134436Y0069080D03*
X0134436Y0068969D03*
X0134436Y0068858D03*
X0134436Y0068747D03*
X0134436Y0068636D03*
D15*
X0151491Y0072858D03*
X0157931Y0083525D03*
X0157931Y0087747D03*
X0149271Y0085636D03*
X0140821Y0091969D03*
X0136601Y0102636D03*
X0155601Y0109080D03*
X0166491Y0111191D03*
X0170601Y0111191D03*
X0174931Y0108969D03*
X0172821Y0106858D03*
X0177051Y0111302D03*
X0179271Y0109080D03*
X0187711Y0102747D03*
X0189821Y0104858D03*
X0194161Y0104747D03*
X0189821Y0094191D03*
X0194051Y0089858D03*
X0194161Y0087858D03*
X0181381Y0079302D03*
X0172821Y0074858D03*
X0172821Y0070636D03*
X0172821Y0068636D03*
X0166381Y0070747D03*
X0175051Y0085636D03*
X0170711Y0094080D03*
X0166491Y0100525D03*
X0177051Y0100636D03*
X0177051Y0117525D03*
X0174931Y0119636D03*
X0170601Y0121858D03*
X0170601Y0124080D03*
X0170711Y0126080D03*
X0172821Y0128191D03*
X0168601Y0123969D03*
X0164161Y0119747D03*
X0153601Y0123858D03*
X0153601Y0123969D03*
X0163931Y0134191D03*
X0166271Y0142080D03*
X0166271Y0142191D03*
X0166271Y0142302D03*
X0169491Y0146525D03*
X0174711Y0144969D03*
X0173491Y0141302D03*
X0159051Y0141525D03*
X0158931Y0141636D03*
X0157821Y0144858D03*
X0166161Y0157191D03*
X0187271Y0135302D03*
X0187271Y0131525D03*
X0141381Y0132969D03*
X0141051Y0134302D03*
X0133491Y0135525D03*
X0133491Y0131302D03*
X0194161Y0068636D03*
X0185601Y0066525D03*
D16*
X0166381Y0066636D03*
X0166381Y0066747D03*
X0166381Y0066858D03*
X0166381Y0066969D03*
X0166381Y0067080D03*
X0166381Y0067191D03*
X0166381Y0067302D03*
X0166381Y0067525D03*
X0166381Y0067636D03*
X0166381Y0067747D03*
X0166381Y0067858D03*
X0166381Y0067969D03*
X0166381Y0068080D03*
X0166381Y0068191D03*
X0166381Y0068302D03*
X0153601Y0068302D03*
X0153601Y0068191D03*
X0153601Y0068080D03*
X0153601Y0067969D03*
X0153601Y0067858D03*
X0153601Y0067747D03*
X0153601Y0067636D03*
X0153601Y0067525D03*
X0153601Y0067302D03*
X0153601Y0067191D03*
X0153601Y0067080D03*
X0153601Y0066969D03*
X0153601Y0066858D03*
X0153601Y0066747D03*
X0153601Y0066636D03*
X0155711Y0079525D03*
X0155711Y0079636D03*
X0155711Y0079747D03*
X0155711Y0079858D03*
X0155711Y0079969D03*
X0155711Y0080080D03*
X0155711Y0080191D03*
X0155711Y0080302D03*
X0155711Y0080525D03*
X0155711Y0080636D03*
X0155711Y0080747D03*
X0155711Y0080858D03*
X0155711Y0080969D03*
X0155711Y0081080D03*
X0155711Y0081191D03*
X0155711Y0081302D03*
X0153601Y0100636D03*
X0153601Y0100747D03*
X0153601Y0100858D03*
X0153601Y0100969D03*
X0153601Y0101080D03*
X0153601Y0101191D03*
X0153601Y0101302D03*
X0153601Y0101525D03*
X0153601Y0101636D03*
X0153601Y0101747D03*
X0153601Y0101858D03*
X0153601Y0101969D03*
X0153601Y0102080D03*
X0153601Y0102191D03*
X0153601Y0102302D03*
X0153601Y0102525D03*
X0164271Y0107080D03*
X0164271Y0107191D03*
X0164271Y0107302D03*
X0164271Y0107525D03*
X0164271Y0107636D03*
X0164271Y0107747D03*
X0164271Y0107858D03*
X0164271Y0107969D03*
X0164271Y0108080D03*
X0164271Y0108191D03*
X0164271Y0108302D03*
X0164271Y0108525D03*
X0164271Y0108636D03*
X0164271Y0108747D03*
X0164271Y0108858D03*
X0164271Y0108969D03*
X0164271Y0109080D03*
X0181381Y0104747D03*
X0187711Y0117858D03*
X0187711Y0117969D03*
X0187711Y0118080D03*
X0187711Y0118191D03*
X0187711Y0118302D03*
X0187711Y0118525D03*
X0187711Y0118636D03*
X0187711Y0118747D03*
X0187711Y0118858D03*
X0187711Y0118969D03*
X0187711Y0119080D03*
X0187711Y0119191D03*
X0187711Y0119302D03*
X0187711Y0119525D03*
X0187711Y0119636D03*
X0187711Y0119747D03*
X0187711Y0119858D03*
X0187711Y0119969D03*
X0187711Y0120080D03*
X0187711Y0120191D03*
X0187711Y0120302D03*
X0187711Y0120525D03*
X0187711Y0120636D03*
X0187711Y0120747D03*
X0187711Y0120858D03*
X0187711Y0120969D03*
X0187711Y0121080D03*
X0187711Y0121191D03*
X0187711Y0121302D03*
X0187711Y0121525D03*
X0187711Y0121636D03*
X0187711Y0121747D03*
X0187711Y0121858D03*
X0187711Y0121969D03*
X0187711Y0122080D03*
X0187711Y0122191D03*
X0187711Y0122302D03*
X0187711Y0122525D03*
X0187711Y0122636D03*
X0187711Y0122747D03*
X0187711Y0122858D03*
X0187711Y0122969D03*
X0187711Y0123080D03*
X0187711Y0123191D03*
X0187711Y0123302D03*
X0187711Y0123525D03*
X0187711Y0123636D03*
X0187711Y0123747D03*
X0136601Y0087858D03*
D17*
X0143991Y0094302D03*
X0143991Y0094525D03*
X0143991Y0094636D03*
X0143991Y0094747D03*
X0143991Y0094858D03*
X0143991Y0094969D03*
X0143991Y0095080D03*
X0143991Y0095191D03*
X0143991Y0095302D03*
X0143991Y0095525D03*
X0143991Y0095636D03*
X0143991Y0095747D03*
X0143991Y0095858D03*
X0143991Y0095969D03*
X0143991Y0096080D03*
X0143991Y0096191D03*
X0175991Y0068302D03*
X0175991Y0068191D03*
X0175991Y0068080D03*
X0175991Y0067969D03*
X0175991Y0067858D03*
X0175991Y0067747D03*
X0175991Y0067636D03*
X0175991Y0067525D03*
X0175991Y0067302D03*
X0175991Y0067191D03*
X0175991Y0067080D03*
X0175991Y0066969D03*
X0175991Y0066858D03*
X0175991Y0066747D03*
X0175991Y0066636D03*
X0175991Y0124302D03*
X0175991Y0124525D03*
X0175991Y0124636D03*
X0175991Y0124747D03*
X0175991Y0124858D03*
X0175991Y0124969D03*
X0175991Y0125080D03*
X0175991Y0125191D03*
X0175991Y0125302D03*
X0175991Y0125525D03*
X0175991Y0125636D03*
X0175991Y0125747D03*
X0175991Y0125858D03*
X0175991Y0125969D03*
D18*
X0181381Y0126080D03*
X0181381Y0115525D03*
X0166381Y0109191D03*
X0166381Y0098525D03*
X0153601Y0096191D03*
X0153601Y0096080D03*
X0153601Y0095969D03*
X0153601Y0095858D03*
X0153601Y0095747D03*
X0153601Y0095636D03*
X0153601Y0095525D03*
X0153601Y0095302D03*
X0153601Y0095191D03*
X0153601Y0095080D03*
X0153601Y0094969D03*
X0153601Y0094858D03*
X0153601Y0094747D03*
X0153601Y0094636D03*
X0153601Y0094525D03*
X0153601Y0094302D03*
X0153601Y0094191D03*
X0153601Y0094080D03*
X0153601Y0093969D03*
X0153601Y0093858D03*
X0153601Y0093747D03*
X0153601Y0093636D03*
X0153601Y0093525D03*
X0153601Y0093302D03*
X0153601Y0093191D03*
X0153601Y0093080D03*
X0153601Y0092969D03*
X0153601Y0092858D03*
X0153601Y0092747D03*
X0153601Y0092636D03*
X0153601Y0092525D03*
X0153601Y0092302D03*
X0151491Y0102747D03*
X0151491Y0102858D03*
X0153601Y0105080D03*
X0153601Y0105191D03*
X0153601Y0105302D03*
X0153601Y0105525D03*
X0153601Y0105636D03*
X0153601Y0105747D03*
X0153601Y0105858D03*
X0153601Y0105969D03*
X0153601Y0106080D03*
X0153601Y0106191D03*
X0153601Y0106302D03*
X0153601Y0106525D03*
X0153601Y0106636D03*
X0153601Y0106747D03*
X0153601Y0106858D03*
X0153601Y0109191D03*
X0153601Y0109302D03*
X0153601Y0109525D03*
X0153601Y0109636D03*
X0153601Y0109747D03*
X0153601Y0109858D03*
X0153601Y0109969D03*
X0153601Y0110080D03*
X0153601Y0110191D03*
X0153601Y0110302D03*
X0153601Y0110525D03*
X0153601Y0110636D03*
X0153601Y0110747D03*
X0153601Y0110858D03*
X0153601Y0110969D03*
X0153601Y0111080D03*
X0151491Y0113525D03*
X0153601Y0115525D03*
X0153601Y0115636D03*
X0153601Y0115747D03*
X0153601Y0115858D03*
X0153601Y0115969D03*
X0153601Y0116080D03*
X0153601Y0116191D03*
X0153601Y0116302D03*
X0153601Y0116525D03*
X0153601Y0116636D03*
X0153601Y0116747D03*
X0153601Y0116858D03*
X0153601Y0116969D03*
X0153601Y0117080D03*
X0153601Y0117191D03*
X0153601Y0117302D03*
X0153601Y0122080D03*
X0153601Y0122191D03*
X0153601Y0122302D03*
X0153601Y0122525D03*
X0153601Y0122636D03*
X0153601Y0122747D03*
X0153601Y0122858D03*
X0153601Y0122969D03*
X0153601Y0123080D03*
X0153601Y0123191D03*
X0153601Y0123302D03*
X0153601Y0123525D03*
X0153601Y0123636D03*
X0153601Y0123747D03*
X0134491Y0115525D03*
X0134491Y0092080D03*
X0134491Y0079191D03*
X0151491Y0074858D03*
X0166381Y0072747D03*
X0181381Y0068525D03*
X0185601Y0068525D03*
X0185601Y0068302D03*
X0185601Y0068191D03*
X0185601Y0068080D03*
X0185601Y0067969D03*
X0185601Y0067858D03*
X0185601Y0067747D03*
X0185601Y0067636D03*
X0185601Y0067525D03*
X0185601Y0067302D03*
X0185601Y0067191D03*
X0185601Y0067080D03*
X0185601Y0066969D03*
X0185601Y0066858D03*
X0185601Y0066747D03*
X0185601Y0066636D03*
X0185601Y0077191D03*
X0185601Y0077302D03*
X0185601Y0077525D03*
X0185601Y0077636D03*
X0185601Y0077747D03*
X0185601Y0077858D03*
X0185601Y0077969D03*
X0185601Y0078080D03*
X0185601Y0078191D03*
X0185601Y0078302D03*
X0185601Y0078525D03*
X0185601Y0078636D03*
X0185601Y0078747D03*
X0185601Y0078858D03*
X0185601Y0078969D03*
X0185601Y0079080D03*
X0185601Y0089969D03*
X0185601Y0090080D03*
X0185601Y0090191D03*
X0185601Y0090302D03*
X0185601Y0090525D03*
X0185601Y0090636D03*
X0185601Y0090747D03*
X0185601Y0090858D03*
X0185601Y0090969D03*
X0185601Y0091080D03*
X0185601Y0091191D03*
X0185601Y0091302D03*
X0185601Y0091525D03*
X0185601Y0091636D03*
X0185601Y0091747D03*
X0185601Y0096525D03*
X0185601Y0096636D03*
X0185601Y0096747D03*
X0185601Y0096858D03*
X0185601Y0096969D03*
X0185601Y0097080D03*
X0185601Y0097191D03*
X0185601Y0097302D03*
X0185601Y0097525D03*
X0185601Y0097636D03*
X0185601Y0097747D03*
X0185601Y0097858D03*
X0185601Y0097969D03*
X0185601Y0098080D03*
X0185601Y0098191D03*
X0185601Y0098302D03*
X0169601Y0149302D03*
X0162381Y0149302D03*
X0162381Y0146747D03*
D19*
X0140826Y0127413D03*
X0140826Y0126413D03*
X0140826Y0115413D03*
X0140826Y0114413D03*
X0140826Y0080413D03*
X0140826Y0079413D03*
X0140826Y0068413D03*
X0140826Y0067413D03*
D20*
X0153601Y0067413D03*
X0153601Y0068413D03*
X0155711Y0079413D03*
X0155711Y0080413D03*
X0166381Y0067413D03*
X0153601Y0101413D03*
X0153601Y0102413D03*
X0164271Y0107413D03*
X0164271Y0108413D03*
X0187711Y0118413D03*
X0187711Y0119413D03*
X0187711Y0120413D03*
X0187711Y0121413D03*
X0187711Y0122413D03*
X0187711Y0123413D03*
D21*
X0175991Y0124413D03*
X0175991Y0125413D03*
X0143991Y0095413D03*
X0143991Y0094413D03*
X0175991Y0068413D03*
X0175991Y0067413D03*
D22*
X0172766Y0069413D03*
X0172766Y0070413D03*
X0172766Y0073413D03*
X0172766Y0074413D03*
X0168546Y0075413D03*
X0168546Y0076413D03*
X0166436Y0072413D03*
X0166436Y0071413D03*
X0162106Y0079413D03*
X0162106Y0080413D03*
X0162106Y0084413D03*
X0162106Y0085413D03*
X0162106Y0086413D03*
X0162106Y0087413D03*
X0157876Y0087413D03*
X0157876Y0086413D03*
X0157876Y0085413D03*
X0157876Y0084413D03*
X0151436Y0082413D03*
X0147216Y0084413D03*
X0147216Y0085413D03*
X0149326Y0086413D03*
X0149326Y0087413D03*
X0145106Y0090413D03*
X0145106Y0091413D03*
X0140766Y0091413D03*
X0140766Y0090413D03*
X0134436Y0092413D03*
X0134436Y0093413D03*
X0136546Y0099413D03*
X0136546Y0100413D03*
X0136546Y0101413D03*
X0136546Y0102413D03*
X0138656Y0103413D03*
X0138656Y0104413D03*
X0140766Y0107413D03*
X0140766Y0108413D03*
X0147216Y0109413D03*
X0147216Y0110413D03*
X0151436Y0114413D03*
X0147216Y0116413D03*
X0147216Y0117413D03*
X0147216Y0118413D03*
X0147216Y0119413D03*
X0147216Y0120413D03*
X0147216Y0121413D03*
X0147216Y0122413D03*
X0147216Y0123413D03*
X0147216Y0124413D03*
X0147216Y0125413D03*
X0157876Y0123413D03*
X0157876Y0122413D03*
X0162106Y0121413D03*
X0162106Y0120413D03*
X0157876Y0117413D03*
X0157876Y0116413D03*
X0155766Y0115413D03*
X0155766Y0114413D03*
X0155766Y0108413D03*
X0155766Y0107413D03*
X0151436Y0104413D03*
X0151436Y0103413D03*
X0155766Y0099413D03*
X0166436Y0099413D03*
X0166436Y0100413D03*
X0168546Y0101413D03*
X0168546Y0102413D03*
X0170656Y0103413D03*
X0170656Y0104413D03*
X0172766Y0105413D03*
X0172766Y0106413D03*
X0170656Y0109413D03*
X0170656Y0110413D03*
X0168546Y0111413D03*
X0168546Y0112413D03*
X0168546Y0113413D03*
X0168546Y0114413D03*
X0168546Y0115413D03*
X0168546Y0116413D03*
X0168546Y0117413D03*
X0170656Y0120413D03*
X0170656Y0121413D03*
X0168546Y0122413D03*
X0168546Y0123413D03*
X0170656Y0124413D03*
X0170656Y0125413D03*
X0172766Y0126413D03*
X0172766Y0127413D03*
X0181326Y0125413D03*
X0181326Y0124413D03*
X0181326Y0123413D03*
X0181326Y0122413D03*
X0181326Y0121413D03*
X0181326Y0120413D03*
X0181326Y0119413D03*
X0181326Y0118413D03*
X0181326Y0117413D03*
X0181326Y0116413D03*
X0177106Y0116413D03*
X0177106Y0117413D03*
X0177106Y0115413D03*
X0177106Y0114413D03*
X0177106Y0113413D03*
X0177106Y0112413D03*
X0177106Y0111413D03*
X0179216Y0108413D03*
X0179216Y0107413D03*
X0177106Y0106413D03*
X0177106Y0105413D03*
X0177106Y0102413D03*
X0177106Y0101413D03*
X0172766Y0101413D03*
X0172766Y0102413D03*
X0170656Y0097413D03*
X0170656Y0096413D03*
X0170656Y0093413D03*
X0170656Y0092413D03*
X0177106Y0083413D03*
X0177106Y0082413D03*
X0181326Y0080413D03*
X0181326Y0079413D03*
X0179216Y0074413D03*
X0179216Y0073413D03*
X0181326Y0068413D03*
X0181326Y0067413D03*
X0194106Y0069413D03*
X0194106Y0070413D03*
X0194106Y0073413D03*
X0194106Y0074413D03*
X0194106Y0088413D03*
X0194106Y0089413D03*
X0194106Y0094413D03*
X0194106Y0095413D03*
X0194106Y0096413D03*
X0194106Y0097413D03*
X0189876Y0097413D03*
X0189876Y0096413D03*
X0189876Y0095413D03*
X0189876Y0094413D03*
X0187766Y0093413D03*
X0187766Y0092413D03*
X0181326Y0087413D03*
X0181326Y0086413D03*
X0187766Y0103413D03*
X0187766Y0104413D03*
X0189876Y0105413D03*
X0189876Y0106413D03*
X0194106Y0104413D03*
X0194106Y0103413D03*
X0194106Y0102413D03*
X0194106Y0101413D03*
X0194106Y0109413D03*
X0194106Y0110413D03*
X0194106Y0116413D03*
X0194106Y0117413D03*
X0194106Y0118413D03*
X0194106Y0119413D03*
X0194106Y0120413D03*
X0194106Y0121413D03*
X0194106Y0122413D03*
X0194106Y0123413D03*
X0194106Y0124413D03*
X0194106Y0125413D03*
X0181326Y0110413D03*
X0181326Y0109413D03*
X0172766Y0114413D03*
X0172766Y0115413D03*
X0172766Y0116413D03*
X0172766Y0117413D03*
X0166436Y0110413D03*
X0166436Y0109413D03*
X0164216Y0113413D03*
X0145106Y0099413D03*
X0134436Y0116413D03*
X0134436Y0117413D03*
X0134436Y0118413D03*
X0134436Y0119413D03*
X0134436Y0120413D03*
X0134436Y0121413D03*
X0134436Y0122413D03*
X0134436Y0123413D03*
X0134436Y0124413D03*
X0134436Y0125413D03*
X0159106Y0141413D03*
X0162326Y0149413D03*
X0169546Y0149413D03*
X0147216Y0078413D03*
X0147216Y0077413D03*
X0147216Y0076413D03*
X0147216Y0075413D03*
X0147216Y0074413D03*
X0147216Y0073413D03*
X0147216Y0072413D03*
X0147216Y0071413D03*
X0147216Y0070413D03*
X0147216Y0069413D03*
X0151436Y0073413D03*
X0151436Y0074413D03*
X0155766Y0074413D03*
X0155766Y0073413D03*
X0134436Y0073413D03*
X0134436Y0074413D03*
X0134436Y0075413D03*
X0134436Y0076413D03*
X0134436Y0077413D03*
X0134436Y0078413D03*
X0134436Y0072413D03*
X0134436Y0071413D03*
X0134436Y0070413D03*
X0134436Y0069413D03*
D23*
X0153601Y0092413D03*
X0153601Y0093413D03*
X0153601Y0094413D03*
X0153601Y0095413D03*
X0153601Y0105413D03*
X0153601Y0106413D03*
X0153601Y0109413D03*
X0153601Y0110413D03*
X0151491Y0113413D03*
X0153601Y0116413D03*
X0153601Y0117413D03*
X0153601Y0122413D03*
X0153601Y0123413D03*
X0185601Y0097413D03*
X0185601Y0096413D03*
X0185601Y0091413D03*
X0185601Y0090413D03*
X0185601Y0078413D03*
X0185601Y0077413D03*
X0185601Y0068413D03*
X0185601Y0067413D03*
D24*
X0166436Y0068413D03*
X0147216Y0097413D03*
X0136546Y0089413D03*
X0136546Y0088413D03*
X0181326Y0103413D03*
X0181326Y0104413D03*
D25*
X0153656Y0068525D03*
D26*
X0175936Y0068525D03*
X0193046Y0077191D03*
X0193046Y0077302D03*
X0193046Y0077525D03*
X0193046Y0077636D03*
X0193046Y0077747D03*
X0193046Y0077858D03*
X0193046Y0077969D03*
X0193046Y0078080D03*
X0193046Y0078191D03*
X0193046Y0078302D03*
X0193046Y0078525D03*
X0193046Y0078636D03*
X0193046Y0078747D03*
X0193046Y0078858D03*
X0193046Y0078969D03*
X0193046Y0079080D03*
X0190936Y0089969D03*
X0190936Y0090080D03*
X0190936Y0090191D03*
X0190936Y0090302D03*
X0190936Y0090525D03*
X0190936Y0090636D03*
X0190936Y0090747D03*
X0190936Y0090858D03*
X0190936Y0090969D03*
X0190936Y0091080D03*
X0190936Y0091191D03*
X0190936Y0091302D03*
X0190936Y0091525D03*
X0190936Y0091636D03*
X0190936Y0091747D03*
X0190936Y0091858D03*
X0190936Y0107080D03*
X0190936Y0107191D03*
X0190936Y0107302D03*
X0190936Y0107525D03*
X0190936Y0107636D03*
X0190936Y0107747D03*
X0190936Y0107858D03*
X0190936Y0107969D03*
X0190936Y0108080D03*
X0190936Y0108191D03*
X0190936Y0108302D03*
X0190936Y0108525D03*
X0190936Y0108636D03*
X0190936Y0108747D03*
X0190936Y0108858D03*
X0190936Y0108969D03*
X0176046Y0124191D03*
X0175936Y0126080D03*
X0161046Y0113302D03*
X0161046Y0113191D03*
X0161046Y0113080D03*
X0161046Y0112969D03*
X0161046Y0112858D03*
X0161046Y0112747D03*
X0161046Y0112636D03*
X0161046Y0112525D03*
X0161046Y0112302D03*
X0161046Y0112191D03*
X0161046Y0112080D03*
X0161046Y0111969D03*
X0161046Y0111858D03*
X0161046Y0111747D03*
X0161046Y0111636D03*
X0161046Y0111525D03*
X0161046Y0111302D03*
X0161046Y0106747D03*
X0161046Y0106636D03*
X0161046Y0106525D03*
X0161046Y0106302D03*
X0161046Y0106191D03*
X0161046Y0106080D03*
X0161046Y0105969D03*
X0161046Y0105858D03*
X0161046Y0105747D03*
X0161046Y0105636D03*
X0161046Y0105525D03*
X0161046Y0105302D03*
X0161046Y0105191D03*
X0161046Y0105080D03*
X0161046Y0104969D03*
X0161046Y0100302D03*
X0161046Y0100191D03*
X0161046Y0100080D03*
X0161046Y0099969D03*
X0161046Y0099858D03*
X0161046Y0099747D03*
X0161046Y0099636D03*
X0161046Y0099525D03*
X0161046Y0099302D03*
X0161046Y0099191D03*
X0161046Y0099080D03*
X0161046Y0098969D03*
X0161046Y0098858D03*
X0161046Y0098747D03*
X0161046Y0098636D03*
X0161046Y0098525D03*
D27*
X0155711Y0098525D03*
X0155711Y0100525D03*
X0162161Y0087636D03*
X0162161Y0083636D03*
X0162161Y0081302D03*
X0162161Y0081191D03*
X0155711Y0074858D03*
X0155711Y0072969D03*
X0147161Y0068636D03*
X0147161Y0079191D03*
X0170711Y0092080D03*
X0179161Y0074858D03*
X0179161Y0072858D03*
X0140821Y0107080D03*
X0140821Y0108969D03*
X0138711Y0104747D03*
X0147161Y0115525D03*
X0157821Y0117525D03*
X0157821Y0121969D03*
X0162161Y0121858D03*
X0162161Y0121747D03*
X0164271Y0119525D03*
X0164271Y0119302D03*
X0164271Y0119191D03*
X0164271Y0119080D03*
X0164271Y0118969D03*
X0164271Y0118858D03*
X0164271Y0118747D03*
X0164271Y0118636D03*
X0164271Y0118525D03*
X0164271Y0118302D03*
X0164271Y0118191D03*
X0164271Y0118080D03*
X0164271Y0117969D03*
X0164271Y0117858D03*
X0164271Y0117747D03*
X0164271Y0117636D03*
X0164271Y0117525D03*
X0164271Y0117302D03*
X0164271Y0117191D03*
X0164271Y0117080D03*
X0164271Y0116969D03*
X0164271Y0116858D03*
X0164271Y0116747D03*
X0164271Y0116636D03*
X0164271Y0116525D03*
X0164271Y0116302D03*
X0164271Y0116191D03*
X0164271Y0116080D03*
X0164271Y0115969D03*
X0164271Y0115858D03*
X0164271Y0115747D03*
X0164271Y0115636D03*
X0164271Y0115525D03*
X0164271Y0115302D03*
X0164271Y0115191D03*
X0164271Y0115080D03*
X0164271Y0114969D03*
X0164271Y0114858D03*
X0164271Y0114747D03*
X0164271Y0114636D03*
X0164271Y0114525D03*
X0164271Y0114302D03*
X0164271Y0114191D03*
X0164271Y0114080D03*
X0164271Y0113969D03*
X0164271Y0113858D03*
X0164271Y0113747D03*
X0164271Y0113636D03*
X0147161Y0126080D03*
X0159271Y0141191D03*
X0157821Y0144747D03*
X0166271Y0141747D03*
X0166271Y0141636D03*
X0166271Y0141525D03*
X0174711Y0144747D03*
X0183711Y0135302D03*
D28*
X0154711Y0128191D03*
X0137601Y0087747D03*
X0137601Y0087636D03*
X0137601Y0087525D03*
X0137601Y0087302D03*
X0137601Y0087191D03*
X0137601Y0087080D03*
X0137601Y0086969D03*
X0137601Y0086858D03*
X0137601Y0086747D03*
X0137601Y0086636D03*
X0137601Y0086525D03*
X0137601Y0086302D03*
X0137601Y0086191D03*
X0137601Y0086080D03*
X0137601Y0085969D03*
X0137601Y0085858D03*
X0137601Y0085747D03*
X0154601Y0068636D03*
D29*
X0167491Y0079525D03*
X0167491Y0079636D03*
X0167491Y0079747D03*
X0167491Y0079858D03*
X0167491Y0079969D03*
X0167491Y0080080D03*
X0167491Y0080191D03*
X0167491Y0080302D03*
X0167491Y0080525D03*
X0167491Y0080636D03*
X0167491Y0080747D03*
X0167491Y0080858D03*
X0167491Y0080969D03*
X0167491Y0081080D03*
X0167381Y0081302D03*
X0169601Y0083636D03*
X0169601Y0083747D03*
X0169601Y0083858D03*
X0169601Y0083969D03*
X0169601Y0084080D03*
X0169601Y0084191D03*
X0169601Y0084302D03*
X0169601Y0084525D03*
X0169601Y0084636D03*
X0169601Y0084747D03*
X0169601Y0084858D03*
X0169601Y0084969D03*
X0169601Y0085080D03*
X0169601Y0085191D03*
X0169601Y0085302D03*
X0167491Y0085747D03*
X0167491Y0085858D03*
X0167491Y0085969D03*
X0167491Y0086080D03*
X0167491Y0086191D03*
X0167491Y0086302D03*
X0167491Y0086525D03*
X0167491Y0086636D03*
X0167491Y0086747D03*
X0167491Y0086858D03*
X0167491Y0086969D03*
X0167491Y0087080D03*
X0167491Y0087191D03*
X0167491Y0087302D03*
X0167491Y0087525D03*
X0165381Y0102747D03*
X0165381Y0102858D03*
X0167491Y0105080D03*
X0167491Y0105191D03*
X0167491Y0105302D03*
X0167491Y0105525D03*
X0167491Y0105636D03*
X0167491Y0105747D03*
X0167491Y0105858D03*
X0167491Y0105969D03*
X0167491Y0106080D03*
X0167491Y0106191D03*
X0167491Y0106302D03*
X0167491Y0106525D03*
X0167491Y0106636D03*
X0167491Y0106747D03*
X0169601Y0117636D03*
X0169601Y0117747D03*
X0169601Y0117858D03*
X0169601Y0117969D03*
X0169601Y0118080D03*
X0169601Y0118191D03*
X0169601Y0118302D03*
X0169601Y0118525D03*
X0169601Y0118636D03*
X0169601Y0118747D03*
X0169601Y0118858D03*
X0169601Y0118969D03*
X0169601Y0119080D03*
X0169601Y0119191D03*
X0169601Y0119302D03*
X0169601Y0119525D03*
X0169601Y0119636D03*
X0184491Y0108969D03*
X0182381Y0102525D03*
X0182381Y0102302D03*
X0182381Y0102191D03*
X0182381Y0102080D03*
X0182381Y0101969D03*
X0182381Y0101858D03*
X0182381Y0101747D03*
X0182381Y0101636D03*
X0182381Y0101525D03*
X0182381Y0101302D03*
X0182381Y0101191D03*
X0182381Y0101080D03*
X0182381Y0100969D03*
X0182381Y0100858D03*
X0182381Y0100747D03*
X0184601Y0094191D03*
X0188601Y0087747D03*
X0186601Y0079302D03*
X0182381Y0070302D03*
X0182381Y0070191D03*
X0182381Y0070080D03*
X0182381Y0069969D03*
X0182381Y0069858D03*
X0182381Y0069747D03*
X0182381Y0069636D03*
X0182381Y0069525D03*
X0182381Y0069302D03*
X0182381Y0069191D03*
X0182381Y0069080D03*
X0182381Y0068969D03*
X0182381Y0068858D03*
X0182381Y0068747D03*
X0182381Y0068636D03*
X0150381Y0098525D03*
X0150381Y0098636D03*
X0150381Y0098747D03*
X0150381Y0098858D03*
X0150381Y0098969D03*
X0150381Y0099080D03*
X0150381Y0099191D03*
X0150381Y0099302D03*
X0150381Y0099525D03*
X0150381Y0099636D03*
X0150381Y0099747D03*
X0150381Y0099858D03*
X0150381Y0099969D03*
X0150381Y0100080D03*
X0150381Y0100191D03*
X0150381Y0100302D03*
X0150381Y0107080D03*
X0150381Y0107191D03*
X0150381Y0107302D03*
X0150381Y0107525D03*
X0150381Y0107636D03*
X0150381Y0107747D03*
X0150381Y0107858D03*
X0150381Y0107969D03*
X0150381Y0108080D03*
X0150381Y0108191D03*
X0150381Y0108302D03*
X0150381Y0108525D03*
X0150381Y0108636D03*
X0150381Y0108747D03*
X0150381Y0108858D03*
X0150381Y0108969D03*
X0150381Y0109080D03*
X0152601Y0111302D03*
X0135491Y0111080D03*
X0135491Y0110969D03*
X0135491Y0110858D03*
X0135491Y0110747D03*
X0135491Y0110636D03*
X0135491Y0110525D03*
X0135491Y0110302D03*
X0135491Y0110191D03*
X0135491Y0110080D03*
X0135491Y0109969D03*
X0135491Y0109858D03*
X0135491Y0109747D03*
X0135491Y0109636D03*
X0135491Y0109525D03*
X0135491Y0109302D03*
X0135491Y0109191D03*
X0135491Y0109080D03*
X0135491Y0108969D03*
X0135491Y0108858D03*
X0135491Y0108747D03*
X0135491Y0108636D03*
X0135491Y0108525D03*
X0135491Y0108302D03*
X0135491Y0108191D03*
X0135491Y0108080D03*
X0135491Y0107969D03*
X0135491Y0107858D03*
X0135491Y0107747D03*
X0135491Y0107636D03*
X0135491Y0107525D03*
X0135491Y0107302D03*
X0135491Y0107191D03*
X0135491Y0107080D03*
X0137601Y0096080D03*
X0137601Y0095969D03*
X0137601Y0095858D03*
X0137601Y0095747D03*
X0137601Y0095636D03*
X0137601Y0095525D03*
X0137601Y0095302D03*
X0137601Y0095191D03*
X0137601Y0095080D03*
X0137601Y0094969D03*
X0137601Y0094858D03*
X0137601Y0094747D03*
X0137601Y0094636D03*
X0137601Y0094525D03*
X0137601Y0094302D03*
X0135491Y0091858D03*
X0135491Y0091747D03*
X0135491Y0091636D03*
X0135491Y0091525D03*
X0135491Y0091302D03*
X0135491Y0091191D03*
X0135491Y0091080D03*
X0135491Y0090969D03*
X0135491Y0090858D03*
X0135491Y0090747D03*
X0135491Y0090636D03*
X0135491Y0090525D03*
X0135491Y0090302D03*
X0135491Y0090191D03*
X0135491Y0090080D03*
X0135491Y0085525D03*
X0135491Y0085302D03*
X0135491Y0085191D03*
X0135491Y0085080D03*
X0135491Y0084969D03*
X0135491Y0084858D03*
X0135491Y0084747D03*
X0135491Y0084636D03*
X0135491Y0084525D03*
X0135491Y0084302D03*
X0135491Y0084191D03*
X0135491Y0084080D03*
X0135491Y0083969D03*
X0135491Y0083858D03*
X0135491Y0083747D03*
X0135491Y0083636D03*
D30*
X0135436Y0091969D03*
X0137546Y0094191D03*
X0148326Y0104858D03*
X0141876Y0111191D03*
X0154546Y0096302D03*
X0161106Y0104858D03*
X0169656Y0119747D03*
X0163216Y0128191D03*
X0184436Y0109080D03*
X0190876Y0106969D03*
X0190876Y0091969D03*
X0169546Y0083525D03*
X0184546Y0072747D03*
X0188766Y0068636D03*
D31*
X0165326Y0072969D03*
X0165326Y0073080D03*
X0165326Y0073191D03*
X0165326Y0073302D03*
X0165326Y0073525D03*
X0165326Y0073636D03*
X0165326Y0073747D03*
X0165326Y0073858D03*
X0165326Y0073969D03*
X0165326Y0074080D03*
X0165326Y0074191D03*
X0165326Y0074302D03*
X0165326Y0074525D03*
X0165326Y0074636D03*
X0165326Y0074747D03*
X0165326Y0074858D03*
X0154656Y0070525D03*
X0154656Y0070302D03*
X0154656Y0070191D03*
X0154656Y0070080D03*
X0154656Y0069969D03*
X0154656Y0069858D03*
X0154656Y0069747D03*
X0154656Y0069636D03*
X0154656Y0069525D03*
X0154656Y0069302D03*
X0154656Y0069191D03*
X0154656Y0069080D03*
X0154656Y0068969D03*
X0154656Y0068858D03*
X0154656Y0068747D03*
X0139656Y0106858D03*
X0154656Y0126302D03*
X0154656Y0126525D03*
X0154656Y0126636D03*
X0154656Y0126747D03*
X0154656Y0126858D03*
X0154656Y0126969D03*
X0154656Y0127080D03*
X0154656Y0127191D03*
X0154656Y0127302D03*
X0154656Y0127525D03*
X0154656Y0127636D03*
X0154656Y0127747D03*
X0154656Y0127858D03*
X0154656Y0127969D03*
X0154656Y0128080D03*
X0166326Y0137858D03*
D32*
X0163161Y0126302D03*
X0163161Y0123969D03*
X0163161Y0123858D03*
X0163161Y0121969D03*
X0156821Y0121858D03*
X0156821Y0121747D03*
X0156821Y0121636D03*
X0156821Y0121525D03*
X0156821Y0121302D03*
X0156821Y0121191D03*
X0156821Y0121080D03*
X0156821Y0120969D03*
X0156821Y0120858D03*
X0156821Y0120747D03*
X0156821Y0120636D03*
X0156821Y0120525D03*
X0156821Y0120302D03*
X0156821Y0120191D03*
X0156821Y0120080D03*
X0156821Y0119969D03*
X0156821Y0119858D03*
X0148271Y0106747D03*
X0148271Y0106636D03*
X0148271Y0106525D03*
X0148271Y0106302D03*
X0148271Y0106191D03*
X0148271Y0106080D03*
X0148271Y0105969D03*
X0148271Y0105858D03*
X0148271Y0105747D03*
X0148271Y0105636D03*
X0148271Y0105525D03*
X0148271Y0105302D03*
X0148271Y0105191D03*
X0148271Y0105080D03*
X0148271Y0104969D03*
X0141821Y0109191D03*
X0141821Y0111080D03*
X0139711Y0098302D03*
X0139711Y0098191D03*
X0139711Y0098080D03*
X0139711Y0097969D03*
X0139711Y0097858D03*
X0139711Y0097747D03*
X0139711Y0097636D03*
X0139711Y0097525D03*
X0139711Y0097302D03*
X0139711Y0097191D03*
X0139711Y0097080D03*
X0139711Y0096969D03*
X0139711Y0096858D03*
X0139711Y0096747D03*
X0139711Y0096636D03*
X0139711Y0096525D03*
X0156821Y0091858D03*
X0156821Y0091747D03*
X0156821Y0091636D03*
X0156821Y0091525D03*
X0156821Y0091302D03*
X0156821Y0091191D03*
X0156821Y0091080D03*
X0156821Y0090969D03*
X0156821Y0090858D03*
X0156821Y0090747D03*
X0156821Y0090636D03*
X0156821Y0090525D03*
X0156821Y0090302D03*
X0156821Y0090191D03*
X0156821Y0090080D03*
X0156821Y0089969D03*
X0165271Y0091969D03*
X0171711Y0098525D03*
X0171711Y0098636D03*
X0171711Y0098747D03*
X0171711Y0098858D03*
X0171711Y0098969D03*
X0171711Y0099080D03*
X0171711Y0099191D03*
X0171711Y0099302D03*
X0171711Y0099525D03*
X0171711Y0099636D03*
X0171711Y0099747D03*
X0171711Y0099858D03*
X0171711Y0099969D03*
X0171711Y0100080D03*
X0171711Y0100191D03*
X0171711Y0100302D03*
X0171711Y0100525D03*
X0186711Y0087858D03*
X0188821Y0087525D03*
X0188821Y0087302D03*
X0188821Y0087191D03*
X0188821Y0087080D03*
X0188821Y0086969D03*
X0188821Y0086858D03*
X0188821Y0086747D03*
X0188821Y0086636D03*
X0188821Y0086525D03*
X0188821Y0086302D03*
X0188821Y0086191D03*
X0188821Y0086080D03*
X0188821Y0085969D03*
X0188821Y0085858D03*
X0188821Y0070525D03*
X0188821Y0070302D03*
X0188821Y0070191D03*
X0188821Y0070080D03*
X0188821Y0069969D03*
X0188821Y0069858D03*
X0188821Y0069747D03*
X0188821Y0069636D03*
X0188821Y0069525D03*
X0188821Y0069302D03*
X0188821Y0069191D03*
X0188821Y0069080D03*
X0188821Y0068969D03*
X0188821Y0068858D03*
X0188821Y0068747D03*
X0178161Y0070747D03*
X0178161Y0070858D03*
X0178161Y0070969D03*
X0178161Y0071080D03*
X0178161Y0071191D03*
X0178161Y0071302D03*
X0178161Y0071525D03*
X0178161Y0071636D03*
X0178161Y0071747D03*
X0178161Y0071858D03*
X0178161Y0071969D03*
X0178161Y0072080D03*
X0178161Y0072191D03*
X0178161Y0072302D03*
X0178161Y0072525D03*
X0178161Y0072636D03*
X0178161Y0072747D03*
X0166161Y0158080D03*
X0166161Y0161747D03*
D33*
X0154656Y0127413D03*
X0154656Y0126413D03*
X0165326Y0074413D03*
X0165326Y0073413D03*
X0154656Y0070413D03*
X0154656Y0069413D03*
D34*
X0167491Y0079413D03*
X0167491Y0080413D03*
X0169601Y0084413D03*
X0169601Y0085413D03*
X0167491Y0086413D03*
X0167491Y0087413D03*
X0165381Y0098413D03*
X0167491Y0105413D03*
X0167491Y0106413D03*
X0169601Y0118413D03*
X0169601Y0119413D03*
X0182381Y0102413D03*
X0182381Y0101413D03*
X0182381Y0070413D03*
X0182381Y0069413D03*
X0150381Y0099413D03*
X0150381Y0107413D03*
X0150381Y0108413D03*
X0135491Y0108413D03*
X0135491Y0109413D03*
X0135491Y0110413D03*
X0135491Y0107413D03*
X0137601Y0095413D03*
X0137601Y0094413D03*
X0135491Y0091413D03*
X0135491Y0090413D03*
X0135491Y0085413D03*
X0135491Y0084413D03*
D35*
X0139711Y0096413D03*
X0139711Y0097413D03*
X0148271Y0105413D03*
X0148271Y0106413D03*
X0156821Y0120413D03*
X0156821Y0121413D03*
X0171711Y0100413D03*
X0171711Y0099413D03*
X0156821Y0091413D03*
X0156821Y0090413D03*
X0178161Y0072413D03*
X0178161Y0071413D03*
X0188821Y0070413D03*
X0188821Y0069413D03*
X0188821Y0086413D03*
X0188821Y0087413D03*
D36*
X0188766Y0087636D03*
X0188766Y0085747D03*
X0186656Y0087969D03*
X0186656Y0088080D03*
X0186656Y0088191D03*
X0186656Y0088302D03*
X0186656Y0088525D03*
X0186656Y0088636D03*
X0186656Y0088747D03*
X0186656Y0088858D03*
X0186656Y0088969D03*
X0186656Y0089080D03*
X0186656Y0089191D03*
X0186656Y0089302D03*
X0186656Y0089525D03*
X0186656Y0089636D03*
X0186656Y0089747D03*
X0186656Y0089858D03*
X0184546Y0094302D03*
X0184546Y0094525D03*
X0184546Y0094636D03*
X0184546Y0094747D03*
X0184546Y0094858D03*
X0184546Y0094969D03*
X0184546Y0095080D03*
X0184546Y0095191D03*
X0184546Y0095302D03*
X0184546Y0095525D03*
X0184546Y0095636D03*
X0184546Y0095747D03*
X0184546Y0095858D03*
X0184546Y0095969D03*
X0184546Y0096080D03*
X0184546Y0096191D03*
X0182436Y0100636D03*
X0182326Y0102636D03*
X0184546Y0104969D03*
X0184546Y0105080D03*
X0184546Y0105191D03*
X0184546Y0105302D03*
X0184546Y0105525D03*
X0184546Y0105636D03*
X0184546Y0105747D03*
X0184546Y0105858D03*
X0184546Y0105969D03*
X0184546Y0106080D03*
X0184546Y0106191D03*
X0184546Y0106302D03*
X0184546Y0106525D03*
X0184546Y0106636D03*
X0184546Y0106747D03*
X0184546Y0106858D03*
X0184546Y0106969D03*
X0184546Y0107080D03*
X0184546Y0107191D03*
X0184546Y0107302D03*
X0184546Y0107525D03*
X0184546Y0107636D03*
X0184546Y0107747D03*
X0184546Y0107858D03*
X0184546Y0107969D03*
X0184546Y0108080D03*
X0184546Y0108191D03*
X0184546Y0108302D03*
X0184546Y0108525D03*
X0184546Y0108636D03*
X0184546Y0108747D03*
X0184546Y0108858D03*
X0167436Y0106858D03*
X0167436Y0104969D03*
X0167436Y0104858D03*
X0165326Y0104747D03*
X0165326Y0104636D03*
X0165326Y0104525D03*
X0165326Y0104302D03*
X0165326Y0104191D03*
X0165326Y0104080D03*
X0165326Y0103969D03*
X0165326Y0103858D03*
X0165326Y0103747D03*
X0165326Y0103636D03*
X0165326Y0103525D03*
X0165326Y0103302D03*
X0165326Y0103191D03*
X0165326Y0103080D03*
X0165326Y0102969D03*
X0165326Y0098302D03*
X0165326Y0098191D03*
X0165326Y0098080D03*
X0165326Y0097969D03*
X0165326Y0097858D03*
X0165326Y0097747D03*
X0165326Y0097636D03*
X0165326Y0097525D03*
X0165326Y0097302D03*
X0165326Y0097191D03*
X0165326Y0097080D03*
X0165326Y0096969D03*
X0165326Y0096858D03*
X0165326Y0096747D03*
X0165326Y0096636D03*
X0165326Y0096525D03*
X0165326Y0096302D03*
X0165326Y0096191D03*
X0165326Y0096080D03*
X0165326Y0095969D03*
X0165326Y0095858D03*
X0165326Y0095747D03*
X0165326Y0095636D03*
X0165326Y0095525D03*
X0165326Y0095302D03*
X0165326Y0095191D03*
X0165326Y0095080D03*
X0165326Y0094969D03*
X0165326Y0094858D03*
X0165326Y0094747D03*
X0165326Y0094636D03*
X0165326Y0094525D03*
X0165326Y0094302D03*
X0165216Y0094191D03*
X0165326Y0091858D03*
X0165326Y0091747D03*
X0165326Y0091636D03*
X0165326Y0091525D03*
X0165326Y0091302D03*
X0165326Y0091191D03*
X0165326Y0091080D03*
X0165326Y0090969D03*
X0165326Y0090858D03*
X0165326Y0090747D03*
X0165326Y0090636D03*
X0165326Y0090525D03*
X0165326Y0090302D03*
X0165326Y0090191D03*
X0165326Y0090080D03*
X0165326Y0089969D03*
X0167436Y0087636D03*
X0167656Y0085636D03*
X0169546Y0085525D03*
X0167436Y0081191D03*
X0167546Y0079302D03*
X0182436Y0070636D03*
X0182436Y0070525D03*
X0184546Y0070858D03*
X0184546Y0070969D03*
X0184546Y0071080D03*
X0184546Y0071191D03*
X0184546Y0071302D03*
X0184546Y0071525D03*
X0184546Y0071636D03*
X0184546Y0071747D03*
X0184546Y0071858D03*
X0184546Y0071969D03*
X0184546Y0072080D03*
X0184546Y0072191D03*
X0184546Y0072302D03*
X0184546Y0072525D03*
X0184546Y0072636D03*
X0186656Y0079525D03*
X0186656Y0079636D03*
X0186656Y0079747D03*
X0186656Y0079858D03*
X0186656Y0079969D03*
X0186656Y0080080D03*
X0186656Y0080191D03*
X0186656Y0080302D03*
X0186656Y0080525D03*
X0186656Y0080636D03*
X0186656Y0080747D03*
X0186656Y0080858D03*
X0186656Y0080969D03*
X0186656Y0081080D03*
X0186656Y0081191D03*
X0186656Y0081302D03*
X0186656Y0081525D03*
X0186656Y0081636D03*
X0186656Y0081747D03*
X0186656Y0081858D03*
X0186656Y0081969D03*
X0186656Y0082080D03*
X0186656Y0082191D03*
X0186656Y0082302D03*
X0186656Y0082525D03*
X0186656Y0082636D03*
X0186656Y0082747D03*
X0186656Y0082858D03*
X0186656Y0082969D03*
X0186656Y0083080D03*
X0186656Y0083191D03*
X0186656Y0083302D03*
X0154656Y0096525D03*
X0154656Y0096636D03*
X0154656Y0096747D03*
X0154656Y0096858D03*
X0154656Y0096969D03*
X0154656Y0097080D03*
X0154656Y0097191D03*
X0154656Y0097302D03*
X0154656Y0097525D03*
X0154656Y0097636D03*
X0154656Y0097747D03*
X0154656Y0097858D03*
X0154656Y0097969D03*
X0154656Y0098080D03*
X0154656Y0098191D03*
X0154656Y0098302D03*
X0150436Y0100525D03*
X0148326Y0106858D03*
X0150326Y0106969D03*
X0152546Y0111525D03*
X0152546Y0111636D03*
X0152546Y0111747D03*
X0152546Y0111858D03*
X0152546Y0111969D03*
X0152546Y0112080D03*
X0152546Y0112191D03*
X0152546Y0112302D03*
X0152546Y0112525D03*
X0152546Y0112636D03*
X0152546Y0112747D03*
X0152546Y0112858D03*
X0152546Y0112969D03*
X0152546Y0113080D03*
X0152546Y0113191D03*
X0152546Y0113302D03*
X0163216Y0122080D03*
X0163216Y0122191D03*
X0163216Y0122302D03*
X0163216Y0122525D03*
X0163216Y0122636D03*
X0163216Y0122747D03*
X0163216Y0122858D03*
X0163216Y0122969D03*
X0163216Y0123080D03*
X0163216Y0123191D03*
X0163216Y0123302D03*
X0163216Y0123525D03*
X0163216Y0123636D03*
X0163216Y0123747D03*
X0163216Y0126525D03*
X0163216Y0126636D03*
X0163216Y0126747D03*
X0163216Y0126858D03*
X0163216Y0126969D03*
X0163216Y0127080D03*
X0163216Y0127191D03*
X0163216Y0127302D03*
X0163216Y0127525D03*
X0163216Y0127636D03*
X0163216Y0127747D03*
X0163216Y0127858D03*
X0163216Y0127969D03*
X0163216Y0128080D03*
X0135656Y0106969D03*
X0137656Y0096191D03*
X0139656Y0096302D03*
X0135546Y0089969D03*
D37*
X0146101Y0092191D03*
X0146101Y0092302D03*
X0146101Y0092525D03*
X0146101Y0092636D03*
X0146101Y0092747D03*
X0146101Y0092858D03*
X0146101Y0092969D03*
X0146101Y0093080D03*
X0146101Y0093191D03*
X0146101Y0093302D03*
X0146101Y0093525D03*
X0146101Y0093636D03*
X0146101Y0093747D03*
X0146101Y0093858D03*
X0146101Y0093969D03*
X0146101Y0094080D03*
X0143991Y0100747D03*
X0143991Y0100858D03*
X0143991Y0100969D03*
X0143991Y0101080D03*
X0143991Y0101191D03*
X0143991Y0101302D03*
X0143991Y0101525D03*
X0143991Y0101636D03*
X0143991Y0101747D03*
X0143991Y0101858D03*
X0143991Y0101969D03*
X0143991Y0102080D03*
X0143991Y0102191D03*
X0143991Y0102302D03*
X0143991Y0102525D03*
X0139771Y0104969D03*
X0139771Y0105080D03*
X0139771Y0105191D03*
X0139771Y0105302D03*
X0139771Y0105525D03*
X0139771Y0105636D03*
X0139771Y0105747D03*
X0139771Y0105858D03*
X0139771Y0105969D03*
X0139771Y0106080D03*
X0139771Y0106191D03*
X0139771Y0106302D03*
X0139771Y0106525D03*
X0139771Y0106636D03*
X0139771Y0106747D03*
X0161101Y0094080D03*
X0161101Y0093969D03*
X0161101Y0093858D03*
X0161101Y0093747D03*
X0161101Y0093636D03*
X0161101Y0093525D03*
X0161101Y0093302D03*
X0161101Y0093191D03*
X0161101Y0093080D03*
X0161101Y0092969D03*
X0161101Y0092858D03*
X0161101Y0092747D03*
X0161101Y0092636D03*
X0161101Y0092525D03*
X0161101Y0092302D03*
X0161101Y0092191D03*
X0163211Y0083302D03*
X0163211Y0083191D03*
X0163211Y0083080D03*
X0163211Y0082969D03*
X0163211Y0082858D03*
X0163211Y0082747D03*
X0163211Y0082636D03*
X0163211Y0082525D03*
X0163211Y0082302D03*
X0163211Y0082191D03*
X0163211Y0082080D03*
X0163211Y0081969D03*
X0163211Y0081858D03*
X0163211Y0081747D03*
X0163211Y0081636D03*
X0163211Y0081525D03*
X0165211Y0072858D03*
X0154771Y0070636D03*
X0178101Y0096302D03*
X0178101Y0096525D03*
X0178101Y0096636D03*
X0178101Y0096747D03*
X0178101Y0096858D03*
X0178101Y0096969D03*
X0178101Y0097080D03*
X0178101Y0097191D03*
X0178101Y0097302D03*
X0178101Y0097525D03*
X0178101Y0097636D03*
X0178101Y0097747D03*
X0178101Y0097858D03*
X0178101Y0097969D03*
X0178101Y0098080D03*
X0178101Y0098191D03*
X0178101Y0098302D03*
X0154771Y0126191D03*
D38*
X0163101Y0126191D03*
X0161101Y0106858D03*
X0156881Y0091969D03*
X0141881Y0109302D03*
X0141881Y0109525D03*
X0141881Y0109636D03*
X0141881Y0109747D03*
X0141881Y0109858D03*
X0141881Y0109969D03*
X0141881Y0110080D03*
X0141881Y0110191D03*
X0141881Y0110302D03*
X0141881Y0110525D03*
X0141881Y0110636D03*
X0141881Y0110747D03*
X0141881Y0110858D03*
X0141881Y0110969D03*
X0166101Y0158191D03*
X0166101Y0161636D03*
X0188881Y0070636D03*
D39*
X0140821Y0070747D03*
X0157821Y0117636D03*
X0140821Y0123969D03*
X0187711Y0123969D03*
D40*
X0147156Y0089747D03*
X0147156Y0089636D03*
X0147156Y0089525D03*
X0147156Y0089302D03*
X0147156Y0089191D03*
X0147156Y0089080D03*
X0147156Y0088969D03*
X0147156Y0088858D03*
X0147156Y0088747D03*
X0147156Y0088636D03*
X0147156Y0088525D03*
X0147156Y0088302D03*
X0147156Y0088191D03*
X0147156Y0088080D03*
X0147156Y0087969D03*
X0147156Y0087858D03*
X0157826Y0072636D03*
X0157826Y0072525D03*
X0157826Y0072302D03*
X0157826Y0072191D03*
X0157826Y0072080D03*
X0157826Y0071969D03*
X0157826Y0071858D03*
X0157826Y0071747D03*
X0157826Y0071636D03*
X0157826Y0071525D03*
X0157826Y0071302D03*
X0157826Y0071191D03*
X0157826Y0071080D03*
X0157826Y0070969D03*
X0157826Y0070858D03*
X0157826Y0070747D03*
X0172826Y0077191D03*
X0172826Y0077302D03*
X0172826Y0077525D03*
X0172826Y0077636D03*
X0172826Y0077747D03*
X0172826Y0077858D03*
X0172826Y0077969D03*
X0172826Y0078080D03*
X0172826Y0078191D03*
X0172826Y0078302D03*
X0172826Y0078525D03*
X0172826Y0078636D03*
X0172826Y0078747D03*
X0172826Y0078858D03*
X0172826Y0078969D03*
X0172826Y0079080D03*
D41*
X0184491Y0070747D03*
X0184491Y0104858D03*
D42*
X0177046Y0093969D03*
X0177046Y0093858D03*
X0177046Y0093747D03*
X0177046Y0093636D03*
X0177046Y0093525D03*
X0177046Y0093302D03*
X0177046Y0093191D03*
X0177046Y0093080D03*
X0177046Y0092969D03*
X0177046Y0092858D03*
X0177046Y0092747D03*
X0177046Y0092636D03*
X0177046Y0092525D03*
X0177046Y0092302D03*
X0177046Y0092191D03*
X0172826Y0091969D03*
X0172826Y0091858D03*
X0172826Y0091747D03*
X0172826Y0091636D03*
X0172826Y0091525D03*
X0172826Y0091302D03*
X0172826Y0091191D03*
X0172826Y0091080D03*
X0172826Y0090969D03*
X0172826Y0090858D03*
X0172826Y0090747D03*
X0172826Y0090636D03*
X0172826Y0090525D03*
X0172826Y0090302D03*
X0172826Y0090191D03*
X0172826Y0090080D03*
X0174936Y0081191D03*
X0174936Y0081080D03*
X0174936Y0080969D03*
X0174936Y0080858D03*
X0174936Y0080747D03*
X0174936Y0080636D03*
X0174936Y0080525D03*
X0174936Y0080302D03*
X0174936Y0080191D03*
X0174936Y0080080D03*
X0174936Y0079969D03*
X0174936Y0079858D03*
X0174936Y0079747D03*
X0174936Y0079636D03*
X0174936Y0079525D03*
X0174936Y0079302D03*
X0159936Y0079191D03*
X0159936Y0077191D03*
X0155826Y0079302D03*
X0140826Y0076858D03*
X0140826Y0076747D03*
X0140826Y0076636D03*
X0140826Y0076525D03*
X0140826Y0076302D03*
X0140826Y0076191D03*
X0140826Y0076080D03*
X0140826Y0075969D03*
X0140826Y0075858D03*
X0140826Y0075747D03*
X0140826Y0075636D03*
X0140826Y0075525D03*
X0140826Y0075302D03*
X0140826Y0075191D03*
X0140826Y0075080D03*
X0140826Y0074969D03*
X0140826Y0074858D03*
X0140826Y0074747D03*
X0140826Y0074636D03*
X0140826Y0074525D03*
X0140826Y0074302D03*
X0140826Y0074191D03*
X0140826Y0074080D03*
X0140826Y0073969D03*
X0140826Y0073858D03*
X0140826Y0073747D03*
X0140826Y0073636D03*
X0140826Y0073525D03*
X0140826Y0073302D03*
X0140826Y0073191D03*
X0140826Y0073080D03*
X0140826Y0072969D03*
X0140826Y0072858D03*
X0140826Y0072747D03*
X0140826Y0072636D03*
X0140826Y0072525D03*
X0140826Y0072302D03*
X0140826Y0072191D03*
X0140826Y0072080D03*
X0140826Y0071969D03*
X0140826Y0071858D03*
X0140826Y0071747D03*
X0140826Y0071636D03*
X0140826Y0071525D03*
X0140826Y0071302D03*
X0140826Y0071191D03*
X0140826Y0071080D03*
X0140826Y0070969D03*
X0147046Y0096302D03*
X0140826Y0117858D03*
X0140826Y0117969D03*
X0140826Y0118080D03*
X0140826Y0118191D03*
X0140826Y0118302D03*
X0140826Y0118525D03*
X0140826Y0118636D03*
X0140826Y0118747D03*
X0140826Y0118858D03*
X0140826Y0118969D03*
X0140826Y0119080D03*
X0140826Y0119191D03*
X0140826Y0119302D03*
X0140826Y0119525D03*
X0140826Y0119636D03*
X0140826Y0119747D03*
X0140826Y0119858D03*
X0140826Y0119969D03*
X0140826Y0120080D03*
X0140826Y0120191D03*
X0140826Y0120302D03*
X0140826Y0120525D03*
X0140826Y0120636D03*
X0140826Y0120747D03*
X0140826Y0120858D03*
X0140826Y0120969D03*
X0140826Y0121080D03*
X0140826Y0121191D03*
X0140826Y0121302D03*
X0140826Y0121525D03*
X0140826Y0121636D03*
X0140826Y0121747D03*
X0140826Y0121858D03*
X0140826Y0121969D03*
X0140826Y0122080D03*
X0140826Y0122191D03*
X0140826Y0122302D03*
X0140826Y0122525D03*
X0140826Y0122636D03*
X0140826Y0122747D03*
X0140826Y0122858D03*
X0140826Y0122969D03*
X0140826Y0123080D03*
X0140826Y0123191D03*
X0140826Y0123302D03*
X0140826Y0123525D03*
X0140826Y0123636D03*
X0140826Y0123747D03*
X0160046Y0124080D03*
X0160046Y0124191D03*
X0191936Y0070747D03*
D43*
X0191991Y0070858D03*
X0191991Y0070969D03*
X0191991Y0071080D03*
X0191991Y0071191D03*
X0191991Y0071302D03*
X0191991Y0071525D03*
X0191991Y0071636D03*
X0191991Y0071747D03*
X0191991Y0071858D03*
X0191991Y0071969D03*
X0191991Y0072080D03*
X0191991Y0072191D03*
X0191991Y0072302D03*
X0191991Y0072525D03*
X0191991Y0072636D03*
X0191991Y0072747D03*
X0174991Y0081302D03*
X0176991Y0092080D03*
X0176991Y0094080D03*
X0159991Y0079080D03*
X0159991Y0078969D03*
X0159991Y0078858D03*
X0159991Y0078747D03*
X0159991Y0078636D03*
X0159991Y0078525D03*
X0159991Y0078302D03*
X0159991Y0078191D03*
X0159991Y0078080D03*
X0159991Y0077969D03*
X0159991Y0077858D03*
X0159991Y0077747D03*
X0159991Y0077636D03*
X0159991Y0077525D03*
X0159991Y0077302D03*
X0159991Y0124302D03*
X0159991Y0124525D03*
X0159991Y0124636D03*
X0159991Y0124747D03*
X0159991Y0124858D03*
X0159991Y0124969D03*
X0159991Y0125080D03*
X0159991Y0125191D03*
X0159991Y0125302D03*
X0159991Y0125525D03*
X0159991Y0125636D03*
X0159991Y0125747D03*
X0159991Y0125858D03*
X0159991Y0125969D03*
D44*
X0140826Y0123413D03*
X0140826Y0122413D03*
X0140826Y0121413D03*
X0140826Y0120413D03*
X0140826Y0119413D03*
X0140826Y0118413D03*
X0147156Y0096413D03*
X0140826Y0076413D03*
X0140826Y0075413D03*
X0140826Y0074413D03*
X0140826Y0073413D03*
X0140826Y0072413D03*
X0140826Y0071413D03*
X0172826Y0090413D03*
X0172826Y0091413D03*
X0177046Y0092413D03*
X0177046Y0093413D03*
X0174936Y0080413D03*
X0174936Y0079413D03*
D45*
X0172826Y0078413D03*
X0172826Y0077413D03*
X0157826Y0072413D03*
X0157826Y0071413D03*
X0147156Y0088413D03*
X0147156Y0089413D03*
X0166156Y0138413D03*
D46*
X0166436Y0140413D03*
X0163216Y0127413D03*
X0163216Y0126413D03*
X0163216Y0123413D03*
X0163216Y0122413D03*
X0152546Y0112413D03*
X0152546Y0111413D03*
X0150436Y0100413D03*
X0154656Y0098413D03*
X0154656Y0097413D03*
X0154656Y0096413D03*
X0165326Y0096413D03*
X0165326Y0097413D03*
X0165326Y0095413D03*
X0165326Y0094413D03*
X0165326Y0091413D03*
X0165326Y0090413D03*
X0165326Y0103413D03*
X0165326Y0104413D03*
X0184546Y0105413D03*
X0184546Y0106413D03*
X0184546Y0107413D03*
X0184546Y0108413D03*
X0184546Y0095413D03*
X0184546Y0094413D03*
X0186656Y0089413D03*
X0186656Y0088413D03*
X0186656Y0083413D03*
X0186656Y0082413D03*
X0186656Y0081413D03*
X0186656Y0080413D03*
X0186656Y0079413D03*
X0184546Y0072413D03*
X0184546Y0071413D03*
D47*
X0191991Y0071413D03*
X0191991Y0072413D03*
X0159991Y0077413D03*
X0159991Y0078413D03*
X0159991Y0124413D03*
X0159991Y0125413D03*
D48*
X0172771Y0079191D03*
X0157881Y0072747D03*
D49*
X0155766Y0072858D03*
X0168436Y0074969D03*
X0168656Y0077080D03*
X0185656Y0079191D03*
X0185546Y0096302D03*
X0153546Y0111191D03*
X0141216Y0132858D03*
X0159436Y0141080D03*
X0159546Y0140969D03*
X0174656Y0144636D03*
D50*
X0174766Y0145080D03*
X0173766Y0141636D03*
X0166216Y0142525D03*
X0166216Y0142636D03*
X0166216Y0142747D03*
X0166216Y0142858D03*
X0162216Y0146525D03*
X0162216Y0149525D03*
X0157766Y0144969D03*
X0158766Y0141858D03*
X0147216Y0111191D03*
X0147216Y0083525D03*
X0172766Y0072858D03*
D51*
X0177046Y0081525D03*
X0174936Y0085858D03*
X0174936Y0085969D03*
X0174936Y0086080D03*
X0174936Y0086191D03*
X0174936Y0086302D03*
X0174936Y0086525D03*
X0174936Y0086636D03*
X0174936Y0086747D03*
X0174936Y0086858D03*
X0174936Y0086969D03*
X0174936Y0087080D03*
X0174936Y0087191D03*
X0174936Y0087302D03*
X0174936Y0087525D03*
X0174936Y0087636D03*
X0174936Y0094302D03*
X0174936Y0094525D03*
X0174936Y0094636D03*
X0174936Y0094747D03*
X0174936Y0094858D03*
X0174936Y0094969D03*
X0174936Y0095080D03*
X0174936Y0095191D03*
X0174936Y0095302D03*
X0174936Y0095525D03*
X0174936Y0095636D03*
X0174936Y0095747D03*
X0174936Y0095858D03*
X0174936Y0095969D03*
X0174936Y0096080D03*
X0174936Y0096191D03*
X0174936Y0102747D03*
X0174936Y0102858D03*
X0174936Y0102969D03*
X0174936Y0103080D03*
X0174936Y0103191D03*
X0174936Y0103302D03*
X0174936Y0103525D03*
X0174936Y0103636D03*
X0174936Y0103747D03*
X0174936Y0103858D03*
X0174936Y0103969D03*
X0174936Y0104080D03*
X0174936Y0104191D03*
X0174936Y0104302D03*
X0174936Y0104525D03*
X0174936Y0104636D03*
X0174936Y0104747D03*
X0174936Y0107080D03*
X0174936Y0107191D03*
X0174936Y0107302D03*
X0174936Y0107525D03*
X0174936Y0107636D03*
X0174936Y0107747D03*
X0174936Y0107858D03*
X0174936Y0107969D03*
X0174936Y0108080D03*
X0174936Y0108191D03*
X0174936Y0108302D03*
X0174936Y0108525D03*
X0174936Y0108636D03*
X0174936Y0108747D03*
X0174936Y0108858D03*
X0174936Y0117747D03*
X0174936Y0117858D03*
X0174936Y0117969D03*
X0174936Y0118080D03*
X0174936Y0118191D03*
X0174936Y0118302D03*
X0174936Y0118525D03*
X0174936Y0118636D03*
X0174936Y0118747D03*
X0174936Y0118858D03*
X0174936Y0118969D03*
X0174936Y0119080D03*
X0174936Y0119191D03*
X0174936Y0119302D03*
X0174936Y0119525D03*
X0163936Y0131525D03*
X0157936Y0123969D03*
X0160046Y0111191D03*
X0142936Y0104747D03*
X0142936Y0104636D03*
X0142936Y0104525D03*
X0142936Y0104302D03*
X0142936Y0104191D03*
X0142936Y0104080D03*
X0142936Y0103969D03*
X0142936Y0103858D03*
X0142936Y0103747D03*
X0142936Y0103636D03*
X0142936Y0103525D03*
X0142936Y0103302D03*
X0142936Y0103191D03*
X0142936Y0103080D03*
X0142936Y0102969D03*
X0142936Y0102858D03*
X0142936Y0102747D03*
X0145046Y0091969D03*
X0145046Y0091858D03*
X0145046Y0089969D03*
X0141046Y0134191D03*
X0194046Y0115525D03*
X0194046Y0072858D03*
D52*
X0156881Y0074969D03*
X0166211Y0139302D03*
X0166321Y0152969D03*
X0166321Y0153080D03*
X0166211Y0153525D03*
D53*
X0166266Y0140080D03*
X0181266Y0074969D03*
D54*
X0181326Y0081302D03*
X0192106Y0074969D03*
X0194106Y0094191D03*
X0179106Y0106969D03*
X0181326Y0111191D03*
X0194106Y0111191D03*
X0173656Y0141525D03*
X0169436Y0149525D03*
X0158876Y0141747D03*
X0155656Y0106969D03*
D55*
X0156826Y0075080D03*
X0166376Y0152858D03*
D56*
X0181321Y0076969D03*
X0181321Y0076858D03*
X0181321Y0076747D03*
X0181321Y0076636D03*
X0181321Y0076525D03*
X0181321Y0076302D03*
X0181321Y0076191D03*
X0181321Y0076080D03*
X0181321Y0075969D03*
X0181321Y0075858D03*
X0181321Y0075747D03*
X0181321Y0075636D03*
X0181321Y0075525D03*
X0181321Y0075302D03*
X0181321Y0075191D03*
X0181321Y0075080D03*
D57*
X0191991Y0075080D03*
X0191991Y0075191D03*
X0191991Y0075302D03*
X0191991Y0075525D03*
X0191991Y0075636D03*
X0191991Y0075747D03*
X0191991Y0075858D03*
X0191991Y0075969D03*
X0191991Y0076080D03*
X0191991Y0076191D03*
X0191991Y0076302D03*
X0191991Y0076525D03*
X0191991Y0076636D03*
X0191991Y0076747D03*
X0191991Y0076858D03*
X0191991Y0076969D03*
X0174991Y0085747D03*
X0159991Y0094302D03*
X0159991Y0094525D03*
X0159991Y0094636D03*
X0159991Y0094747D03*
X0159991Y0094858D03*
X0159991Y0094969D03*
X0159991Y0095080D03*
X0159991Y0095191D03*
X0159991Y0095302D03*
X0159991Y0095525D03*
X0159991Y0095636D03*
X0159991Y0095747D03*
X0159991Y0095858D03*
X0159991Y0095969D03*
X0159991Y0096080D03*
X0159991Y0096191D03*
X0159991Y0109191D03*
X0159991Y0109302D03*
X0159991Y0109525D03*
X0159991Y0109636D03*
X0159991Y0109747D03*
X0159991Y0109858D03*
X0159991Y0109969D03*
X0159991Y0110080D03*
X0159991Y0110191D03*
X0159991Y0110302D03*
X0159991Y0110525D03*
X0159991Y0110636D03*
X0159991Y0110747D03*
X0159991Y0110858D03*
X0159991Y0110969D03*
X0159991Y0111080D03*
X0159991Y0113525D03*
X0159991Y0113636D03*
X0159991Y0113747D03*
X0159991Y0113858D03*
X0159991Y0113969D03*
X0159991Y0114080D03*
X0159991Y0114191D03*
X0159991Y0114302D03*
X0159991Y0114525D03*
X0159991Y0114636D03*
X0159991Y0114747D03*
X0159991Y0114858D03*
X0159991Y0114969D03*
X0159991Y0115080D03*
X0159991Y0115191D03*
X0159991Y0115302D03*
X0174991Y0117636D03*
X0174991Y0106969D03*
D58*
X0166211Y0139191D03*
X0166321Y0152747D03*
X0166211Y0153747D03*
X0156771Y0076969D03*
X0156771Y0076858D03*
X0156771Y0076747D03*
X0156771Y0076636D03*
X0156771Y0076525D03*
X0156771Y0076302D03*
X0156771Y0076191D03*
X0156771Y0076080D03*
X0156771Y0075969D03*
X0156771Y0075858D03*
X0156771Y0075747D03*
X0156771Y0075636D03*
X0156771Y0075525D03*
X0156771Y0075302D03*
X0156771Y0075191D03*
D59*
X0156771Y0075413D03*
X0156771Y0076413D03*
D60*
X0181321Y0076413D03*
X0181321Y0075413D03*
D61*
X0191991Y0075413D03*
X0191991Y0076413D03*
X0159991Y0094413D03*
X0159991Y0095413D03*
X0159991Y0109413D03*
X0159991Y0110413D03*
X0159991Y0114413D03*
X0159991Y0115413D03*
D62*
X0140821Y0117636D03*
X0140821Y0077080D03*
X0187711Y0117636D03*
D63*
X0166211Y0139080D03*
X0166211Y0153858D03*
X0156881Y0077080D03*
D64*
X0162101Y0083525D03*
X0174881Y0087747D03*
X0192101Y0077080D03*
X0145101Y0100525D03*
X0140881Y0109080D03*
X0155101Y0130191D03*
X0157881Y0144525D03*
X0157881Y0144636D03*
X0173101Y0140858D03*
D65*
X0161046Y0112413D03*
X0161046Y0111413D03*
X0161046Y0106413D03*
X0161046Y0105413D03*
X0161046Y0100413D03*
X0161046Y0099413D03*
X0190936Y0091413D03*
X0190936Y0090413D03*
X0193046Y0078413D03*
X0193046Y0077413D03*
X0190936Y0107413D03*
X0190936Y0108413D03*
D66*
X0161051Y0100525D03*
X0135491Y0111191D03*
X0135491Y0083525D03*
X0193051Y0079191D03*
X0166161Y0157969D03*
D67*
X0140771Y0081302D03*
D68*
X0151491Y0081413D03*
X0151491Y0083413D03*
X0155711Y0113413D03*
X0151491Y0115413D03*
X0163931Y0131413D03*
X0173601Y0141413D03*
X0183711Y0135413D03*
X0172821Y0113413D03*
D69*
X0178266Y0098413D03*
X0163266Y0081413D03*
D70*
X0174936Y0086413D03*
X0174936Y0087413D03*
X0177046Y0081413D03*
X0174936Y0094413D03*
X0174936Y0095413D03*
X0174936Y0103413D03*
X0174936Y0104413D03*
X0174936Y0107413D03*
X0174936Y0108413D03*
X0174936Y0118413D03*
X0174936Y0119413D03*
X0160046Y0113413D03*
X0142936Y0104413D03*
X0142936Y0103413D03*
X0145046Y0100413D03*
X0194046Y0098413D03*
D71*
X0178101Y0097413D03*
X0178101Y0096413D03*
X0163211Y0083413D03*
X0163211Y0082413D03*
X0161101Y0092413D03*
X0161101Y0093413D03*
X0146101Y0093413D03*
X0146101Y0092413D03*
X0143991Y0101413D03*
X0143991Y0102413D03*
X0139771Y0105413D03*
X0139771Y0106413D03*
D72*
X0184491Y0083525D03*
D73*
X0184551Y0083636D03*
X0184551Y0083747D03*
X0184551Y0083858D03*
X0184551Y0083969D03*
X0184551Y0084080D03*
X0184551Y0084191D03*
X0184551Y0084302D03*
X0184551Y0084525D03*
X0184551Y0084636D03*
X0184551Y0084747D03*
X0184551Y0084858D03*
X0184551Y0084969D03*
X0184551Y0085080D03*
X0184551Y0085191D03*
X0184551Y0085302D03*
X0184551Y0085525D03*
D74*
X0184551Y0085413D03*
X0184551Y0084413D03*
D75*
X0137546Y0085636D03*
D76*
X0181381Y0085636D03*
X0155381Y0131525D03*
X0155381Y0134191D03*
X0158711Y0134191D03*
X0166271Y0141302D03*
X0137381Y0134191D03*
D77*
X0188826Y0085636D03*
D78*
X0137601Y0086413D03*
X0137601Y0087413D03*
D79*
X0149326Y0087747D03*
X0137436Y0134080D03*
X0157436Y0143191D03*
X0157436Y0143302D03*
X0159656Y0140858D03*
X0166326Y0141191D03*
X0172656Y0140525D03*
X0174656Y0144525D03*
D80*
X0175046Y0143525D03*
X0172826Y0140636D03*
X0166156Y0157302D03*
X0166156Y0162302D03*
X0140826Y0106969D03*
X0162156Y0087747D03*
D81*
X0167491Y0087747D03*
X0166491Y0137191D03*
D82*
X0163821Y0132969D03*
X0166271Y0142969D03*
X0166271Y0143080D03*
X0166271Y0143191D03*
X0166271Y0143302D03*
X0158711Y0141969D03*
X0158601Y0142080D03*
X0158601Y0142191D03*
X0158491Y0142302D03*
X0173821Y0141747D03*
X0183711Y0135525D03*
X0164711Y0158302D03*
X0164601Y0161302D03*
X0170711Y0096302D03*
X0181381Y0087747D03*
D83*
X0167491Y0087858D03*
X0167491Y0087969D03*
X0167491Y0088080D03*
X0167491Y0088191D03*
X0167491Y0088302D03*
X0167491Y0088525D03*
X0167491Y0088636D03*
X0167491Y0088747D03*
X0167491Y0088858D03*
X0167491Y0088969D03*
X0167491Y0089080D03*
X0167491Y0089191D03*
X0167491Y0089302D03*
X0167491Y0089525D03*
X0167491Y0089636D03*
X0167491Y0089747D03*
X0167491Y0089858D03*
D84*
X0167491Y0089413D03*
X0167491Y0088413D03*
D85*
X0147101Y0089858D03*
D86*
X0172771Y0089969D03*
X0159991Y0126080D03*
D87*
X0139826Y0104858D03*
X0143936Y0102636D03*
X0144046Y0100636D03*
X0146046Y0092080D03*
D88*
X0161046Y0092080D03*
D89*
X0144046Y0094191D03*
D90*
X0159991Y0094191D03*
X0174991Y0094191D03*
X0172991Y0140747D03*
D91*
X0139656Y0098413D03*
D92*
X0147326Y0098413D03*
D93*
X0170766Y0098413D03*
X0155436Y0131413D03*
X0133546Y0135413D03*
D94*
X0166271Y0141413D03*
X0185601Y0098413D03*
D95*
X0189881Y0098413D03*
X0157881Y0144413D03*
D96*
X0187716Y0128191D03*
X0187716Y0128080D03*
X0187716Y0127969D03*
X0187716Y0127858D03*
X0187716Y0127747D03*
X0187716Y0127636D03*
X0187716Y0127525D03*
X0187716Y0127302D03*
X0187716Y0127191D03*
X0187716Y0127080D03*
X0187716Y0126969D03*
X0187716Y0126858D03*
X0187716Y0126747D03*
X0187716Y0126636D03*
X0187716Y0126525D03*
X0187716Y0126302D03*
X0187716Y0126191D03*
X0187716Y0115302D03*
X0187716Y0115191D03*
X0187716Y0115080D03*
X0187716Y0114969D03*
X0187716Y0114858D03*
X0187716Y0114747D03*
X0187716Y0114636D03*
X0187716Y0114525D03*
X0187716Y0114302D03*
X0187716Y0114191D03*
X0187716Y0114080D03*
X0187716Y0113969D03*
X0187716Y0113858D03*
X0187716Y0113747D03*
X0187716Y0113636D03*
X0187716Y0113525D03*
X0187716Y0100525D03*
X0187716Y0100302D03*
X0187716Y0100191D03*
X0187716Y0100080D03*
X0187716Y0099969D03*
X0187716Y0099858D03*
X0187716Y0099747D03*
X0187716Y0099636D03*
X0187716Y0099525D03*
X0187716Y0099302D03*
X0187716Y0099191D03*
X0187716Y0099080D03*
X0187716Y0098969D03*
X0187716Y0098858D03*
X0187716Y0098747D03*
X0187716Y0098636D03*
X0187716Y0098525D03*
D97*
X0187716Y0099413D03*
X0187716Y0100413D03*
X0187716Y0114413D03*
X0187716Y0115413D03*
X0187716Y0126413D03*
X0187716Y0127413D03*
D98*
X0164271Y0119413D03*
X0164271Y0118413D03*
X0164271Y0117413D03*
X0164271Y0116413D03*
X0164271Y0115413D03*
X0164271Y0114413D03*
X0155711Y0100413D03*
D99*
X0164266Y0106969D03*
D100*
X0174936Y0109080D03*
X0174936Y0119747D03*
X0163936Y0131302D03*
X0164046Y0132858D03*
X0163936Y0134302D03*
X0173936Y0141858D03*
X0173936Y0141969D03*
X0174046Y0142080D03*
X0144046Y0134191D03*
D101*
X0141881Y0110413D03*
X0141881Y0109413D03*
D102*
X0140771Y0113413D03*
X0187771Y0113413D03*
D103*
X0157881Y0117747D03*
X0157881Y0117858D03*
X0157881Y0117969D03*
X0157881Y0118080D03*
X0157881Y0118191D03*
X0157881Y0118302D03*
X0157881Y0118525D03*
X0157881Y0118636D03*
X0157881Y0118747D03*
X0157881Y0118858D03*
X0157881Y0118969D03*
X0157881Y0119080D03*
X0157881Y0119191D03*
X0157881Y0119302D03*
X0157881Y0119525D03*
X0157881Y0119636D03*
X0157881Y0119747D03*
D104*
X0157881Y0119413D03*
X0157881Y0118413D03*
D105*
X0155101Y0129858D03*
X0163991Y0131191D03*
X0174881Y0145636D03*
X0167991Y0158636D03*
X0168101Y0158747D03*
X0168101Y0160969D03*
X0164101Y0160636D03*
X0163991Y0160525D03*
X0163991Y0160302D03*
X0163991Y0159302D03*
X0163991Y0159191D03*
X0164101Y0158969D03*
X0190881Y0134858D03*
D106*
X0181436Y0135636D03*
X0175326Y0134191D03*
X0181436Y0129858D03*
X0176326Y0142969D03*
X0157546Y0146191D03*
X0157546Y0146302D03*
X0152766Y0135747D03*
X0156326Y0134525D03*
X0144656Y0134080D03*
D107*
X0152826Y0134525D03*
X0156156Y0142747D03*
X0159826Y0143302D03*
X0162936Y0133636D03*
X0162936Y0132191D03*
X0174046Y0134525D03*
X0180826Y0134525D03*
X0180936Y0134747D03*
X0180936Y0134858D03*
X0181046Y0134969D03*
X0181156Y0135191D03*
X0180826Y0130969D03*
X0180936Y0130747D03*
X0181046Y0130525D03*
X0181156Y0130302D03*
X0191156Y0131191D03*
X0193156Y0133969D03*
X0191156Y0135636D03*
X0196826Y0135636D03*
X0196936Y0135525D03*
X0197046Y0135302D03*
X0197156Y0135191D03*
X0197156Y0135080D03*
X0197046Y0130191D03*
X0196936Y0130080D03*
X0196936Y0129969D03*
X0196826Y0129858D03*
D108*
X0174101Y0142191D03*
X0166101Y0157080D03*
X0155101Y0129969D03*
D109*
X0156271Y0130858D03*
X0157711Y0135747D03*
X0149271Y0135747D03*
X0136381Y0135747D03*
X0171711Y0134525D03*
X0172381Y0132525D03*
X0173271Y0132191D03*
X0173381Y0132525D03*
X0176601Y0135525D03*
X0176601Y0135636D03*
X0181381Y0135525D03*
X0183711Y0135747D03*
X0187271Y0135747D03*
X0180711Y0131302D03*
X0181271Y0130191D03*
X0181271Y0130080D03*
X0181381Y0129969D03*
X0197271Y0130636D03*
X0197381Y0130858D03*
X0197601Y0131525D03*
X0197601Y0134080D03*
X0197381Y0134636D03*
X0197271Y0134858D03*
X0197271Y0134969D03*
D110*
X0195266Y0135080D03*
X0195266Y0133525D03*
X0195266Y0131747D03*
X0193266Y0132191D03*
X0193156Y0132858D03*
X0193156Y0132969D03*
X0191156Y0132969D03*
X0191156Y0133080D03*
X0191156Y0133191D03*
X0191156Y0133302D03*
X0191156Y0133525D03*
X0191156Y0133636D03*
X0191156Y0133747D03*
X0191156Y0133858D03*
X0191156Y0133969D03*
X0191156Y0134080D03*
X0191156Y0134191D03*
X0191156Y0134302D03*
X0191156Y0134525D03*
X0191156Y0132858D03*
X0191156Y0132747D03*
X0191156Y0132636D03*
X0191156Y0132525D03*
X0191156Y0132302D03*
X0191156Y0132191D03*
X0191156Y0132080D03*
X0191156Y0131969D03*
X0191156Y0131858D03*
X0191156Y0131747D03*
X0191156Y0131636D03*
X0191156Y0131525D03*
X0191156Y0131302D03*
X0188156Y0131858D03*
X0188156Y0134969D03*
X0186156Y0134525D03*
X0184826Y0134747D03*
X0184716Y0134969D03*
X0184826Y0134191D03*
X0184716Y0133969D03*
X0184716Y0133858D03*
X0182826Y0135080D03*
X0182716Y0134969D03*
X0182826Y0131969D03*
X0182716Y0131858D03*
X0172826Y0131302D03*
X0171826Y0134080D03*
X0164826Y0133858D03*
X0164716Y0133969D03*
X0159826Y0133747D03*
X0159716Y0133858D03*
X0157826Y0133747D03*
X0157826Y0133636D03*
X0156266Y0133636D03*
X0156266Y0133525D03*
X0156266Y0132191D03*
X0156266Y0132080D03*
X0156266Y0131969D03*
X0156156Y0130525D03*
X0154266Y0130302D03*
X0154266Y0131747D03*
X0154156Y0131969D03*
X0154156Y0133747D03*
X0154266Y0133858D03*
X0149266Y0133858D03*
X0149266Y0133969D03*
X0149266Y0134080D03*
X0149266Y0134191D03*
X0149266Y0134302D03*
X0149266Y0134525D03*
X0149266Y0134636D03*
X0149266Y0134747D03*
X0149266Y0134858D03*
X0149266Y0134969D03*
X0149266Y0135080D03*
X0149266Y0135191D03*
X0149266Y0135302D03*
X0149266Y0135525D03*
X0149266Y0135636D03*
X0149266Y0133747D03*
X0149266Y0133636D03*
X0149266Y0133525D03*
X0149266Y0133302D03*
X0149266Y0133191D03*
X0149266Y0133080D03*
X0149266Y0132969D03*
X0149266Y0132858D03*
X0149266Y0132747D03*
X0149266Y0132636D03*
X0149266Y0132525D03*
X0149266Y0132302D03*
X0149266Y0132191D03*
X0149266Y0132080D03*
X0149266Y0131969D03*
X0149266Y0131858D03*
X0149266Y0131747D03*
X0139826Y0131747D03*
X0139826Y0131858D03*
X0139826Y0132302D03*
X0137716Y0134525D03*
X0134826Y0134858D03*
X0131826Y0134302D03*
X0131826Y0134191D03*
X0131716Y0133858D03*
X0131716Y0133747D03*
X0131716Y0133636D03*
X0131716Y0133525D03*
X0131716Y0133302D03*
X0131716Y0133191D03*
X0131716Y0133080D03*
X0131716Y0132969D03*
X0131826Y0132636D03*
X0131826Y0132525D03*
X0132156Y0131969D03*
X0170716Y0147080D03*
X0170826Y0147191D03*
X0170826Y0148858D03*
X0170716Y0148969D03*
D111*
X0174936Y0145969D03*
X0176376Y0135080D03*
X0175606Y0134525D03*
X0183376Y0132525D03*
X0190156Y0134525D03*
X0191046Y0135191D03*
X0195156Y0133636D03*
X0163156Y0133302D03*
X0157936Y0133858D03*
X0156156Y0133858D03*
X0156156Y0131747D03*
X0155936Y0130302D03*
X0143606Y0133969D03*
X0141046Y0134525D03*
X0136606Y0133858D03*
X0134606Y0135080D03*
X0132376Y0135080D03*
X0157606Y0145858D03*
X0163156Y0149191D03*
D112*
X0163771Y0148302D03*
X0163771Y0148191D03*
X0163771Y0148080D03*
X0163771Y0147969D03*
X0163771Y0147858D03*
X0163771Y0147747D03*
X0163771Y0147636D03*
X0168771Y0147636D03*
X0168771Y0147747D03*
X0168771Y0147858D03*
X0168771Y0147969D03*
X0168771Y0148080D03*
X0168771Y0148191D03*
X0168771Y0148302D03*
X0168771Y0148525D03*
X0168771Y0148636D03*
X0168771Y0148747D03*
X0168771Y0148858D03*
X0168771Y0148969D03*
X0168771Y0149080D03*
X0168771Y0149191D03*
X0168771Y0147525D03*
X0168771Y0147302D03*
X0168771Y0147191D03*
X0168771Y0147080D03*
X0168771Y0146969D03*
X0168771Y0146858D03*
X0170881Y0147302D03*
X0170991Y0147525D03*
X0170991Y0147636D03*
X0170991Y0147747D03*
X0170991Y0147858D03*
X0170991Y0147969D03*
X0170991Y0148080D03*
X0170991Y0148191D03*
X0170991Y0148302D03*
X0170991Y0148525D03*
X0170881Y0148636D03*
X0170881Y0148747D03*
X0174991Y0146302D03*
X0174991Y0146191D03*
X0176101Y0143191D03*
X0176211Y0143080D03*
X0181211Y0135302D03*
X0181101Y0135080D03*
X0180881Y0134636D03*
X0180771Y0134302D03*
X0180771Y0131191D03*
X0180771Y0131080D03*
X0180881Y0130858D03*
X0180991Y0130636D03*
X0184771Y0134080D03*
X0184881Y0134302D03*
X0184881Y0134525D03*
X0184881Y0134636D03*
X0184771Y0134858D03*
X0186101Y0134302D03*
X0186101Y0134191D03*
X0186101Y0134080D03*
X0186101Y0133969D03*
X0186101Y0133858D03*
X0186211Y0134636D03*
X0186211Y0134747D03*
X0186101Y0132969D03*
X0186101Y0132858D03*
X0186101Y0132747D03*
X0186101Y0132636D03*
X0186101Y0132525D03*
X0186211Y0132302D03*
X0186211Y0132191D03*
X0186211Y0132080D03*
X0188211Y0131969D03*
X0188211Y0134858D03*
X0189991Y0134302D03*
X0191211Y0135525D03*
X0193211Y0134525D03*
X0193211Y0134302D03*
X0193211Y0134191D03*
X0193211Y0134080D03*
X0193101Y0133858D03*
X0193211Y0132747D03*
X0193211Y0132636D03*
X0193211Y0132525D03*
X0193211Y0132302D03*
X0197101Y0130302D03*
X0197211Y0130525D03*
X0197771Y0131969D03*
X0197771Y0132080D03*
X0197771Y0132191D03*
X0197771Y0132302D03*
X0197771Y0132525D03*
X0197771Y0132636D03*
X0197771Y0132747D03*
X0197771Y0132858D03*
X0197771Y0132969D03*
X0197771Y0133080D03*
X0197771Y0133191D03*
X0197771Y0133302D03*
X0197771Y0133525D03*
X0173991Y0134191D03*
X0173991Y0134302D03*
X0173881Y0133969D03*
X0173881Y0133858D03*
X0173771Y0133747D03*
X0173771Y0133636D03*
X0173771Y0133525D03*
X0173211Y0132080D03*
X0173211Y0131969D03*
X0172881Y0131191D03*
X0172211Y0132858D03*
X0172211Y0132969D03*
X0172211Y0133080D03*
X0172101Y0133191D03*
X0172101Y0133302D03*
X0171991Y0133525D03*
X0171991Y0133636D03*
X0171881Y0133858D03*
X0171881Y0133969D03*
X0171771Y0134191D03*
X0171771Y0134302D03*
X0164881Y0133747D03*
X0164881Y0133636D03*
X0164991Y0132302D03*
X0164991Y0132191D03*
X0164991Y0132080D03*
X0164991Y0131969D03*
X0164991Y0131858D03*
X0162991Y0131858D03*
X0162881Y0132080D03*
X0162991Y0133525D03*
X0162991Y0133747D03*
X0162991Y0133858D03*
X0159881Y0133636D03*
X0159881Y0133525D03*
X0159881Y0133302D03*
X0159881Y0133191D03*
X0159881Y0133080D03*
X0159881Y0132969D03*
X0159881Y0132858D03*
X0159881Y0132747D03*
X0159881Y0132636D03*
X0159881Y0132525D03*
X0159881Y0132302D03*
X0159881Y0132191D03*
X0159881Y0132080D03*
X0159881Y0131969D03*
X0159881Y0131858D03*
X0159881Y0131747D03*
X0159881Y0131636D03*
X0159881Y0131525D03*
X0159881Y0131302D03*
X0159881Y0131191D03*
X0157771Y0131191D03*
X0157771Y0131302D03*
X0157771Y0131525D03*
X0157771Y0131636D03*
X0157771Y0131747D03*
X0157771Y0131858D03*
X0157771Y0131969D03*
X0157771Y0132080D03*
X0157771Y0132191D03*
X0157771Y0132302D03*
X0157771Y0132525D03*
X0157771Y0132636D03*
X0157771Y0132747D03*
X0157771Y0132858D03*
X0157771Y0132969D03*
X0157771Y0133080D03*
X0157771Y0133191D03*
X0157771Y0133302D03*
X0157771Y0133525D03*
X0157771Y0134302D03*
X0157771Y0134525D03*
X0157771Y0134636D03*
X0157771Y0134747D03*
X0157771Y0134858D03*
X0157771Y0134969D03*
X0157771Y0135080D03*
X0157771Y0135191D03*
X0157771Y0135302D03*
X0157771Y0135525D03*
X0157771Y0135636D03*
X0155101Y0134525D03*
X0154101Y0133636D03*
X0154101Y0133525D03*
X0153991Y0133302D03*
X0153991Y0133191D03*
X0153991Y0133080D03*
X0153991Y0132969D03*
X0153991Y0132858D03*
X0153991Y0132747D03*
X0153991Y0132636D03*
X0153991Y0132525D03*
X0153991Y0132302D03*
X0154101Y0132080D03*
X0154211Y0131858D03*
X0154101Y0130636D03*
X0154101Y0130525D03*
X0152771Y0131191D03*
X0152771Y0131302D03*
X0152771Y0131525D03*
X0152771Y0131636D03*
X0152771Y0131747D03*
X0152771Y0131858D03*
X0152771Y0131969D03*
X0152771Y0132080D03*
X0152771Y0132191D03*
X0152771Y0132302D03*
X0152771Y0132525D03*
X0152771Y0132636D03*
X0152771Y0132747D03*
X0152771Y0132858D03*
X0152771Y0132969D03*
X0152771Y0133080D03*
X0152771Y0133191D03*
X0152771Y0133302D03*
X0152771Y0133525D03*
X0152771Y0133636D03*
X0152771Y0133747D03*
X0152771Y0133858D03*
X0152771Y0133969D03*
X0152771Y0134080D03*
X0152771Y0134191D03*
X0152771Y0134302D03*
X0152771Y0135191D03*
X0152771Y0135302D03*
X0152771Y0135525D03*
X0152771Y0135636D03*
X0156211Y0130747D03*
X0156211Y0130636D03*
X0145771Y0131747D03*
X0145771Y0131858D03*
X0145771Y0131969D03*
X0145771Y0132080D03*
X0145771Y0132191D03*
X0145771Y0132302D03*
X0145771Y0132525D03*
X0145771Y0132636D03*
X0145771Y0132747D03*
X0145771Y0132858D03*
X0145771Y0132969D03*
X0145771Y0133080D03*
X0145771Y0133191D03*
X0145771Y0133302D03*
X0145771Y0133525D03*
X0145771Y0133636D03*
X0145771Y0133747D03*
X0145771Y0133858D03*
X0145771Y0133969D03*
X0145771Y0134636D03*
X0145771Y0134747D03*
X0145771Y0134858D03*
X0145771Y0134969D03*
X0145771Y0135080D03*
X0145771Y0135191D03*
X0145771Y0135302D03*
X0141991Y0133747D03*
X0139991Y0133858D03*
X0139881Y0133747D03*
X0139881Y0133636D03*
X0139771Y0132191D03*
X0139771Y0132080D03*
X0139771Y0131969D03*
X0142101Y0131302D03*
X0142211Y0131191D03*
X0135101Y0132525D03*
X0134991Y0134525D03*
X0131771Y0134080D03*
X0131771Y0133969D03*
X0131771Y0132858D03*
X0131771Y0132747D03*
D113*
X0131716Y0133413D03*
X0149266Y0133413D03*
X0149266Y0134413D03*
X0149266Y0135413D03*
X0149266Y0132413D03*
X0154156Y0130413D03*
X0171716Y0134413D03*
X0191156Y0134413D03*
X0191156Y0133413D03*
X0191156Y0132413D03*
X0191156Y0131413D03*
X0191156Y0135413D03*
D114*
X0186046Y0133413D03*
X0172046Y0133413D03*
X0163046Y0133413D03*
X0156046Y0130413D03*
X0142046Y0132413D03*
X0142046Y0133413D03*
X0139936Y0132413D03*
X0135046Y0132413D03*
D115*
X0134991Y0134413D03*
X0131881Y0134413D03*
X0131881Y0132413D03*
X0142101Y0131413D03*
X0145771Y0132413D03*
X0145771Y0133413D03*
X0152771Y0133413D03*
X0152771Y0134413D03*
X0152771Y0135413D03*
X0153991Y0133413D03*
X0153991Y0132413D03*
X0152771Y0132413D03*
X0152771Y0131413D03*
X0157771Y0131413D03*
X0157771Y0132413D03*
X0157771Y0133413D03*
X0157771Y0134413D03*
X0157771Y0135413D03*
X0159881Y0133413D03*
X0159881Y0132413D03*
X0159881Y0131413D03*
X0174101Y0134413D03*
X0180771Y0134413D03*
X0181101Y0130413D03*
X0186101Y0132413D03*
X0186101Y0134413D03*
X0184881Y0134413D03*
X0193211Y0134413D03*
X0193211Y0132413D03*
X0197771Y0132413D03*
X0197771Y0133413D03*
X0170881Y0147413D03*
X0170991Y0148413D03*
X0168771Y0148413D03*
X0168771Y0147413D03*
X0163771Y0148413D03*
D116*
X0145826Y0135413D03*
X0196936Y0135413D03*
X0197156Y0130413D03*
D117*
X0153991Y0130747D03*
D118*
X0156326Y0130969D03*
X0156326Y0131080D03*
X0156326Y0131191D03*
X0156326Y0131302D03*
X0156326Y0132302D03*
X0156326Y0132525D03*
X0156326Y0132636D03*
X0156326Y0132747D03*
X0156326Y0132858D03*
X0156326Y0132969D03*
X0156326Y0133080D03*
X0156326Y0133191D03*
X0156326Y0133302D03*
X0156326Y0134302D03*
X0161436Y0134636D03*
X0161436Y0134747D03*
X0161436Y0134858D03*
X0161436Y0134969D03*
X0161436Y0135080D03*
X0161436Y0135191D03*
X0161436Y0135302D03*
X0161436Y0133969D03*
X0161436Y0133858D03*
X0161436Y0133747D03*
X0161436Y0133636D03*
X0161436Y0133525D03*
X0161436Y0133302D03*
X0161436Y0133191D03*
X0161436Y0133080D03*
X0161436Y0132969D03*
X0161436Y0132858D03*
X0161436Y0132747D03*
X0161436Y0132636D03*
X0161436Y0132525D03*
X0161436Y0132302D03*
X0161436Y0132191D03*
X0161436Y0132080D03*
X0161436Y0131969D03*
X0161436Y0131858D03*
X0161436Y0131747D03*
X0156326Y0142858D03*
X0157546Y0146080D03*
X0161546Y0146858D03*
X0161546Y0146969D03*
X0161546Y0147080D03*
X0161546Y0147191D03*
X0161546Y0147302D03*
X0161546Y0147525D03*
X0161546Y0147636D03*
X0161546Y0147747D03*
X0161546Y0147858D03*
X0161546Y0147969D03*
X0161546Y0148080D03*
X0161546Y0148191D03*
X0161546Y0148302D03*
X0161546Y0148525D03*
X0161546Y0148636D03*
X0161546Y0148747D03*
X0161546Y0148858D03*
X0161546Y0148969D03*
X0161546Y0149080D03*
X0161546Y0149191D03*
X0163546Y0148858D03*
X0163656Y0148636D03*
X0163656Y0148525D03*
X0163656Y0147525D03*
X0163546Y0147191D03*
X0176546Y0134525D03*
X0176546Y0134302D03*
X0176546Y0134191D03*
X0176546Y0134080D03*
X0176546Y0133969D03*
X0176546Y0133858D03*
X0176546Y0133747D03*
X0176546Y0133636D03*
X0176546Y0133525D03*
X0176546Y0133302D03*
X0176546Y0133191D03*
X0176546Y0133080D03*
X0176546Y0132969D03*
X0176546Y0132858D03*
X0176546Y0132747D03*
X0176546Y0132636D03*
X0176546Y0132525D03*
X0176546Y0132302D03*
X0176546Y0132191D03*
X0176546Y0132080D03*
X0176546Y0131969D03*
X0176546Y0131858D03*
X0176546Y0131747D03*
X0176546Y0131636D03*
X0176546Y0131525D03*
X0176546Y0131302D03*
X0176546Y0131191D03*
X0175436Y0134302D03*
X0173656Y0133302D03*
X0173656Y0133191D03*
X0173546Y0133080D03*
X0173546Y0132969D03*
X0173436Y0132747D03*
X0173436Y0132636D03*
X0173326Y0132302D03*
X0172546Y0132080D03*
X0172546Y0131969D03*
X0172436Y0132302D03*
X0172326Y0132636D03*
X0172326Y0132747D03*
X0180546Y0133191D03*
X0180546Y0133302D03*
X0180546Y0133525D03*
X0180546Y0133636D03*
X0180546Y0133747D03*
X0180656Y0133858D03*
X0180656Y0133969D03*
X0180656Y0134080D03*
X0180656Y0134191D03*
X0180546Y0132302D03*
X0180546Y0132191D03*
X0180546Y0132080D03*
X0180546Y0131969D03*
X0180546Y0131858D03*
X0180546Y0131747D03*
X0180656Y0131636D03*
X0180656Y0131525D03*
X0182546Y0134525D03*
X0182546Y0134636D03*
X0182656Y0134858D03*
X0186326Y0134858D03*
X0186326Y0134969D03*
X0188326Y0134747D03*
X0188326Y0134636D03*
X0188326Y0134525D03*
X0188436Y0134302D03*
X0188436Y0134191D03*
X0188436Y0134080D03*
X0188436Y0133969D03*
X0188436Y0133858D03*
X0188436Y0133747D03*
X0188436Y0133636D03*
X0188436Y0133302D03*
X0188436Y0133191D03*
X0188436Y0133080D03*
X0188436Y0132969D03*
X0188436Y0132858D03*
X0188436Y0132747D03*
X0188436Y0132636D03*
X0188436Y0132525D03*
X0188326Y0132302D03*
X0188326Y0132191D03*
X0188326Y0132080D03*
X0186326Y0131969D03*
X0193326Y0132080D03*
X0195436Y0132080D03*
X0195436Y0131969D03*
X0195546Y0132191D03*
X0195546Y0132302D03*
X0195546Y0132525D03*
X0195546Y0132636D03*
X0195546Y0132747D03*
X0195546Y0132858D03*
X0195546Y0132969D03*
X0195546Y0133080D03*
X0195436Y0133302D03*
X0195436Y0134747D03*
X0195436Y0134858D03*
X0197326Y0134747D03*
X0197436Y0134525D03*
X0197546Y0134302D03*
X0197546Y0134191D03*
X0197656Y0133969D03*
X0197656Y0133858D03*
X0197656Y0133747D03*
X0197656Y0133636D03*
X0197656Y0131858D03*
X0197656Y0131747D03*
X0197656Y0131636D03*
X0197546Y0131302D03*
X0197436Y0131080D03*
X0197436Y0130969D03*
X0197326Y0130747D03*
X0193326Y0134636D03*
X0193326Y0134747D03*
X0193436Y0134858D03*
X0143436Y0134302D03*
X0143436Y0132969D03*
X0143436Y0132858D03*
X0143436Y0132747D03*
X0143436Y0132636D03*
X0143436Y0132525D03*
X0143436Y0132302D03*
X0143436Y0132191D03*
X0143436Y0132080D03*
X0143436Y0131969D03*
X0143436Y0131858D03*
X0143436Y0131747D03*
X0143436Y0131636D03*
X0143436Y0131525D03*
X0143436Y0131302D03*
X0143436Y0131191D03*
X0138546Y0131191D03*
X0138546Y0131302D03*
X0138546Y0131525D03*
X0138546Y0131636D03*
X0138546Y0131747D03*
X0138546Y0131858D03*
X0138546Y0131969D03*
X0138546Y0132080D03*
X0138546Y0132191D03*
X0138546Y0132302D03*
X0138546Y0132525D03*
X0138546Y0132636D03*
X0138546Y0132747D03*
X0138546Y0132858D03*
X0138546Y0132969D03*
X0138546Y0133080D03*
X0138546Y0133191D03*
X0138546Y0133302D03*
X0138546Y0133525D03*
X0138546Y0133636D03*
X0136436Y0133525D03*
X0136436Y0133302D03*
X0136436Y0133191D03*
X0136436Y0133080D03*
X0136436Y0132969D03*
X0136436Y0132858D03*
X0136436Y0132747D03*
X0136436Y0132636D03*
X0136436Y0132525D03*
X0136436Y0132302D03*
X0136436Y0132191D03*
X0136436Y0132080D03*
X0136436Y0131969D03*
X0136436Y0131858D03*
X0136436Y0131747D03*
X0136436Y0131636D03*
X0136436Y0131525D03*
X0136436Y0131302D03*
X0136436Y0131191D03*
X0136436Y0134302D03*
X0136436Y0134525D03*
X0136436Y0134636D03*
X0136436Y0134747D03*
X0136436Y0134858D03*
X0136436Y0134969D03*
X0136436Y0135080D03*
X0136436Y0135191D03*
X0136436Y0135302D03*
X0136436Y0135525D03*
X0136436Y0135636D03*
X0133546Y0135747D03*
D119*
X0133491Y0131191D03*
X0164491Y0132636D03*
X0193491Y0133636D03*
X0194491Y0133969D03*
D120*
X0193376Y0133525D03*
X0190936Y0134969D03*
X0187266Y0135636D03*
X0187266Y0131191D03*
X0176266Y0134858D03*
X0166376Y0136747D03*
X0164716Y0132525D03*
X0163376Y0133191D03*
X0161716Y0131525D03*
X0156046Y0131636D03*
X0146046Y0131525D03*
X0143716Y0134080D03*
X0141716Y0134080D03*
X0140606Y0131191D03*
X0132606Y0135191D03*
X0157606Y0145636D03*
X0161936Y0146302D03*
X0169156Y0146302D03*
X0168156Y0158858D03*
X0168266Y0158969D03*
X0168266Y0159080D03*
X0168376Y0159191D03*
X0168376Y0159302D03*
X0168376Y0160191D03*
X0168376Y0160302D03*
X0168376Y0160525D03*
X0168266Y0160636D03*
X0163936Y0160191D03*
X0163936Y0160080D03*
X0163936Y0159969D03*
X0163936Y0159858D03*
X0163936Y0159747D03*
X0163936Y0159636D03*
X0163936Y0159525D03*
D121*
X0163321Y0149080D03*
X0163211Y0146858D03*
X0168881Y0146747D03*
X0172991Y0143525D03*
X0175991Y0143302D03*
X0182881Y0135191D03*
X0184661Y0135080D03*
X0184211Y0133302D03*
X0184101Y0133191D03*
X0183991Y0133080D03*
X0183881Y0132969D03*
X0183771Y0132858D03*
X0183661Y0132747D03*
X0183101Y0132302D03*
X0182991Y0132191D03*
X0182661Y0131747D03*
X0182661Y0131636D03*
X0187991Y0131636D03*
X0187991Y0135191D03*
X0191101Y0135302D03*
X0193661Y0135191D03*
X0195211Y0135191D03*
X0193211Y0133191D03*
X0193211Y0133080D03*
X0193661Y0131636D03*
X0195101Y0131636D03*
X0172881Y0131525D03*
X0164771Y0131636D03*
X0163211Y0131636D03*
X0161881Y0131191D03*
X0159661Y0133969D03*
X0156211Y0133747D03*
X0156211Y0131858D03*
X0149321Y0131636D03*
X0146211Y0131191D03*
X0145881Y0131636D03*
X0145771Y0134080D03*
X0141991Y0131969D03*
X0141991Y0131858D03*
X0139991Y0131636D03*
X0138321Y0133969D03*
X0134881Y0134747D03*
X0134771Y0134969D03*
X0132211Y0134969D03*
X0132101Y0134858D03*
X0134881Y0132080D03*
X0134771Y0131969D03*
X0141881Y0133969D03*
X0163881Y0134525D03*
D122*
X0160046Y0140525D03*
X0157936Y0144191D03*
X0150376Y0131525D03*
X0150376Y0131302D03*
X0150376Y0131191D03*
X0174606Y0144191D03*
X0166156Y0162191D03*
D123*
X0168431Y0160080D03*
X0168431Y0159969D03*
X0168431Y0159858D03*
X0168431Y0159747D03*
X0168431Y0159636D03*
X0168431Y0159525D03*
X0174881Y0145858D03*
X0174881Y0145747D03*
X0176321Y0134969D03*
X0172881Y0131858D03*
X0172881Y0131747D03*
X0172881Y0131636D03*
X0164551Y0134080D03*
X0161771Y0131302D03*
X0157991Y0133969D03*
X0156101Y0133969D03*
X0154551Y0134080D03*
X0155101Y0131191D03*
X0146101Y0131302D03*
X0141881Y0131747D03*
X0140101Y0132525D03*
X0136661Y0133969D03*
X0134431Y0135191D03*
X0134551Y0131747D03*
X0132431Y0131747D03*
X0157661Y0145747D03*
X0190991Y0135080D03*
X0194431Y0131191D03*
D124*
X0183661Y0131191D03*
X0183661Y0131302D03*
X0174551Y0144080D03*
X0166321Y0140858D03*
X0166431Y0136969D03*
X0157991Y0144080D03*
X0166101Y0157525D03*
D125*
X0144491Y0134525D03*
X0143491Y0134525D03*
X0172491Y0132191D03*
X0173491Y0132858D03*
X0194491Y0135747D03*
X0195491Y0134636D03*
X0197491Y0131191D03*
D126*
X0174216Y0142302D03*
X0174326Y0142636D03*
X0174766Y0145191D03*
X0174766Y0145302D03*
X0166216Y0144302D03*
X0166216Y0144191D03*
X0166216Y0144080D03*
X0166216Y0143969D03*
X0166216Y0143858D03*
X0166216Y0143747D03*
X0166216Y0143636D03*
X0166216Y0143525D03*
X0158326Y0142636D03*
X0158326Y0142525D03*
X0157766Y0145080D03*
X0157766Y0145191D03*
X0164216Y0132747D03*
X0140656Y0131302D03*
X0167766Y0161302D03*
D127*
X0167881Y0161191D03*
X0166211Y0148525D03*
X0166211Y0148302D03*
X0166211Y0148191D03*
X0166211Y0148080D03*
X0166211Y0147969D03*
X0166211Y0147858D03*
X0166211Y0147747D03*
X0166211Y0147636D03*
X0166211Y0147525D03*
X0166211Y0147302D03*
X0166211Y0147191D03*
X0166211Y0147080D03*
X0166211Y0146969D03*
X0166211Y0146858D03*
X0166211Y0146747D03*
X0166211Y0146636D03*
X0166211Y0146525D03*
X0166211Y0146302D03*
X0166211Y0146191D03*
X0166211Y0146080D03*
X0166211Y0145969D03*
X0166211Y0145858D03*
X0166211Y0145747D03*
X0166211Y0145636D03*
X0166211Y0145525D03*
X0166211Y0145302D03*
X0166211Y0145191D03*
X0166211Y0145080D03*
X0170101Y0146747D03*
X0155101Y0131302D03*
X0145771Y0134525D03*
X0190771Y0134747D03*
D128*
X0190711Y0134636D03*
X0187271Y0135525D03*
X0187271Y0131302D03*
X0194491Y0135525D03*
X0174381Y0142747D03*
X0174381Y0142858D03*
X0174491Y0143080D03*
X0174271Y0142525D03*
X0166271Y0144525D03*
X0166271Y0144636D03*
X0166271Y0144747D03*
X0166271Y0144858D03*
X0166271Y0144969D03*
X0169381Y0149636D03*
X0167601Y0158302D03*
X0164491Y0161191D03*
X0157711Y0145302D03*
X0158271Y0142747D03*
X0161491Y0134525D03*
X0161491Y0134302D03*
X0161491Y0134191D03*
X0163601Y0133080D03*
X0140491Y0132636D03*
X0137711Y0134302D03*
D129*
X0133546Y0135636D03*
X0164326Y0158636D03*
X0164436Y0158525D03*
X0164326Y0161080D03*
X0174546Y0143302D03*
X0174546Y0143191D03*
X0174436Y0142969D03*
X0168436Y0133080D03*
X0194436Y0131302D03*
D130*
X0157491Y0143413D03*
X0133491Y0131413D03*
D131*
X0136436Y0131413D03*
X0136436Y0132413D03*
X0136436Y0133413D03*
X0136436Y0134413D03*
X0136436Y0135413D03*
X0138546Y0133413D03*
X0138546Y0132413D03*
X0138546Y0131413D03*
X0143436Y0131413D03*
X0143436Y0132413D03*
X0143436Y0134413D03*
X0156326Y0134413D03*
X0156326Y0133413D03*
X0156326Y0132413D03*
X0161436Y0132413D03*
X0161436Y0133413D03*
X0172436Y0132413D03*
X0173326Y0132413D03*
X0173656Y0133413D03*
X0176546Y0133413D03*
X0176546Y0134413D03*
X0176546Y0135413D03*
X0176546Y0132413D03*
X0176546Y0131413D03*
X0180656Y0131413D03*
X0180546Y0133413D03*
X0182546Y0134413D03*
X0188436Y0134413D03*
X0188436Y0132413D03*
X0195546Y0132413D03*
X0197546Y0131413D03*
X0163656Y0147413D03*
X0161546Y0147413D03*
X0161546Y0148413D03*
D132*
X0140656Y0131413D03*
X0194436Y0131413D03*
X0194436Y0135413D03*
D133*
X0161771Y0131413D03*
X0159551Y0143413D03*
X0146101Y0131413D03*
D134*
X0150376Y0131413D03*
D135*
X0164881Y0132413D03*
X0172881Y0131413D03*
X0183211Y0132413D03*
X0184321Y0133413D03*
X0190101Y0134413D03*
X0175881Y0143413D03*
D136*
X0183661Y0131413D03*
X0160211Y0140413D03*
D137*
X0166271Y0152413D03*
X0167601Y0161413D03*
X0166161Y0162413D03*
X0187271Y0135413D03*
X0187271Y0131413D03*
D138*
X0133491Y0131525D03*
X0133491Y0135302D03*
D139*
X0140991Y0131525D03*
D140*
X0166266Y0140969D03*
X0183716Y0131525D03*
D141*
X0157661Y0145525D03*
X0168211Y0160747D03*
X0168211Y0160858D03*
X0141771Y0133080D03*
X0141771Y0131636D03*
X0134321Y0131636D03*
X0132661Y0131636D03*
D142*
X0143546Y0133747D03*
X0143546Y0133858D03*
X0154436Y0131636D03*
X0161546Y0131636D03*
X0161436Y0134080D03*
X0176436Y0135191D03*
X0184546Y0135191D03*
X0184546Y0133636D03*
X0184436Y0133525D03*
X0186546Y0131636D03*
X0193546Y0131747D03*
X0170436Y0149191D03*
D143*
X0174936Y0146080D03*
X0188046Y0135080D03*
X0186046Y0133747D03*
X0186046Y0133636D03*
X0186046Y0133525D03*
X0186046Y0133302D03*
X0186046Y0133191D03*
X0186046Y0133080D03*
X0188046Y0131747D03*
X0182936Y0132080D03*
X0173936Y0134080D03*
X0171936Y0133747D03*
X0164936Y0131747D03*
X0163046Y0131747D03*
X0162936Y0131969D03*
X0163046Y0133969D03*
X0159046Y0134525D03*
X0154046Y0132191D03*
X0142046Y0132191D03*
X0142046Y0132302D03*
X0142046Y0132525D03*
X0142046Y0132636D03*
X0142046Y0133191D03*
X0142046Y0133302D03*
X0142046Y0133525D03*
X0142046Y0133636D03*
X0141936Y0133858D03*
X0142046Y0132080D03*
X0140046Y0133969D03*
X0134936Y0134636D03*
X0135046Y0132302D03*
X0134936Y0132191D03*
X0132046Y0132191D03*
X0132046Y0132080D03*
X0131936Y0132302D03*
X0131936Y0134525D03*
X0131936Y0134636D03*
X0132046Y0134747D03*
D144*
X0136491Y0133747D03*
X0136491Y0133636D03*
X0138381Y0133858D03*
X0138491Y0133747D03*
X0143491Y0133636D03*
X0143491Y0133525D03*
X0143491Y0133302D03*
X0143491Y0133191D03*
X0143491Y0133080D03*
X0154381Y0133969D03*
X0156381Y0142969D03*
X0157601Y0145969D03*
X0163381Y0146969D03*
X0163491Y0147080D03*
X0163601Y0147302D03*
X0163601Y0148747D03*
X0163491Y0148969D03*
X0170601Y0149080D03*
X0170601Y0146969D03*
X0176491Y0135302D03*
X0180491Y0133080D03*
X0180491Y0132969D03*
X0180491Y0132858D03*
X0180491Y0132747D03*
X0180491Y0132636D03*
X0180491Y0132525D03*
X0182601Y0134747D03*
X0184601Y0133747D03*
X0186381Y0135080D03*
X0186491Y0135191D03*
X0188491Y0133525D03*
X0186491Y0131747D03*
X0186381Y0131858D03*
X0193381Y0131969D03*
X0193491Y0131858D03*
X0195381Y0131858D03*
X0195491Y0133191D03*
X0195381Y0134969D03*
X0193601Y0135080D03*
X0193491Y0134969D03*
D145*
X0193266Y0133302D03*
X0163266Y0134080D03*
X0140266Y0134080D03*
X0134716Y0131858D03*
X0132266Y0131858D03*
D146*
X0143491Y0133413D03*
X0175491Y0134413D03*
X0180491Y0132413D03*
X0188491Y0133413D03*
X0195381Y0133413D03*
D147*
X0156046Y0142636D03*
X0139936Y0133525D03*
X0134936Y0132636D03*
D148*
X0168436Y0132636D03*
X0168436Y0132747D03*
X0168436Y0132858D03*
X0168436Y0132969D03*
X0194546Y0133858D03*
D149*
X0194491Y0134080D03*
X0183491Y0132636D03*
X0170491Y0146858D03*
X0156491Y0143080D03*
D150*
X0159771Y0140747D03*
X0158771Y0134080D03*
X0141101Y0132747D03*
D151*
X0193266Y0133413D03*
D152*
X0196821Y0135747D03*
X0166161Y0162525D03*
X0164821Y0133525D03*
D153*
X0166266Y0141080D03*
X0145266Y0134302D03*
X0194156Y0133747D03*
D154*
X0183716Y0135636D03*
X0176156Y0134747D03*
X0174826Y0145525D03*
X0166266Y0148636D03*
X0166266Y0148747D03*
X0166266Y0148858D03*
X0166266Y0148969D03*
X0166266Y0149080D03*
X0166266Y0149191D03*
X0166266Y0149302D03*
X0166266Y0149525D03*
X0166266Y0149636D03*
X0166266Y0149747D03*
X0166266Y0149858D03*
X0166266Y0149969D03*
X0166266Y0150080D03*
X0166266Y0150191D03*
X0166266Y0150302D03*
X0166266Y0150525D03*
X0166266Y0150636D03*
X0166266Y0150747D03*
X0166266Y0150858D03*
X0166266Y0150969D03*
X0166266Y0151080D03*
X0166266Y0151191D03*
X0166266Y0151302D03*
X0166266Y0151525D03*
X0166266Y0151636D03*
X0166266Y0151747D03*
X0166266Y0151858D03*
X0166266Y0151969D03*
X0166266Y0152080D03*
X0166266Y0152191D03*
X0166266Y0152302D03*
X0166156Y0154302D03*
X0166156Y0154525D03*
X0166156Y0154636D03*
X0166156Y0154747D03*
X0166156Y0154858D03*
X0166156Y0154969D03*
X0166156Y0155080D03*
X0166156Y0155191D03*
X0166156Y0155302D03*
X0166156Y0155525D03*
X0166156Y0155636D03*
X0166156Y0155747D03*
X0166156Y0155858D03*
X0166156Y0155969D03*
X0166156Y0156080D03*
X0166156Y0156191D03*
X0166156Y0156302D03*
X0166156Y0156525D03*
X0166156Y0156636D03*
X0166156Y0156747D03*
X0166156Y0156858D03*
X0166156Y0156969D03*
X0167936Y0158525D03*
X0168046Y0161080D03*
X0164266Y0160969D03*
X0164156Y0160858D03*
X0164156Y0160747D03*
X0164046Y0159080D03*
X0164156Y0158858D03*
X0164266Y0158747D03*
X0155936Y0134080D03*
D155*
X0155046Y0134302D03*
X0159046Y0134302D03*
X0158156Y0142858D03*
X0158156Y0142969D03*
X0158046Y0143080D03*
X0162046Y0149636D03*
X0176046Y0134636D03*
X0145826Y0134191D03*
D156*
X0189881Y0134191D03*
D157*
X0137661Y0134413D03*
D158*
X0141046Y0134413D03*
X0174826Y0145413D03*
D159*
X0145326Y0134413D03*
D160*
X0155101Y0134413D03*
X0158991Y0134413D03*
X0163991Y0159413D03*
X0163991Y0160413D03*
D161*
X0161491Y0134413D03*
D162*
X0163881Y0134413D03*
X0166211Y0145413D03*
X0166211Y0146413D03*
X0166211Y0147413D03*
X0166211Y0148413D03*
X0167771Y0158413D03*
D163*
X0161491Y0135413D03*
X0197491Y0134413D03*
D164*
X0181271Y0135413D03*
X0172711Y0143413D03*
D165*
X0176656Y0135747D03*
X0181436Y0135747D03*
X0191216Y0135747D03*
X0166326Y0136636D03*
X0145876Y0135525D03*
D166*
X0161601Y0135525D03*
X0176381Y0142858D03*
D167*
X0194436Y0135636D03*
D168*
X0166436Y0137080D03*
X0166326Y0140525D03*
X0166106Y0161858D03*
D169*
X0166491Y0137302D03*
D170*
X0166491Y0137413D03*
D171*
X0166376Y0137525D03*
D172*
X0166381Y0137636D03*
D173*
X0166326Y0137747D03*
D174*
X0166211Y0137969D03*
D175*
X0166156Y0138080D03*
D176*
X0166161Y0138191D03*
D177*
X0166216Y0138302D03*
D178*
X0166156Y0138525D03*
D179*
X0166156Y0138636D03*
D180*
X0166216Y0138747D03*
D181*
X0166161Y0138858D03*
D182*
X0166161Y0138969D03*
D183*
X0166211Y0139413D03*
D184*
X0166271Y0139525D03*
D185*
X0166271Y0139636D03*
D186*
X0166271Y0139747D03*
D187*
X0166271Y0139858D03*
D188*
X0166271Y0139969D03*
D189*
X0160711Y0140191D03*
X0174491Y0143636D03*
D190*
X0166546Y0140191D03*
D191*
X0171936Y0140191D03*
X0158046Y0143636D03*
X0166156Y0157747D03*
D192*
X0174546Y0143969D03*
X0160436Y0140302D03*
D193*
X0166376Y0140302D03*
D194*
X0172266Y0140302D03*
D195*
X0172491Y0140413D03*
X0174601Y0144413D03*
D196*
X0159936Y0140636D03*
X0157936Y0144302D03*
D197*
X0166326Y0140636D03*
D198*
X0166321Y0140747D03*
D199*
X0158436Y0142413D03*
X0164546Y0158413D03*
D200*
X0164766Y0161413D03*
X0166216Y0142413D03*
D201*
X0166216Y0143413D03*
X0166216Y0144413D03*
X0169326Y0146413D03*
X0174216Y0142413D03*
D202*
X0174546Y0143413D03*
D203*
X0158101Y0143525D03*
X0166101Y0161969D03*
D204*
X0166156Y0162080D03*
X0166156Y0157636D03*
X0158046Y0143747D03*
D205*
X0174436Y0143747D03*
D206*
X0157991Y0143858D03*
X0157991Y0143969D03*
D207*
X0174491Y0143858D03*
D208*
X0174546Y0144302D03*
D209*
X0166266Y0149413D03*
X0166266Y0150413D03*
X0166266Y0151413D03*
X0166156Y0154413D03*
X0166156Y0155413D03*
X0166156Y0156413D03*
X0157716Y0145413D03*
D210*
X0162101Y0146413D03*
D211*
X0174991Y0146413D03*
D212*
X0174991Y0146525D03*
D213*
X0166326Y0152525D03*
X0166216Y0153969D03*
D214*
X0166326Y0152636D03*
D215*
X0166266Y0153191D03*
X0166266Y0153302D03*
D216*
X0166266Y0153413D03*
D217*
X0166266Y0153636D03*
D218*
X0166216Y0154080D03*
D219*
X0166046Y0154191D03*
D220*
X0166101Y0157413D03*
D221*
X0166161Y0157858D03*
D222*
X0168376Y0159413D03*
X0168376Y0160413D03*
D223*
X0166101Y0161525D03*
D224*
X0218800Y0146324D02*
X0218802Y0146255D01*
X0218808Y0146187D01*
X0218818Y0146119D01*
X0218831Y0146052D01*
X0218849Y0145986D01*
X0218870Y0145921D01*
X0218895Y0145857D01*
X0218923Y0145795D01*
X0218955Y0145734D01*
X0218990Y0145675D01*
X0219029Y0145619D01*
X0219071Y0145564D01*
X0219116Y0145513D01*
X0219164Y0145463D01*
X0219214Y0145417D01*
X0219267Y0145374D01*
X0219323Y0145333D01*
X0219380Y0145296D01*
X0219440Y0145263D01*
X0219502Y0145232D01*
X0219565Y0145206D01*
X0219629Y0145183D01*
X0219695Y0145163D01*
X0219762Y0145148D01*
X0219829Y0145136D01*
X0219897Y0145128D01*
X0219966Y0145124D01*
X0220034Y0145124D01*
X0220103Y0145128D01*
X0220171Y0145136D01*
X0220238Y0145148D01*
X0220305Y0145163D01*
X0220371Y0145183D01*
X0220435Y0145206D01*
X0220498Y0145232D01*
X0220560Y0145263D01*
X0220620Y0145296D01*
X0220677Y0145333D01*
X0220733Y0145374D01*
X0220786Y0145417D01*
X0220836Y0145463D01*
X0220884Y0145513D01*
X0220929Y0145564D01*
X0220971Y0145619D01*
X0221010Y0145675D01*
X0221045Y0145734D01*
X0221077Y0145795D01*
X0221105Y0145857D01*
X0221130Y0145921D01*
X0221151Y0145986D01*
X0221169Y0146052D01*
X0221182Y0146119D01*
X0221192Y0146187D01*
X0221198Y0146255D01*
X0221200Y0146324D01*
X0221200Y0246324D02*
X0221198Y0246255D01*
X0221192Y0246187D01*
X0221182Y0246119D01*
X0221169Y0246052D01*
X0221151Y0245986D01*
X0221130Y0245921D01*
X0221105Y0245857D01*
X0221077Y0245795D01*
X0221045Y0245734D01*
X0221010Y0245675D01*
X0220971Y0245619D01*
X0220929Y0245564D01*
X0220884Y0245513D01*
X0220836Y0245463D01*
X0220786Y0245417D01*
X0220733Y0245374D01*
X0220677Y0245333D01*
X0220620Y0245296D01*
X0220560Y0245263D01*
X0220498Y0245232D01*
X0220435Y0245206D01*
X0220371Y0245183D01*
X0220305Y0245163D01*
X0220238Y0245148D01*
X0220171Y0245136D01*
X0220103Y0245128D01*
X0220034Y0245124D01*
X0219966Y0245124D01*
X0219897Y0245128D01*
X0219829Y0245136D01*
X0219762Y0245148D01*
X0219695Y0245163D01*
X0219629Y0245183D01*
X0219565Y0245206D01*
X0219502Y0245232D01*
X0219440Y0245263D01*
X0219380Y0245296D01*
X0219323Y0245333D01*
X0219267Y0245374D01*
X0219214Y0245417D01*
X0219164Y0245463D01*
X0219116Y0245513D01*
X0219071Y0245564D01*
X0219029Y0245619D01*
X0218990Y0245675D01*
X0218955Y0245734D01*
X0218923Y0245795D01*
X0218895Y0245857D01*
X0218870Y0245921D01*
X0218849Y0245986D01*
X0218831Y0246052D01*
X0218818Y0246119D01*
X0218808Y0246187D01*
X0218802Y0246255D01*
X0218800Y0246324D01*
X0166200Y0246324D02*
X0166198Y0246255D01*
X0166192Y0246187D01*
X0166182Y0246119D01*
X0166169Y0246052D01*
X0166151Y0245986D01*
X0166130Y0245921D01*
X0166105Y0245857D01*
X0166077Y0245795D01*
X0166045Y0245734D01*
X0166010Y0245675D01*
X0165971Y0245619D01*
X0165929Y0245564D01*
X0165884Y0245513D01*
X0165836Y0245463D01*
X0165786Y0245417D01*
X0165733Y0245374D01*
X0165677Y0245333D01*
X0165620Y0245296D01*
X0165560Y0245263D01*
X0165498Y0245232D01*
X0165435Y0245206D01*
X0165371Y0245183D01*
X0165305Y0245163D01*
X0165238Y0245148D01*
X0165171Y0245136D01*
X0165103Y0245128D01*
X0165034Y0245124D01*
X0164966Y0245124D01*
X0164897Y0245128D01*
X0164829Y0245136D01*
X0164762Y0245148D01*
X0164695Y0245163D01*
X0164629Y0245183D01*
X0164565Y0245206D01*
X0164502Y0245232D01*
X0164440Y0245263D01*
X0164380Y0245296D01*
X0164323Y0245333D01*
X0164267Y0245374D01*
X0164214Y0245417D01*
X0164164Y0245463D01*
X0164116Y0245513D01*
X0164071Y0245564D01*
X0164029Y0245619D01*
X0163990Y0245675D01*
X0163955Y0245734D01*
X0163923Y0245795D01*
X0163895Y0245857D01*
X0163870Y0245921D01*
X0163849Y0245986D01*
X0163831Y0246052D01*
X0163818Y0246119D01*
X0163808Y0246187D01*
X0163802Y0246255D01*
X0163800Y0246324D01*
X0111200Y0246324D02*
X0111198Y0246255D01*
X0111192Y0246187D01*
X0111182Y0246119D01*
X0111169Y0246052D01*
X0111151Y0245986D01*
X0111130Y0245921D01*
X0111105Y0245857D01*
X0111077Y0245795D01*
X0111045Y0245734D01*
X0111010Y0245675D01*
X0110971Y0245619D01*
X0110929Y0245564D01*
X0110884Y0245513D01*
X0110836Y0245463D01*
X0110786Y0245417D01*
X0110733Y0245374D01*
X0110677Y0245333D01*
X0110620Y0245296D01*
X0110560Y0245263D01*
X0110498Y0245232D01*
X0110435Y0245206D01*
X0110371Y0245183D01*
X0110305Y0245163D01*
X0110238Y0245148D01*
X0110171Y0245136D01*
X0110103Y0245128D01*
X0110034Y0245124D01*
X0109966Y0245124D01*
X0109897Y0245128D01*
X0109829Y0245136D01*
X0109762Y0245148D01*
X0109695Y0245163D01*
X0109629Y0245183D01*
X0109565Y0245206D01*
X0109502Y0245232D01*
X0109440Y0245263D01*
X0109380Y0245296D01*
X0109323Y0245333D01*
X0109267Y0245374D01*
X0109214Y0245417D01*
X0109164Y0245463D01*
X0109116Y0245513D01*
X0109071Y0245564D01*
X0109029Y0245619D01*
X0108990Y0245675D01*
X0108955Y0245734D01*
X0108923Y0245795D01*
X0108895Y0245857D01*
X0108870Y0245921D01*
X0108849Y0245986D01*
X0108831Y0246052D01*
X0108818Y0246119D01*
X0108808Y0246187D01*
X0108802Y0246255D01*
X0108800Y0246324D01*
X0108800Y0146324D02*
X0108802Y0146255D01*
X0108808Y0146187D01*
X0108818Y0146119D01*
X0108831Y0146052D01*
X0108849Y0145986D01*
X0108870Y0145921D01*
X0108895Y0145857D01*
X0108923Y0145795D01*
X0108955Y0145734D01*
X0108990Y0145675D01*
X0109029Y0145619D01*
X0109071Y0145564D01*
X0109116Y0145513D01*
X0109164Y0145463D01*
X0109214Y0145417D01*
X0109267Y0145374D01*
X0109323Y0145333D01*
X0109380Y0145296D01*
X0109440Y0145263D01*
X0109502Y0145232D01*
X0109565Y0145206D01*
X0109629Y0145183D01*
X0109695Y0145163D01*
X0109762Y0145148D01*
X0109829Y0145136D01*
X0109897Y0145128D01*
X0109966Y0145124D01*
X0110034Y0145124D01*
X0110103Y0145128D01*
X0110171Y0145136D01*
X0110238Y0145148D01*
X0110305Y0145163D01*
X0110371Y0145183D01*
X0110435Y0145206D01*
X0110498Y0145232D01*
X0110560Y0145263D01*
X0110620Y0145296D01*
X0110677Y0145333D01*
X0110733Y0145374D01*
X0110786Y0145417D01*
X0110836Y0145463D01*
X0110884Y0145513D01*
X0110929Y0145564D01*
X0110971Y0145619D01*
X0111010Y0145675D01*
X0111045Y0145734D01*
X0111077Y0145795D01*
X0111105Y0145857D01*
X0111130Y0145921D01*
X0111151Y0145986D01*
X0111169Y0146052D01*
X0111182Y0146119D01*
X0111192Y0146187D01*
X0111198Y0146255D01*
X0111200Y0146324D01*
X0111383Y0040778D02*
X0111383Y0040741D01*
X0111383Y0040668D02*
X0111383Y0040521D01*
X0111347Y0040521D02*
X0111420Y0040521D01*
X0111482Y0040558D02*
X0111518Y0040521D01*
X0111629Y0040521D01*
X0111629Y0040485D02*
X0111629Y0040668D01*
X0111518Y0040668D01*
X0111482Y0040631D01*
X0111482Y0040558D01*
X0111555Y0040448D02*
X0111592Y0040448D01*
X0111629Y0040485D01*
X0111684Y0040521D02*
X0111684Y0040741D01*
X0111721Y0040668D02*
X0111794Y0040668D01*
X0111831Y0040631D01*
X0111831Y0040521D01*
X0111924Y0040558D02*
X0111960Y0040521D01*
X0111924Y0040558D02*
X0111924Y0040705D01*
X0111960Y0040668D02*
X0111887Y0040668D01*
X0112022Y0040631D02*
X0112059Y0040668D01*
X0112169Y0040668D01*
X0112132Y0040595D02*
X0112059Y0040595D01*
X0112022Y0040631D01*
X0112022Y0040521D02*
X0112132Y0040521D01*
X0112169Y0040558D01*
X0112132Y0040595D01*
X0112225Y0040521D02*
X0112371Y0040741D01*
X0112427Y0040741D02*
X0112427Y0040521D01*
X0112574Y0040521D01*
X0112630Y0040558D02*
X0112666Y0040595D01*
X0112776Y0040595D01*
X0112776Y0040631D02*
X0112776Y0040521D01*
X0112666Y0040521D01*
X0112630Y0040558D01*
X0112666Y0040668D02*
X0112740Y0040668D01*
X0112776Y0040631D01*
X0112832Y0040631D02*
X0112832Y0040558D01*
X0112869Y0040521D01*
X0112979Y0040521D01*
X0112979Y0040485D02*
X0112979Y0040668D01*
X0112869Y0040668D01*
X0112832Y0040631D01*
X0112906Y0040448D02*
X0112942Y0040448D01*
X0112979Y0040485D01*
X0113035Y0040521D02*
X0113108Y0040521D01*
X0113072Y0040521D02*
X0113072Y0040741D01*
X0113035Y0040741D01*
X0113170Y0040631D02*
X0113207Y0040668D01*
X0113280Y0040668D01*
X0113317Y0040631D01*
X0113317Y0040595D01*
X0113170Y0040595D01*
X0113170Y0040631D02*
X0113170Y0040558D01*
X0113207Y0040521D01*
X0113280Y0040521D01*
X0113372Y0040521D02*
X0113519Y0040741D01*
X0113575Y0040705D02*
X0113575Y0040668D01*
X0113612Y0040631D01*
X0113685Y0040631D01*
X0113722Y0040595D01*
X0113722Y0040558D01*
X0113685Y0040521D01*
X0113612Y0040521D01*
X0113575Y0040558D01*
X0113575Y0040705D02*
X0113612Y0040741D01*
X0113685Y0040741D01*
X0113722Y0040705D01*
X0113778Y0040668D02*
X0113814Y0040668D01*
X0113814Y0040521D01*
X0113778Y0040521D02*
X0113851Y0040521D01*
X0113913Y0040521D02*
X0113986Y0040521D01*
X0113949Y0040521D02*
X0113949Y0040741D01*
X0113913Y0040741D01*
X0113814Y0040741D02*
X0113814Y0040778D01*
X0114048Y0040741D02*
X0114048Y0040521D01*
X0114048Y0040595D02*
X0114158Y0040668D01*
X0114216Y0040631D02*
X0114253Y0040668D01*
X0114363Y0040668D01*
X0114419Y0040631D02*
X0114419Y0040558D01*
X0114456Y0040521D01*
X0114566Y0040521D01*
X0114622Y0040521D02*
X0114622Y0040668D01*
X0114566Y0040668D02*
X0114456Y0040668D01*
X0114419Y0040631D01*
X0114363Y0040558D02*
X0114327Y0040595D01*
X0114253Y0040595D01*
X0114216Y0040631D01*
X0114216Y0040521D02*
X0114327Y0040521D01*
X0114363Y0040558D01*
X0114158Y0040521D02*
X0114048Y0040595D01*
X0114622Y0040595D02*
X0114695Y0040668D01*
X0114732Y0040668D01*
X0114790Y0040631D02*
X0114827Y0040668D01*
X0114901Y0040668D01*
X0114937Y0040631D01*
X0114937Y0040595D01*
X0114790Y0040595D01*
X0114790Y0040631D02*
X0114790Y0040558D01*
X0114827Y0040521D01*
X0114901Y0040521D01*
X0114993Y0040558D02*
X0114993Y0040631D01*
X0115030Y0040668D01*
X0115103Y0040668D01*
X0115140Y0040631D01*
X0115140Y0040595D01*
X0114993Y0040595D01*
X0114993Y0040558D02*
X0115030Y0040521D01*
X0115103Y0040521D01*
X0115196Y0040521D02*
X0115196Y0040668D01*
X0115306Y0040668D01*
X0115342Y0040631D01*
X0115342Y0040521D01*
X0115398Y0040521D02*
X0115545Y0040741D01*
X0115637Y0040668D02*
X0115748Y0040668D01*
X0115803Y0040668D02*
X0115840Y0040668D01*
X0115840Y0040521D01*
X0115803Y0040521D02*
X0115877Y0040521D01*
X0115938Y0040521D02*
X0116012Y0040521D01*
X0115975Y0040521D02*
X0115975Y0040741D01*
X0115938Y0040741D01*
X0115840Y0040741D02*
X0115840Y0040778D01*
X0115711Y0040595D02*
X0115637Y0040595D01*
X0115601Y0040631D01*
X0115637Y0040668D01*
X0115711Y0040595D02*
X0115748Y0040558D01*
X0115711Y0040521D01*
X0115601Y0040521D01*
X0116073Y0040521D02*
X0116073Y0040741D01*
X0116184Y0040668D02*
X0116073Y0040595D01*
X0116184Y0040521D01*
X0116242Y0040521D02*
X0116279Y0040521D01*
X0116279Y0040558D01*
X0116242Y0040558D01*
X0116242Y0040521D01*
X0116344Y0040521D02*
X0116454Y0040521D01*
X0116490Y0040558D01*
X0116490Y0040631D01*
X0116454Y0040668D01*
X0116344Y0040668D01*
X0116344Y0040741D02*
X0116344Y0040521D01*
X0116546Y0040521D02*
X0116546Y0040668D01*
X0116583Y0040668D01*
X0116619Y0040631D01*
X0116656Y0040668D01*
X0116693Y0040631D01*
X0116693Y0040521D01*
X0116749Y0040521D02*
X0116859Y0040521D01*
X0116895Y0040558D01*
X0116895Y0040631D01*
X0116859Y0040668D01*
X0116749Y0040668D01*
X0116749Y0040448D01*
X0116619Y0040521D02*
X0116619Y0040631D01*
X0112574Y0040741D02*
X0112427Y0040741D01*
X0112427Y0040631D02*
X0112500Y0040631D01*
X0111721Y0040668D02*
X0111684Y0040631D01*
X0111383Y0040668D02*
X0111347Y0040668D01*
X0111291Y0040521D02*
X0111144Y0040521D01*
X0111144Y0040741D01*
X0111082Y0040668D02*
X0111009Y0040668D01*
X0111046Y0040705D02*
X0111046Y0040558D01*
X0111082Y0040521D01*
X0110950Y0040668D02*
X0110914Y0040668D01*
X0110840Y0040595D01*
X0110784Y0040595D02*
X0110674Y0040595D01*
X0110638Y0040558D01*
X0110674Y0040521D01*
X0110784Y0040521D01*
X0110784Y0040631D01*
X0110748Y0040668D01*
X0110674Y0040668D01*
X0110582Y0040631D02*
X0110582Y0040521D01*
X0110582Y0040631D02*
X0110545Y0040668D01*
X0110472Y0040668D01*
X0110435Y0040631D01*
X0110379Y0040558D02*
X0110343Y0040521D01*
X0110269Y0040521D01*
X0110233Y0040558D01*
X0110233Y0040705D01*
X0110269Y0040741D01*
X0110343Y0040741D01*
X0110379Y0040705D01*
X0110435Y0040741D02*
X0110435Y0040521D01*
X0110177Y0040741D02*
X0110030Y0040521D01*
X0109974Y0040558D02*
X0109974Y0040631D01*
X0109938Y0040668D01*
X0109864Y0040668D01*
X0109827Y0040631D01*
X0109827Y0040558D01*
X0109864Y0040521D01*
X0109938Y0040521D01*
X0109974Y0040558D01*
X0109772Y0040521D02*
X0109772Y0040631D01*
X0109735Y0040668D01*
X0109625Y0040668D01*
X0109625Y0040521D01*
X0109563Y0040521D02*
X0109490Y0040521D01*
X0109526Y0040521D02*
X0109526Y0040668D01*
X0109490Y0040668D01*
X0109434Y0040668D02*
X0109434Y0040521D01*
X0109324Y0040521D01*
X0109287Y0040558D01*
X0109287Y0040668D01*
X0109231Y0040668D02*
X0109121Y0040668D01*
X0109085Y0040631D01*
X0109085Y0040558D01*
X0109121Y0040521D01*
X0109231Y0040521D01*
X0109231Y0040741D01*
X0109026Y0040668D02*
X0108989Y0040668D01*
X0108916Y0040595D01*
X0108860Y0040631D02*
X0108713Y0040631D01*
X0108713Y0040668D02*
X0108787Y0040741D01*
X0108860Y0040668D01*
X0108860Y0040521D01*
X0108916Y0040521D02*
X0108916Y0040668D01*
X0108713Y0040668D02*
X0108713Y0040521D01*
X0108511Y0040521D02*
X0108657Y0040741D01*
X0108455Y0040668D02*
X0108345Y0040668D01*
X0108308Y0040631D01*
X0108345Y0040595D01*
X0108418Y0040595D01*
X0108455Y0040558D01*
X0108418Y0040521D01*
X0108308Y0040521D01*
X0108246Y0040521D02*
X0108210Y0040558D01*
X0108210Y0040705D01*
X0108246Y0040668D02*
X0108173Y0040668D01*
X0108117Y0040631D02*
X0108117Y0040521D01*
X0108117Y0040631D02*
X0108081Y0040668D01*
X0107971Y0040668D01*
X0107971Y0040521D01*
X0107915Y0040595D02*
X0107768Y0040595D01*
X0107768Y0040631D02*
X0107805Y0040668D01*
X0107878Y0040668D01*
X0107915Y0040631D01*
X0107915Y0040595D01*
X0107878Y0040521D02*
X0107805Y0040521D01*
X0107768Y0040558D01*
X0107768Y0040631D01*
X0107712Y0040631D02*
X0107712Y0040521D01*
X0107639Y0040521D02*
X0107639Y0040631D01*
X0107675Y0040668D01*
X0107712Y0040631D01*
X0107639Y0040631D02*
X0107602Y0040668D01*
X0107565Y0040668D01*
X0107565Y0040521D01*
X0107510Y0040521D02*
X0107510Y0040668D01*
X0107510Y0040521D02*
X0107399Y0040521D01*
X0107363Y0040558D01*
X0107363Y0040668D01*
X0107307Y0040668D02*
X0107197Y0040668D01*
X0107160Y0040631D01*
X0107160Y0040558D01*
X0107197Y0040521D01*
X0107307Y0040521D01*
X0107104Y0040558D02*
X0107104Y0040631D01*
X0107068Y0040668D01*
X0106994Y0040668D01*
X0106958Y0040631D01*
X0106958Y0040558D01*
X0106994Y0040521D01*
X0107068Y0040521D01*
X0107104Y0040558D01*
X0106902Y0040558D02*
X0106902Y0040705D01*
X0106865Y0040741D01*
X0106755Y0040741D01*
X0106755Y0040521D01*
X0106865Y0040521D01*
X0106902Y0040558D01*
X0106699Y0040741D02*
X0106553Y0040521D01*
X0106497Y0040558D02*
X0106460Y0040595D01*
X0106387Y0040595D01*
X0106350Y0040631D01*
X0106387Y0040668D01*
X0106497Y0040668D01*
X0106497Y0040558D02*
X0106460Y0040521D01*
X0106350Y0040521D01*
X0106294Y0040558D02*
X0106257Y0040595D01*
X0106184Y0040595D01*
X0106147Y0040631D01*
X0106184Y0040668D01*
X0106294Y0040668D01*
X0106294Y0040558D02*
X0106257Y0040521D01*
X0106147Y0040521D01*
X0106092Y0040558D02*
X0106092Y0040631D01*
X0106055Y0040668D01*
X0105981Y0040668D01*
X0105945Y0040631D01*
X0105945Y0040558D01*
X0105981Y0040521D01*
X0106055Y0040521D01*
X0106092Y0040558D01*
X0105886Y0040668D02*
X0105849Y0040668D01*
X0105776Y0040595D01*
X0105720Y0040631D02*
X0105720Y0040521D01*
X0105776Y0040521D02*
X0105776Y0040668D01*
X0105720Y0040631D02*
X0105684Y0040668D01*
X0105573Y0040668D01*
X0105573Y0040521D01*
X0105518Y0040558D02*
X0105518Y0040631D01*
X0105481Y0040668D01*
X0105408Y0040668D01*
X0105371Y0040631D01*
X0105371Y0040558D01*
X0105408Y0040521D01*
X0105481Y0040521D01*
X0105518Y0040558D01*
X0105309Y0040485D02*
X0105309Y0040668D01*
X0105309Y0040741D02*
X0105309Y0040778D01*
X0105180Y0040741D02*
X0105033Y0040521D01*
X0104977Y0040558D02*
X0104941Y0040595D01*
X0104867Y0040595D01*
X0104831Y0040631D01*
X0104867Y0040668D01*
X0104977Y0040668D01*
X0104977Y0040558D02*
X0104941Y0040521D01*
X0104831Y0040521D01*
X0104772Y0040668D02*
X0104735Y0040668D01*
X0104662Y0040595D01*
X0104606Y0040595D02*
X0104459Y0040595D01*
X0104459Y0040631D02*
X0104496Y0040668D01*
X0104569Y0040668D01*
X0104606Y0040631D01*
X0104606Y0040595D01*
X0104569Y0040521D02*
X0104496Y0040521D01*
X0104459Y0040558D01*
X0104459Y0040631D01*
X0104403Y0040668D02*
X0104293Y0040668D01*
X0104257Y0040631D01*
X0104293Y0040595D01*
X0104367Y0040595D01*
X0104403Y0040558D01*
X0104367Y0040521D01*
X0104257Y0040521D01*
X0104201Y0040558D02*
X0104201Y0040741D01*
X0104054Y0040741D02*
X0104054Y0040558D01*
X0104091Y0040521D01*
X0104164Y0040521D01*
X0104201Y0040558D01*
X0103998Y0040741D02*
X0103852Y0040521D01*
X0103787Y0040521D02*
X0103750Y0040521D01*
X0103750Y0040558D01*
X0103787Y0040558D01*
X0103787Y0040521D01*
X0103694Y0040558D02*
X0103658Y0040521D01*
X0103584Y0040521D01*
X0103548Y0040558D01*
X0103548Y0040705D01*
X0103584Y0040741D01*
X0103658Y0040741D01*
X0103694Y0040705D01*
X0103750Y0040668D02*
X0103750Y0040631D01*
X0103787Y0040631D01*
X0103787Y0040668D01*
X0103750Y0040668D01*
X0104662Y0040668D02*
X0104662Y0040521D01*
X0105236Y0040448D02*
X0105272Y0040448D01*
X0105309Y0040485D01*
X0109526Y0040741D02*
X0109526Y0040778D01*
X0110840Y0040668D02*
X0110840Y0040521D01*
D225*
X0037500Y0082524D02*
X0027500Y0082524D01*
X0027500Y0092524D01*
X0027500Y0102524D01*
X0027500Y0112524D01*
X0027500Y0122524D01*
X0027500Y0132524D01*
X0027500Y0142524D01*
X0027500Y0152524D01*
X0027500Y0162524D01*
X0027500Y0172524D01*
X0027500Y0182524D01*
X0027500Y0192524D01*
X0027500Y0202524D01*
X0027500Y0212524D01*
X0027500Y0222524D01*
X0027500Y0232524D01*
X0027500Y0242524D01*
X0027500Y0252524D01*
X0027500Y0262524D01*
X0027500Y0272524D01*
X0027500Y0282524D01*
X0037500Y0282524D01*
X0037500Y0272524D01*
X0027500Y0272524D01*
X0037500Y0272524D02*
X0037500Y0262524D01*
X0027500Y0262524D01*
X0037500Y0262524D02*
X0037500Y0252524D01*
X0027500Y0252524D01*
X0037500Y0252524D02*
X0037500Y0242524D01*
X0027500Y0242524D01*
X0037500Y0242524D02*
X0037500Y0232524D01*
X0027500Y0232524D01*
X0037500Y0232524D02*
X0037500Y0222524D01*
X0027500Y0222524D01*
X0037500Y0222524D02*
X0037500Y0212524D01*
X0027500Y0212524D01*
X0037500Y0212524D02*
X0037500Y0202524D01*
X0027500Y0202524D01*
X0037500Y0202524D02*
X0037500Y0192524D01*
X0027500Y0192524D01*
X0037500Y0192524D02*
X0037500Y0182524D01*
X0027500Y0182524D01*
X0037500Y0182524D02*
X0037500Y0172524D01*
X0027500Y0172524D01*
X0037500Y0172524D02*
X0037500Y0162524D01*
X0027500Y0162524D01*
X0037500Y0162524D02*
X0037500Y0152524D01*
X0027500Y0152524D01*
X0037500Y0152524D02*
X0037500Y0142524D01*
X0027500Y0142524D01*
X0037500Y0142524D02*
X0037500Y0132524D01*
X0027500Y0132524D01*
X0037500Y0132524D02*
X0037500Y0122524D01*
X0027500Y0122524D01*
X0037500Y0122524D02*
X0037500Y0112524D01*
X0027500Y0112524D01*
X0037500Y0112524D02*
X0037500Y0102524D01*
X0027500Y0102524D01*
X0037500Y0102524D02*
X0037500Y0092524D01*
X0027500Y0092524D01*
X0037500Y0092524D02*
X0037500Y0082524D01*
X0075300Y0101391D02*
X0075867Y0100824D01*
X0077001Y0100824D01*
X0077569Y0101391D01*
X0077569Y0101958D01*
X0077001Y0102525D01*
X0075867Y0102525D01*
X0075300Y0103092D01*
X0075300Y0103659D01*
X0075867Y0104227D01*
X0077001Y0104227D01*
X0077569Y0103659D01*
X0078983Y0103659D02*
X0078983Y0101391D01*
X0079550Y0100824D01*
X0080685Y0100824D01*
X0081252Y0101391D01*
X0082666Y0100824D02*
X0082666Y0104227D01*
X0081252Y0103659D02*
X0080685Y0104227D01*
X0079550Y0104227D01*
X0078983Y0103659D01*
X0082666Y0100824D02*
X0084935Y0100824D01*
X0084935Y0110824D02*
X0084935Y0113092D01*
X0083801Y0114227D01*
X0082666Y0113092D01*
X0082666Y0110824D01*
X0081252Y0111391D02*
X0081252Y0113659D01*
X0080685Y0114227D01*
X0078983Y0114227D01*
X0078983Y0110824D01*
X0080685Y0110824D01*
X0081252Y0111391D01*
X0082666Y0112525D02*
X0084935Y0112525D01*
X0077569Y0111958D02*
X0077569Y0111391D01*
X0077001Y0110824D01*
X0075867Y0110824D01*
X0075300Y0111391D01*
X0075867Y0112525D02*
X0077001Y0112525D01*
X0077569Y0111958D01*
X0077569Y0113659D02*
X0077001Y0114227D01*
X0075867Y0114227D01*
X0075300Y0113659D01*
X0075300Y0113092D01*
X0075867Y0112525D01*
X0075300Y0120824D02*
X0075300Y0123092D01*
X0076434Y0124227D01*
X0077569Y0123092D01*
X0077569Y0120824D01*
X0078983Y0120824D02*
X0078983Y0124227D01*
X0080685Y0124227D01*
X0081252Y0123659D01*
X0081252Y0122525D01*
X0080685Y0121958D01*
X0078983Y0121958D01*
X0080117Y0121958D02*
X0081252Y0120824D01*
X0082666Y0120824D02*
X0082666Y0124227D01*
X0084935Y0124227D01*
X0086349Y0124227D02*
X0086349Y0120824D01*
X0084935Y0120824D02*
X0082666Y0120824D01*
X0082666Y0122525D02*
X0083801Y0122525D01*
X0086349Y0122525D02*
X0087484Y0122525D01*
X0086349Y0124227D02*
X0088618Y0124227D01*
X0084368Y0130824D02*
X0084935Y0131391D01*
X0084935Y0133659D01*
X0084368Y0134227D01*
X0082666Y0134227D01*
X0082666Y0130824D01*
X0084368Y0130824D01*
X0081252Y0130824D02*
X0081252Y0134227D01*
X0078983Y0134227D02*
X0078983Y0130824D01*
X0077569Y0131391D02*
X0077001Y0130824D01*
X0075867Y0130824D01*
X0075300Y0131391D01*
X0075300Y0133659D01*
X0075867Y0134227D01*
X0077001Y0134227D01*
X0077569Y0133659D01*
X0077569Y0132525D02*
X0076434Y0132525D01*
X0077569Y0132525D02*
X0077569Y0131391D01*
X0078983Y0134227D02*
X0081252Y0130824D01*
X0077569Y0122525D02*
X0075300Y0122525D01*
X0075300Y0140824D02*
X0077569Y0140824D01*
X0076434Y0140824D02*
X0076434Y0144227D01*
X0075300Y0143092D01*
X0078983Y0143659D02*
X0079550Y0144227D01*
X0080685Y0144227D01*
X0081252Y0143659D01*
X0081252Y0143092D01*
X0080685Y0142525D01*
X0081252Y0141958D01*
X0081252Y0141391D01*
X0080685Y0140824D01*
X0079550Y0140824D01*
X0078983Y0141391D01*
X0080117Y0142525D02*
X0080685Y0142525D01*
X0081252Y0150824D02*
X0078983Y0150824D01*
X0081252Y0153092D01*
X0081252Y0153659D01*
X0080685Y0154227D01*
X0079550Y0154227D01*
X0078983Y0153659D01*
X0076434Y0154227D02*
X0076434Y0150824D01*
X0075300Y0150824D02*
X0077569Y0150824D01*
X0075300Y0153092D02*
X0076434Y0154227D01*
X0076434Y0160824D02*
X0076434Y0164227D01*
X0075300Y0163092D01*
X0075300Y0160824D02*
X0077569Y0160824D01*
X0078983Y0160824D02*
X0081252Y0160824D01*
X0080117Y0160824D02*
X0080117Y0164227D01*
X0078983Y0163092D01*
X0079550Y0170824D02*
X0078983Y0171391D01*
X0081252Y0173659D01*
X0081252Y0171391D01*
X0080685Y0170824D01*
X0079550Y0170824D01*
X0078983Y0171391D02*
X0078983Y0173659D01*
X0079550Y0174227D01*
X0080685Y0174227D01*
X0081252Y0173659D01*
X0077569Y0170824D02*
X0075300Y0170824D01*
X0076434Y0170824D02*
X0076434Y0174227D01*
X0075300Y0173092D01*
X0075867Y0180824D02*
X0077001Y0180824D01*
X0077569Y0181391D01*
X0077569Y0183659D01*
X0077001Y0184227D01*
X0075867Y0184227D01*
X0075300Y0183659D01*
X0075300Y0183092D01*
X0075867Y0182525D01*
X0077569Y0182525D01*
X0075867Y0180824D02*
X0075300Y0181391D01*
X0075867Y0190824D02*
X0075300Y0191391D01*
X0075300Y0191958D01*
X0075867Y0192525D01*
X0077001Y0192525D01*
X0077569Y0191958D01*
X0077569Y0191391D01*
X0077001Y0190824D01*
X0075867Y0190824D01*
X0075867Y0192525D02*
X0075300Y0193092D01*
X0075300Y0193659D01*
X0075867Y0194227D01*
X0077001Y0194227D01*
X0077569Y0193659D01*
X0077569Y0193092D01*
X0077001Y0192525D01*
X0075300Y0205824D02*
X0075300Y0206391D01*
X0077569Y0208659D01*
X0077569Y0209227D01*
X0075300Y0209227D01*
X0075867Y0215824D02*
X0077001Y0215824D01*
X0077569Y0216391D01*
X0077569Y0216958D01*
X0077001Y0217525D01*
X0075300Y0217525D01*
X0075300Y0216391D01*
X0075867Y0215824D01*
X0075300Y0217525D02*
X0076434Y0218659D01*
X0077569Y0219227D01*
X0077001Y0225824D02*
X0075867Y0225824D01*
X0075300Y0226391D01*
X0075300Y0227525D02*
X0076434Y0228092D01*
X0077001Y0228092D01*
X0077569Y0227525D01*
X0077569Y0226391D01*
X0077001Y0225824D01*
X0075300Y0227525D02*
X0075300Y0229227D01*
X0077569Y0229227D01*
X0077001Y0235824D02*
X0077001Y0239227D01*
X0075300Y0237525D01*
X0077569Y0237525D01*
X0077001Y0245824D02*
X0075867Y0245824D01*
X0075300Y0246391D01*
X0076434Y0247525D02*
X0077001Y0247525D01*
X0077569Y0246958D01*
X0077569Y0246391D01*
X0077001Y0245824D01*
X0077001Y0247525D02*
X0077569Y0248092D01*
X0077569Y0248659D01*
X0077001Y0249227D01*
X0075867Y0249227D01*
X0075300Y0248659D01*
X0075300Y0255824D02*
X0077569Y0258092D01*
X0077569Y0258659D01*
X0077001Y0259227D01*
X0075867Y0259227D01*
X0075300Y0258659D01*
X0075300Y0255824D02*
X0077569Y0255824D01*
X0076434Y0265824D02*
X0076434Y0269227D01*
X0075300Y0269227D02*
X0077569Y0269227D01*
X0078983Y0269227D02*
X0081252Y0265824D01*
X0078983Y0265824D02*
X0081252Y0269227D01*
X0081252Y0275824D02*
X0078983Y0279227D01*
X0077569Y0278659D02*
X0077569Y0277525D01*
X0077001Y0276958D01*
X0075300Y0276958D01*
X0076434Y0276958D02*
X0077569Y0275824D01*
X0078983Y0275824D02*
X0081252Y0279227D01*
X0077569Y0278659D02*
X0077001Y0279227D01*
X0075300Y0279227D01*
X0075300Y0275824D01*
X0100200Y0246324D02*
X0108800Y0246324D01*
X0111200Y0246324D01*
X0121500Y0246324D01*
X0155200Y0246324D02*
X0163800Y0246324D01*
X0166200Y0246324D01*
X0176500Y0246324D01*
X0210200Y0246324D02*
X0218800Y0246324D01*
X0221200Y0246324D01*
X0231500Y0246324D01*
X0244847Y0248680D02*
X0244847Y0249247D01*
X0248250Y0249247D01*
X0248250Y0248680D02*
X0248250Y0249814D01*
X0247683Y0251136D02*
X0246549Y0251136D01*
X0245981Y0251703D01*
X0245981Y0252837D01*
X0246549Y0253404D01*
X0247683Y0253404D01*
X0248250Y0252837D01*
X0248250Y0251703D01*
X0247683Y0251136D01*
X0247683Y0254819D02*
X0246549Y0254819D01*
X0245981Y0255386D01*
X0245981Y0257087D01*
X0248817Y0257087D01*
X0249384Y0256520D01*
X0249384Y0255953D01*
X0248250Y0255386D02*
X0248250Y0257087D01*
X0248250Y0255386D02*
X0247683Y0254819D01*
X0251167Y0256391D02*
X0251734Y0255824D01*
X0252868Y0255824D01*
X0253435Y0256391D01*
X0253435Y0256958D01*
X0252868Y0257525D01*
X0252301Y0257525D01*
X0252868Y0257525D02*
X0253435Y0258092D01*
X0253435Y0258659D01*
X0252868Y0259227D01*
X0251734Y0259227D01*
X0251167Y0258659D01*
X0248250Y0262185D02*
X0248250Y0263319D01*
X0248250Y0262752D02*
X0244847Y0262752D01*
X0244847Y0262185D02*
X0244847Y0263319D01*
X0245981Y0264640D02*
X0245981Y0266342D01*
X0246549Y0266909D01*
X0248250Y0266909D01*
X0248250Y0264640D02*
X0245981Y0264640D01*
X0251167Y0267525D02*
X0252868Y0269227D01*
X0252868Y0265824D01*
X0253435Y0267525D02*
X0251167Y0267525D01*
X0251734Y0275824D02*
X0251167Y0276391D01*
X0251734Y0275824D02*
X0252868Y0275824D01*
X0253435Y0276391D01*
X0253435Y0277525D01*
X0252868Y0278092D01*
X0252301Y0278092D01*
X0251167Y0277525D01*
X0251167Y0279227D01*
X0253435Y0279227D01*
X0250000Y0285024D02*
X0247500Y0282524D01*
X0242500Y0282524D01*
X0240000Y0285024D01*
X0237500Y0282524D01*
X0232500Y0282524D01*
X0230000Y0285024D01*
X0227500Y0282524D01*
X0222500Y0282524D01*
X0220000Y0285024D01*
X0217500Y0282524D01*
X0212500Y0282524D01*
X0210000Y0285024D01*
X0207500Y0282524D01*
X0202500Y0282524D01*
X0200000Y0285024D01*
X0197500Y0282524D01*
X0192500Y0282524D01*
X0190000Y0285024D01*
X0187500Y0282524D01*
X0182500Y0282524D01*
X0180000Y0285024D01*
X0180000Y0290024D01*
X0182500Y0292524D01*
X0187500Y0292524D01*
X0190000Y0290024D01*
X0192500Y0292524D01*
X0197500Y0292524D01*
X0200000Y0290024D01*
X0200000Y0285024D01*
X0200000Y0290024D02*
X0202500Y0292524D01*
X0207500Y0292524D01*
X0210000Y0290024D01*
X0212500Y0292524D01*
X0217500Y0292524D01*
X0220000Y0290024D01*
X0222500Y0292524D01*
X0227500Y0292524D01*
X0230000Y0290024D01*
X0230000Y0285024D01*
X0230000Y0290024D02*
X0232500Y0292524D01*
X0237500Y0292524D01*
X0240000Y0290024D01*
X0242500Y0292524D01*
X0247500Y0292524D01*
X0250000Y0290024D01*
X0250000Y0285024D01*
X0240000Y0285024D02*
X0240000Y0290024D01*
X0220000Y0290024D02*
X0220000Y0285024D01*
X0210000Y0285024D02*
X0210000Y0290024D01*
X0190000Y0290024D02*
X0190000Y0285024D01*
X0245981Y0246698D02*
X0246549Y0247266D01*
X0248250Y0247266D01*
X0248250Y0245564D01*
X0247683Y0244997D01*
X0247116Y0245564D01*
X0247116Y0247266D01*
X0245981Y0246698D02*
X0245981Y0245564D01*
X0246549Y0243582D02*
X0248250Y0243582D01*
X0246549Y0243582D02*
X0245981Y0243015D01*
X0245981Y0241314D01*
X0248250Y0241314D01*
X0248250Y0239899D02*
X0245981Y0239899D01*
X0244847Y0238765D01*
X0245981Y0237631D01*
X0248250Y0237631D01*
X0246549Y0237631D02*
X0246549Y0239899D01*
X0251167Y0238092D02*
X0252301Y0239227D01*
X0252301Y0235824D01*
X0251167Y0235824D02*
X0253435Y0235824D01*
X0252868Y0229227D02*
X0253435Y0228659D01*
X0251167Y0226391D01*
X0251734Y0225824D01*
X0252868Y0225824D01*
X0253435Y0226391D01*
X0253435Y0228659D01*
X0252868Y0229227D02*
X0251734Y0229227D01*
X0251167Y0228659D01*
X0251167Y0226391D01*
X0251167Y0209227D02*
X0253435Y0205824D01*
X0253435Y0209227D01*
X0251167Y0209227D02*
X0251167Y0205824D01*
X0249846Y0205824D02*
X0248711Y0205824D01*
X0249279Y0205824D02*
X0249279Y0209227D01*
X0249846Y0209227D02*
X0248711Y0209227D01*
X0247297Y0209227D02*
X0247297Y0206958D01*
X0246163Y0205824D01*
X0245028Y0206958D01*
X0245028Y0209227D01*
X0245502Y0199227D02*
X0244368Y0199227D01*
X0243801Y0198659D01*
X0243801Y0196391D01*
X0244368Y0195824D01*
X0245502Y0195824D01*
X0246069Y0196391D01*
X0246069Y0197525D01*
X0244935Y0197525D01*
X0246069Y0198659D02*
X0245502Y0199227D01*
X0247484Y0199227D02*
X0249752Y0195824D01*
X0249752Y0199227D01*
X0251167Y0199227D02*
X0251167Y0195824D01*
X0252868Y0195824D01*
X0253435Y0196391D01*
X0253435Y0198659D01*
X0252868Y0199227D01*
X0251167Y0199227D01*
X0247484Y0199227D02*
X0247484Y0195824D01*
X0247484Y0189227D02*
X0249752Y0185824D01*
X0249752Y0189227D01*
X0251167Y0189227D02*
X0251167Y0185824D01*
X0252868Y0185824D01*
X0253435Y0186391D01*
X0253435Y0188659D01*
X0252868Y0189227D01*
X0251167Y0189227D01*
X0247484Y0189227D02*
X0247484Y0185824D01*
X0246069Y0186391D02*
X0245502Y0185824D01*
X0244368Y0185824D01*
X0243801Y0186391D01*
X0243801Y0188659D01*
X0244368Y0189227D01*
X0245502Y0189227D01*
X0246069Y0188659D01*
X0246069Y0187525D02*
X0244935Y0187525D01*
X0246069Y0187525D02*
X0246069Y0186391D01*
X0247484Y0179227D02*
X0247484Y0177525D01*
X0248618Y0178092D01*
X0249185Y0178092D01*
X0249752Y0177525D01*
X0249752Y0176391D01*
X0249185Y0175824D01*
X0248051Y0175824D01*
X0247484Y0176391D01*
X0246069Y0177525D02*
X0243801Y0177525D01*
X0244935Y0178659D02*
X0244935Y0176391D01*
X0247484Y0179227D02*
X0249752Y0179227D01*
X0251167Y0179227D02*
X0251167Y0176958D01*
X0252301Y0175824D01*
X0253435Y0176958D01*
X0253435Y0179227D01*
X0253435Y0169227D02*
X0253435Y0166958D01*
X0252301Y0165824D01*
X0251167Y0166958D01*
X0251167Y0169227D01*
X0249752Y0168659D02*
X0249752Y0168092D01*
X0249185Y0167525D01*
X0249752Y0166958D01*
X0249752Y0166391D01*
X0249185Y0165824D01*
X0248051Y0165824D01*
X0247484Y0166391D01*
X0246209Y0166391D02*
X0246209Y0165824D01*
X0245642Y0165824D01*
X0245642Y0166391D01*
X0246209Y0166391D01*
X0244228Y0166391D02*
X0243660Y0165824D01*
X0242526Y0165824D01*
X0241959Y0166391D01*
X0243093Y0167525D02*
X0243660Y0167525D01*
X0244228Y0166958D01*
X0244228Y0166391D01*
X0243660Y0167525D02*
X0244228Y0168092D01*
X0244228Y0168659D01*
X0243660Y0169227D01*
X0242526Y0169227D01*
X0241959Y0168659D01*
X0240544Y0167525D02*
X0238276Y0167525D01*
X0239410Y0168659D02*
X0239410Y0166391D01*
X0231500Y0168724D02*
X0208500Y0168724D01*
X0210200Y0146324D02*
X0218800Y0146324D01*
X0221200Y0146324D01*
X0231500Y0146324D01*
X0237662Y0145824D02*
X0238796Y0145824D01*
X0238229Y0145824D02*
X0238229Y0149227D01*
X0237662Y0149227D02*
X0238796Y0149227D01*
X0240117Y0148659D02*
X0240117Y0146391D01*
X0240685Y0145824D01*
X0241819Y0145824D01*
X0242386Y0146391D01*
X0242386Y0148659D01*
X0241819Y0149227D01*
X0240685Y0149227D01*
X0240117Y0148659D01*
X0243801Y0149227D02*
X0243801Y0145824D01*
X0243801Y0146958D02*
X0245502Y0146958D01*
X0246069Y0147525D01*
X0246069Y0148659D01*
X0245502Y0149227D01*
X0243801Y0149227D01*
X0244935Y0146958D02*
X0246069Y0145824D01*
X0247484Y0145824D02*
X0249752Y0145824D01*
X0251167Y0145824D02*
X0251167Y0149227D01*
X0253435Y0149227D01*
X0252301Y0147525D02*
X0251167Y0147525D01*
X0249752Y0149227D02*
X0247484Y0149227D01*
X0247484Y0145824D01*
X0247484Y0147525D02*
X0248618Y0147525D01*
X0248051Y0155824D02*
X0247484Y0156391D01*
X0248051Y0155824D02*
X0249185Y0155824D01*
X0249752Y0156391D01*
X0249752Y0156958D01*
X0249185Y0157525D01*
X0248051Y0157525D01*
X0247484Y0158092D01*
X0247484Y0158659D01*
X0248051Y0159227D01*
X0249185Y0159227D01*
X0249752Y0158659D01*
X0251167Y0159227D02*
X0253435Y0159227D01*
X0252301Y0159227D02*
X0252301Y0155824D01*
X0246069Y0155824D02*
X0244935Y0156958D01*
X0245502Y0156958D02*
X0243801Y0156958D01*
X0243801Y0155824D02*
X0243801Y0159227D01*
X0245502Y0159227D01*
X0246069Y0158659D01*
X0246069Y0157525D01*
X0245502Y0156958D01*
X0248618Y0167525D02*
X0249185Y0167525D01*
X0249752Y0168659D02*
X0249185Y0169227D01*
X0248051Y0169227D01*
X0247484Y0168659D01*
X0292500Y0172524D02*
X0292500Y0162524D01*
X0292500Y0152524D01*
X0292500Y0142524D01*
X0292500Y0132524D01*
X0292500Y0122524D01*
X0292500Y0112524D01*
X0292500Y0102524D01*
X0292500Y0092524D01*
X0292500Y0082524D01*
X0302500Y0082524D01*
X0302500Y0092524D01*
X0302500Y0102524D01*
X0302500Y0112524D01*
X0302500Y0122524D01*
X0302500Y0132524D01*
X0302500Y0142524D01*
X0302500Y0152524D01*
X0302500Y0162524D01*
X0302500Y0172524D01*
X0302500Y0182524D01*
X0302500Y0192524D01*
X0302500Y0202524D01*
X0302500Y0212524D01*
X0302500Y0222524D01*
X0302500Y0232524D01*
X0302500Y0242524D01*
X0302500Y0252524D01*
X0302500Y0262524D01*
X0302500Y0272524D01*
X0302500Y0282524D01*
X0292500Y0282524D01*
X0292500Y0272524D01*
X0292500Y0262524D01*
X0292500Y0252524D01*
X0292500Y0242524D01*
X0292500Y0232524D01*
X0292500Y0222524D01*
X0292500Y0212524D01*
X0292500Y0202524D01*
X0292500Y0192524D01*
X0292500Y0182524D01*
X0292500Y0172524D01*
X0302500Y0172524D01*
X0302500Y0182524D02*
X0292500Y0182524D01*
X0292500Y0192524D02*
X0302500Y0192524D01*
X0302500Y0202524D02*
X0292500Y0202524D01*
X0292500Y0212524D02*
X0302500Y0212524D01*
X0302500Y0222524D02*
X0292500Y0222524D01*
X0292500Y0232524D02*
X0302500Y0232524D01*
X0302500Y0242524D02*
X0292500Y0242524D01*
X0292500Y0252524D02*
X0302500Y0252524D01*
X0302500Y0262524D02*
X0292500Y0262524D01*
X0292500Y0272524D02*
X0302500Y0272524D01*
X0253435Y0248659D02*
X0252868Y0249227D01*
X0251734Y0249227D01*
X0251167Y0248659D01*
X0253435Y0248659D02*
X0253435Y0248092D01*
X0251167Y0245824D01*
X0253435Y0245824D01*
X0176500Y0168724D02*
X0153500Y0168724D01*
X0121500Y0168724D02*
X0098500Y0168724D01*
X0100200Y0146324D02*
X0108800Y0146324D01*
X0111200Y0146324D01*
X0121500Y0146324D01*
X0121500Y0068724D02*
X0098500Y0068724D01*
X0208500Y0068724D02*
X0231500Y0068724D01*
X0292500Y0092524D02*
X0302500Y0092524D01*
X0302500Y0102524D02*
X0292500Y0102524D01*
X0292500Y0112524D02*
X0302500Y0112524D01*
X0302500Y0122524D02*
X0292500Y0122524D01*
X0292500Y0132524D02*
X0302500Y0132524D01*
X0302500Y0142524D02*
X0292500Y0142524D01*
X0292500Y0152524D02*
X0302500Y0152524D01*
X0302500Y0162524D02*
X0292500Y0162524D01*
D226*
X0232402Y0162248D02*
X0232402Y0152799D01*
X0207598Y0152799D01*
X0207598Y0162248D01*
X0232402Y0162248D01*
X0232402Y0252799D02*
X0207598Y0252799D01*
X0207598Y0262248D01*
X0232402Y0262248D01*
X0232402Y0252799D01*
X0177402Y0252799D02*
X0152598Y0252799D01*
X0152598Y0262248D01*
X0177402Y0262248D01*
X0177402Y0252799D01*
X0122402Y0252799D02*
X0097598Y0252799D01*
X0097598Y0262248D01*
X0122402Y0262248D01*
X0122402Y0252799D01*
X0122402Y0162248D02*
X0097598Y0162248D01*
X0097598Y0152799D01*
X0122402Y0152799D01*
X0122402Y0162248D01*
D227*
X0108945Y0158526D02*
X0107143Y0156724D01*
X0107593Y0156274D01*
X0108494Y0156274D01*
X0108945Y0156724D01*
X0108945Y0158526D01*
X0108494Y0158976D01*
X0107593Y0158976D01*
X0107143Y0158526D01*
X0107143Y0156724D01*
X0105998Y0156724D02*
X0105548Y0156274D01*
X0104647Y0156274D01*
X0104197Y0156724D01*
X0104197Y0157174D01*
X0104647Y0157625D01*
X0105548Y0157625D01*
X0105998Y0157174D01*
X0105998Y0156724D01*
X0105548Y0157625D02*
X0105998Y0158075D01*
X0105998Y0158526D01*
X0105548Y0158976D01*
X0104647Y0158976D01*
X0104197Y0158526D01*
X0104197Y0158075D01*
X0104647Y0157625D01*
X0103052Y0156274D02*
X0101250Y0156274D01*
X0102151Y0156274D02*
X0102151Y0158976D01*
X0101250Y0158075D01*
X0101250Y0256274D02*
X0103052Y0256274D01*
X0102151Y0256274D02*
X0102151Y0258976D01*
X0101250Y0258075D01*
X0104197Y0258075D02*
X0104197Y0258526D01*
X0104647Y0258976D01*
X0105548Y0258976D01*
X0105998Y0258526D01*
X0105998Y0258075D01*
X0105548Y0257625D01*
X0104647Y0257625D01*
X0104197Y0258075D01*
X0104647Y0257625D02*
X0104197Y0257174D01*
X0104197Y0256724D01*
X0104647Y0256274D01*
X0105548Y0256274D01*
X0105998Y0256724D01*
X0105998Y0257174D01*
X0105548Y0257625D01*
X0107143Y0258526D02*
X0107593Y0258976D01*
X0108494Y0258976D01*
X0108945Y0258526D01*
X0107143Y0256724D01*
X0107593Y0256274D01*
X0108494Y0256274D01*
X0108945Y0256724D01*
X0108945Y0258526D01*
X0107143Y0258526D02*
X0107143Y0256724D01*
X0156250Y0256274D02*
X0158052Y0256274D01*
X0157151Y0256274D02*
X0157151Y0258976D01*
X0156250Y0258075D01*
X0159197Y0258075D02*
X0159197Y0258526D01*
X0159647Y0258976D01*
X0160548Y0258976D01*
X0160998Y0258526D01*
X0160998Y0258075D01*
X0160548Y0257625D01*
X0159647Y0257625D01*
X0159197Y0258075D01*
X0159647Y0257625D02*
X0159197Y0257174D01*
X0159197Y0256724D01*
X0159647Y0256274D01*
X0160548Y0256274D01*
X0160998Y0256724D01*
X0160998Y0257174D01*
X0160548Y0257625D01*
X0162143Y0258526D02*
X0162593Y0258976D01*
X0163494Y0258976D01*
X0163945Y0258526D01*
X0162143Y0256724D01*
X0162593Y0256274D01*
X0163494Y0256274D01*
X0163945Y0256724D01*
X0163945Y0258526D01*
X0162143Y0258526D02*
X0162143Y0256724D01*
X0211250Y0256274D02*
X0213052Y0256274D01*
X0212151Y0256274D02*
X0212151Y0258976D01*
X0211250Y0258075D01*
X0214197Y0258075D02*
X0214197Y0258526D01*
X0214647Y0258976D01*
X0215548Y0258976D01*
X0215998Y0258526D01*
X0215998Y0258075D01*
X0215548Y0257625D01*
X0214647Y0257625D01*
X0214197Y0258075D01*
X0214647Y0257625D02*
X0214197Y0257174D01*
X0214197Y0256724D01*
X0214647Y0256274D01*
X0215548Y0256274D01*
X0215998Y0256724D01*
X0215998Y0257174D01*
X0215548Y0257625D01*
X0217143Y0258526D02*
X0217593Y0258976D01*
X0218494Y0258976D01*
X0218945Y0258526D01*
X0217143Y0256724D01*
X0217593Y0256274D01*
X0218494Y0256274D01*
X0218945Y0256724D01*
X0218945Y0258526D01*
X0217143Y0258526D02*
X0217143Y0256724D01*
X0217593Y0158976D02*
X0218494Y0158976D01*
X0218945Y0158526D01*
X0217143Y0156724D01*
X0217593Y0156274D01*
X0218494Y0156274D01*
X0218945Y0156724D01*
X0218945Y0158526D01*
X0217593Y0158976D02*
X0217143Y0158526D01*
X0217143Y0156724D01*
X0215998Y0156724D02*
X0215548Y0156274D01*
X0214647Y0156274D01*
X0214197Y0156724D01*
X0214197Y0157174D01*
X0214647Y0157625D01*
X0215548Y0157625D01*
X0215998Y0157174D01*
X0215998Y0156724D01*
X0215548Y0157625D02*
X0215998Y0158075D01*
X0215998Y0158526D01*
X0215548Y0158976D01*
X0214647Y0158976D01*
X0214197Y0158526D01*
X0214197Y0158075D01*
X0214647Y0157625D01*
X0213052Y0156274D02*
X0211250Y0156274D01*
X0212151Y0156274D02*
X0212151Y0158976D01*
X0211250Y0158075D01*
D228*
X0205986Y0150994D02*
X0202850Y0147858D01*
X0202850Y0149426D02*
X0205986Y0149426D01*
X0205986Y0147858D02*
X0202850Y0150994D01*
X0204418Y0150994D02*
X0204418Y0147858D01*
X0095986Y0147858D02*
X0092850Y0150994D01*
X0094418Y0150994D02*
X0094418Y0147858D01*
X0092850Y0147858D02*
X0095986Y0150994D01*
X0095986Y0149426D02*
X0092850Y0149426D01*
X0092850Y0247858D02*
X0095986Y0250994D01*
X0094418Y0250994D02*
X0094418Y0247858D01*
X0095986Y0247858D02*
X0092850Y0250994D01*
X0092850Y0249426D02*
X0095986Y0249426D01*
X0147850Y0249426D02*
X0150986Y0249426D01*
X0150986Y0250994D02*
X0147850Y0247858D01*
X0149418Y0247858D02*
X0149418Y0250994D01*
X0147850Y0250994D02*
X0150986Y0247858D01*
X0202850Y0247858D02*
X0205986Y0250994D01*
X0204418Y0250994D02*
X0204418Y0247858D01*
X0205986Y0247858D02*
X0202850Y0250994D01*
X0202850Y0249426D02*
X0205986Y0249426D01*
D229*
X0305000Y0247524D02*
X0327500Y0247524D01*
X0327500Y0257524D02*
X0305000Y0257524D01*
X0305000Y0267524D02*
X0327500Y0267524D01*
X0327500Y0277524D02*
X0305000Y0277524D01*
X0305000Y0237524D02*
X0327500Y0237524D01*
X0327500Y0227524D02*
X0305000Y0227524D01*
X0305000Y0217524D02*
X0327500Y0217524D01*
X0327500Y0207524D02*
X0305000Y0207524D01*
X0305000Y0197524D02*
X0327500Y0197524D01*
X0327500Y0187524D02*
X0305000Y0187524D01*
X0305000Y0177524D02*
X0327500Y0177524D01*
X0327500Y0167524D02*
X0305000Y0167524D01*
X0305000Y0157524D02*
X0327500Y0157524D01*
X0327500Y0147524D02*
X0305000Y0147524D01*
X0305000Y0137524D02*
X0327500Y0137524D01*
X0327500Y0127524D02*
X0305000Y0127524D01*
X0305000Y0117524D02*
X0327500Y0117524D01*
X0327500Y0107524D02*
X0305000Y0107524D01*
X0305000Y0097524D02*
X0327500Y0097524D01*
X0327500Y0087524D02*
X0305000Y0087524D01*
X0025000Y0087524D02*
X0002500Y0087524D01*
X0002500Y0097524D02*
X0025000Y0097524D01*
X0025000Y0107524D02*
X0002500Y0107524D01*
X0002500Y0117524D02*
X0025000Y0117524D01*
X0025000Y0127524D02*
X0002500Y0127524D01*
X0002500Y0137524D02*
X0025000Y0137524D01*
X0025000Y0147524D02*
X0002500Y0147524D01*
X0002500Y0157524D02*
X0025000Y0157524D01*
X0025000Y0167524D02*
X0002500Y0167524D01*
X0002500Y0177524D02*
X0025000Y0177524D01*
X0025000Y0187524D02*
X0002500Y0187524D01*
X0002500Y0197524D02*
X0025000Y0197524D01*
X0025000Y0207524D02*
X0002500Y0207524D01*
X0002500Y0217524D02*
X0025000Y0217524D01*
X0025000Y0227524D02*
X0002500Y0227524D01*
X0002500Y0237524D02*
X0025000Y0237524D01*
X0025000Y0247524D02*
X0002500Y0247524D01*
X0002500Y0257524D02*
X0025000Y0257524D01*
X0025000Y0267524D02*
X0002500Y0267524D01*
X0002500Y0277524D02*
X0025000Y0277524D01*
D230*
X0026500Y0277524D03*
X0026500Y0267524D03*
X0026500Y0257524D03*
X0026500Y0247524D03*
X0026500Y0237524D03*
X0026500Y0227524D03*
X0026500Y0217524D03*
X0026500Y0207524D03*
X0026500Y0197524D03*
X0026500Y0187524D03*
X0026500Y0177524D03*
X0026500Y0167524D03*
X0026500Y0157524D03*
X0026500Y0147524D03*
X0026500Y0137524D03*
X0026500Y0127524D03*
X0026500Y0117524D03*
X0026500Y0107524D03*
X0026500Y0097524D03*
X0026500Y0087524D03*
X0303500Y0087524D03*
X0303500Y0097524D03*
X0303500Y0107524D03*
X0303500Y0117524D03*
X0303500Y0127524D03*
X0303500Y0137524D03*
X0303500Y0147524D03*
X0303500Y0157524D03*
X0303500Y0167524D03*
X0303500Y0177524D03*
X0303500Y0187524D03*
X0303500Y0197524D03*
X0303500Y0207524D03*
X0303500Y0217524D03*
X0303500Y0227524D03*
X0303500Y0237524D03*
X0303500Y0247524D03*
X0303500Y0257524D03*
X0303500Y0267524D03*
X0303500Y0277524D03*
D231*
X0290500Y0277524D03*
X0290500Y0267524D03*
X0290500Y0257524D03*
X0290500Y0247524D03*
X0290500Y0237524D03*
X0290500Y0227524D03*
X0290500Y0217524D03*
X0290500Y0207524D03*
X0290500Y0197524D03*
X0290500Y0187524D03*
X0290500Y0177524D03*
X0290500Y0167524D03*
X0290500Y0157524D03*
X0290500Y0147524D03*
X0290500Y0137524D03*
X0290500Y0127524D03*
X0290500Y0117524D03*
X0290500Y0107524D03*
X0290500Y0097524D03*
X0290500Y0087524D03*
X0039500Y0087524D03*
X0039500Y0097524D03*
X0039500Y0107524D03*
X0039500Y0117524D03*
X0039500Y0127524D03*
X0039500Y0137524D03*
X0039500Y0147524D03*
X0039500Y0157524D03*
X0039500Y0167524D03*
X0039500Y0177524D03*
X0039500Y0187524D03*
X0039500Y0197524D03*
X0039500Y0207524D03*
X0039500Y0217524D03*
X0039500Y0227524D03*
X0039500Y0237524D03*
X0039500Y0247524D03*
X0039500Y0257524D03*
X0039500Y0267524D03*
X0039500Y0277524D03*
D232*
X0050000Y0277524D03*
X0050000Y0267524D03*
X0050000Y0257524D03*
X0050000Y0247524D03*
X0050000Y0237524D03*
X0050000Y0227524D03*
X0050000Y0217524D03*
X0050000Y0207524D03*
X0050000Y0197524D03*
X0050000Y0187524D03*
X0050000Y0177524D03*
X0050000Y0167524D03*
X0050000Y0157524D03*
X0050000Y0147524D03*
X0050000Y0137524D03*
X0050000Y0127524D03*
X0050000Y0117524D03*
X0050000Y0107524D03*
X0050000Y0097524D03*
X0050000Y0087524D03*
X0280000Y0087524D03*
X0280000Y0097524D03*
X0280000Y0107524D03*
X0280000Y0117524D03*
X0280000Y0127524D03*
X0280000Y0137524D03*
X0280000Y0147524D03*
X0280000Y0157524D03*
X0280000Y0167524D03*
X0280000Y0177524D03*
X0280000Y0187524D03*
X0280000Y0197524D03*
X0280000Y0207524D03*
X0280000Y0217524D03*
X0280000Y0227524D03*
X0280000Y0237524D03*
X0280000Y0247524D03*
X0280000Y0257524D03*
X0280000Y0267524D03*
X0280000Y0277524D03*
M02*
